<?xml version="1.0" encoding="UTF-8" standalone="no"?><!DOCTYPE svg PUBLIC "-//W3C//DTD SVG 1.1//EN" "http://www.w3.org/Graphics/SVG/1.1/DTD/svg11.dtd"><svg width="100%" height="100%" viewBox="0 0 1464 1092" version="1.1" xmlns="http://www.w3.org/2000/svg" xmlns:xlink="http://www.w3.org/1999/xlink" xml:space="preserve" xmlns:serif="http://www.serif.com/" style="fill-rule:evenodd;clip-rule:evenodd;stroke-linejoin:round;stroke-miterlimit:2;"><g id="BRAND-KO" serif:id="BRAND KO"><path id="fill" d="M406.921,534.683c-9.61,5.786 -16.575,8.518 -18.54,10.296c-56.112,50.793 -57.45,167.204 -71.542,236.578c-8.672,-23.847 -43.359,-87.802 -111.649,-86.718c-102.162,1.622 -119.306,235.582 -121.405,341.451c-39.819,-121.445 -64.341,-357.519 -16.26,-507.298c53.969,-168.119 187.527,-364.214 280.748,-481.283c-72.48,203.411 -40.169,299.603 -3.801,338.145c-5.132,1.62 -10.748,3.53 -16.846,5.738c-2.356,0.853 -4.204,2.721 -5.03,5.087l-0.406,1.163c-0.989,2.831 -0.381,5.974 1.592,8.232c1.973,2.258 5.007,3.282 7.944,2.681c2.333,-0.477 4.553,-0.88 5.188,-0.994l0.05,0c1.199,0 2.486,0.026 3.86,0.077c-0.027,0.724 0.041,1.464 0.213,2.202l0.271,1.163c0.472,2.026 1.647,3.708 3.209,4.845c-0.059,0.594 -0.054,1.193 0.015,1.787l0.135,1.163c0.263,2.254 1.433,4.303 3.24,5.674c1.807,1.371 4.096,1.947 6.337,1.593c6.241,-0.985 12.029,-2.684 17.369,-5.077c1.086,0.063 2.293,0.179 3.622,0.345c-0.602,1.249 -1.131,2.48 -1.588,3.695c-7.21,10.398 -11.162,16.972 -12.123,19.55c-0.032,0.086 -0.063,0.173 -0.092,0.26l-4.698,14.006l-27.518,55.898c-0.53,1.076 -0.821,2.253 -0.854,3.452c-0.058,2.102 -0.093,3.614 -0.369,4.51l-0.25,0.717l-1.72,3.693c-1.514,3.25 -0.761,7.023 1.696,9.448c-6.069,12.651 -12.005,25.879 -17.807,39.682c-0.079,0.188 -0.151,0.378 -0.216,0.572c-1.779,5.288 -1.292,8.849 -0.676,10.435l1.159,2.118l2.078,2.038l0.271,0.129c-5.76,11.08 -8.755,16.978 -9.009,17.685c-0.22,0.615 -0.368,1.254 -0.439,1.903c-0.164,1.495 -1.712,7.325 -4.504,17.524c-0.861,1.656 -1.815,3.923 -2.807,6.823l-0.398,1.139c-0.891,2.549 -0.491,5.371 1.072,7.573c1.563,2.202 4.095,3.51 6.795,3.51l1.083,0c3.29,0 6.272,-1.936 7.612,-4.941c4.678,-10.496 7.621,-17.227 8.871,-20.174c3.683,-5.2 6.926,-9.911 9.738,-14.128l0.679,0.386l2.897,0.482l0.542,-0c2.847,0 5.497,-1.453 7.027,-3.854c7.432,-11.657 13.036,-23.118 16.848,-34.366c0.087,-0.258 0.162,-0.519 0.224,-0.784l0.05,-0.215c0.251,-0.318 0.48,-0.656 0.685,-1.013l43.747,-76.168c0.182,-0.316 0.343,-0.645 0.481,-0.982c3.384,-8.232 5.87,-13.574 8.126,-15.672c1.331,-1.238 2.221,-2.877 2.533,-4.668c0.618,-3.54 1.274,-6.666 1.346,-7.009c0.441,-1.246 2.307,-4.581 5.421,-10.096c0.39,-0.691 0.68,-1.434 0.86,-2.207l0.803,-3.449c4.555,-5.917 7.019,-9.951 7.719,-11.882l0.054,-0.153l2.483,-7.294c0.381,-0.626 2.836,-4.643 6.007,-9.323c0.935,-1.38 1.435,-3.008 1.435,-4.675c0,-0.496 -0.001,-0.94 0.027,-1.329c1.693,-2.644 3.33,-6 4.852,-10.095c3.649,-3.242 6.226,-6.044 7.89,-8.258c0.996,-0.496 1.975,-0.976 2.937,-1.441c1.568,5.263 3.318,10.995 5.078,16.688c-1.135,2.647 -1.911,4.366 -2.117,4.817c-0.186,0.216 -0.361,0.443 -0.525,0.677c-8.839,12.715 -14.239,22.175 -16.424,28.251c-9.996,19.897 -15.195,30.453 -15.653,31.633c-0.995,2.564 -0.662,5.454 0.892,7.723c0.082,0.12 0.167,0.237 0.254,0.351c0.135,0.212 0.279,0.417 0.433,0.617c-1.202,2.395 -2.051,4.24 -2.548,5.532c-9.772,19.324 -15.869,32.502 -18.349,39.501c-0.49,1.383 -0.606,2.87 -0.338,4.308Zm117.677,-346.018c14.162,-24.927 28.976,-52.792 42.638,-85.673c3.089,5.893 16.498,42.692 30.247,81.193c-0.381,-0.053 -0.765,-0.08 -1.151,-0.08c-4.567,0 -10.488,2.693 -16.481,10.045c-0.421,0.516 -0.778,1.08 -1.064,1.681c-1.264,2.652 -2.499,5.079 -3.48,6.955c-0.922,0.124 -1.831,0.404 -2.689,0.845c-7.361,3.778 -15.145,14.043 -21.866,31.79l-0.074,0.202l-0.574,1.641l-1.271,2.274c-0.66,1.181 -1.023,2.504 -1.057,3.857c-0.069,2.724 -0.549,5.374 -1.441,7.95c-0.029,0.084 -0.057,0.168 -0.083,0.253l-0.489,1.575c-0.441,1.18 -1.32,2.501 -2.543,4.045c-1.133,0.493 -2.297,1.189 -3.472,2.135c-1.73,1.392 -3.709,3.641 -5.848,6.807c9.652,-30.814 18.07,-54.698 27.432,-85.341c0.343,-1.123 4.162,-13.622 4.218,-14.054c0.038,-0.289 -0.09,-0.583 -0.052,-0.872c-0.084,0.113 -0.287,0.087 -0.371,0.2c-0.025,0.034 -0.011,0.036 -0.152,0.5c-14.055,46.25 -25.113,71.934 -32.705,90.286c-2.133,5.156 -4.858,12.1 -4.892,12.198c-4.289,12.275 -6.904,21.585 -8.47,29.49c-2.798,6.156 -4.939,10.448 -5.604,11.765c-1.376,0.839 -2.507,2.076 -3.216,3.596c-2.807,6.025 -6.105,11.658 -7.281,13.62c-4.312,1.227 -10.973,2.834 -19.98,4.828c3.779,-6.853 5.795,-10.707 6.092,-11.537l0.056,-0.161l4.857,-14.478c2.142,-6.096 4.102,-10.895 5.919,-14.382l15.037,-26.156c5.072,-4.858 8.196,-8.11 9.433,-9.694c1.206,-1.544 1.704,-2.794 1.922,-3.496c0.323,-1.039 0.439,-2.132 0.342,-3.215c-0.195,-2.177 -0.298,-4.33 -0.346,-5.562c1.127,-1.482 4.112,-5.322 7.488,-8.945c1.729,-1.855 2.519,-4.397 2.146,-6.905c-0.53,-3.571 -0.915,-6.933 -1.08,-8.45l0.266,-0.713c4.363,-7.571 7.384,-13.945 9.129,-19.084l0.071,-0.151c0.583,-1.251 0.846,-2.626 0.765,-4.003c-0.09,-1.549 -0.461,-2.891 -1.002,-4.052l-1.267,-2.054l-1.735,-1.722c-1.696,-1.324 -4.057,-2.346 -7.295,-2.346l-1.625,0c-1.309,0 -2.6,0.308 -3.767,0.9c-0.999,0.506 -2.214,1.335 -3.633,2.497Zm331.108,25.928c16.731,-47.247 37.15,-104.147 41.057,-111.601c14.347,34.53 29.966,63.529 44.764,89.402c-2.422,-0.5 -3.941,-0.731 -4.548,-0.731c-0.799,0 -4.093,0.538 -9.799,2.008c-0.092,0.024 -0.184,0.049 -0.275,0.076c-7.157,2.107 -13.008,3.745 -17.565,4.866c-6.342,-18.531 -10.253,-31.891 -10.317,-32.021c-0.127,-0.262 -0.395,-0.438 -0.523,-0.7c-0.008,0.14 -0.192,0.231 -0.2,0.371c-0.002,0.042 0.011,0.036 0.148,0.501c1.713,5.81 4.949,16.686 9.618,31.372c0.077,0.241 0.154,0.484 0.232,0.73c-4.179,0.999 -7.167,1.519 -8.972,1.519c-1.092,0 -2.174,0.215 -3.184,0.632c-9.711,4.014 -18.711,6.793 -19.161,6.931c-0.9,0.029 -1.791,0.204 -2.636,0.518c-8.974,3.337 -16.487,5.653 -17.302,5.903c-0.451,0.038 -0.898,0.113 -1.338,0.224Zm302.19,12.598c-3.712,-47.607 -16.23,-106.676 -42.172,-179.482c93.221,117.069 226.779,313.163 280.748,481.283c48.082,149.78 23.559,385.853 -16.26,507.298c-2.099,-105.868 -19.242,-339.829 -121.405,-341.451c-68.29,-1.084 -102.977,62.87 -111.649,86.718c-14.092,-69.374 -15.43,-185.785 -71.542,-236.578c-1.124,-1.017 -3.883,-2.346 -7.837,-4.38c0.056,-0.306 0.095,-0.614 0.117,-0.923l0.287,-0.632c0.154,-0.122 0.406,-0.319 0.696,-0.534c11.7,-2.337 19.802,-5.052 24.409,-7.812c3.617,-2.167 5.742,-4.658 6.858,-6.979c0.735,-1.529 0.986,-3.245 0.719,-4.92c-0.106,-0.669 -0.204,-1.459 -0.249,-1.839c0.184,-2.812 -1.072,-5.586 -3.429,-7.292c-0.851,-0.616 -1.76,-1.466 -2.431,-2.134c0.964,-1.21 2.37,-2.943 3.845,-4.646c1.43,-1.653 2.154,-3.801 2.015,-5.983c-0.272,-4.269 -1.88,-7.325 -4.121,-9.46c-2.283,-2.174 -5.443,-3.617 -9.732,-3.617l-0.671,0c-8.348,0 -16.322,1.7 -23.919,5.114l0.097,-0.278c0.547,-1.567 0.61,-3.244 0.205,-4.822c13.351,-1.591 22.63,-3.785 27.897,-6.278c5.548,-1.191 8.961,-2.339 10.332,-3.093l2.694,-2.136l1.543,-2.517c0.156,-0.39 0.282,-0.792 0.377,-1.201l0.135,-0.581c0.577,-2.476 -0.009,-5.08 -1.59,-7.071c-1.581,-1.991 -3.984,-3.152 -6.527,-3.152l-2.167,0c-0.363,0 -0.726,0.024 -1.086,0.071l-6.733,0.885c0.167,-1.814 -0.264,-3.661 -1.271,-5.241c-1.53,-2.401 -4.18,-3.855 -7.027,-3.855l-2.167,0c-2.534,0 -15.36,1.175 -38.475,3.556c3.781,-3.089 8.296,-6.827 13.541,-11.219c0.376,-0.314 0.723,-0.661 1.037,-1.037c10.514,-12.547 16.788,-19.82 19.473,-21.214c0.328,-0.17 0.644,-0.362 0.947,-0.574c5.308,-3.725 9.366,-7.818 12.263,-12.197c21.196,-4.358 59.245,-32.372 70.332,-105.601c4.49,-7.603 7.599,-14.402 9.379,-20.371c1.945,-6.483 3.158,-12.449 3.67,-17.88c0.114,-1.212 -0.039,-2.434 -0.447,-3.58c-1.46,-4.094 -2.121,-8.03 -1.894,-11.821c0.094,-1.573 -0.26,-3.14 -1.02,-4.521c-3.151,-5.717 -5.755,-11.057 -7.797,-16.025Zm-133.763,344.791c-9.698,8.398 -20.123,15.271 -29.564,21.211c-6.417,1.435 -12.294,2.8 -17.631,4.095c3.481,-2.726 7.29,-5.664 11.348,-8.724c12.257,-8.475 21.431,-13.587 27.813,-14.79c2.496,-0.104 5.183,-0.686 8.033,-1.792Zm-201.063,239.966c-15.45,31.002 -25.196,37.556 -91.072,36.816c-4.314,0.048 -8.387,0.066 -12.237,0.047c0.813,-2.673 0.948,-4.567 0.841,-5.556l-0.016,-0.053c4.523,-17.975 6.875,-29.902 7.292,-35.734l0.066,-0.164c1.822,0.536 3.815,0.446 5.639,-0.337l1.354,-0.581c1.818,-0.78 3.299,-2.182 4.178,-3.954c3.527,-7.108 8.456,-15.572 14.77,-25.4c11.156,-12.594 18.953,-22.847 23.476,-30.695c7.802,-10.35 12.328,-17.05 13.884,-19.882l-0.257,0.535c8.105,-12.917 16.226,-23.566 17.624,-25.382c1.863,-0.879 3.377,-2.438 4.178,-4.43c1.78,-4.428 4.944,-9.936 9.413,-16.568c5.613,-6.265 11.314,-13.793 17.085,-22.596c1.709,0.751 3.211,1.534 4.183,2.067c-1.577,10.055 -0.101,17.578 3.305,22.702c3.992,6.007 10.757,9.653 20.866,9.653l2.013,0c8.606,0 22.88,-4.081 42.639,-12.843c0.385,-0.171 0.757,-0.37 1.111,-0.597c5.281,-3.377 9.552,-5.797 12.843,-7.206c1.219,-0.522 2.147,-0.947 2.874,-0.983c0.001,-0 0.002,-0 0.003,-0c-27.978,21.693 -51.274,42.571 -72.049,76.127c-6.739,3.83 -11.524,6.82 -14.369,8.943c-3.224,2.406 -4.801,4.575 -5.405,5.841c-0.516,1.081 -0.785,2.242 -0.811,3.403c-2.265,1.093 -3.701,1.76 -4.071,1.931c-1.066,0.128 -2.1,0.461 -3.044,0.984l-34.592,19.155c-13.682,4.703 -22.134,8.47 -25.509,10.932c-2.914,2.126 -4.129,5.886 -3.011,9.315c0.126,0.386 0.278,0.758 0.454,1.114c-7.974,2.643 -13.868,5.267 -17.72,7.778c-3.089,2.014 -4.487,5.82 -3.437,9.355c1.051,3.535 4.3,5.959 7.988,5.959l1.342,0c1.833,0 5.413,-0.706 10.608,-2.626c0.225,-0.083 0.447,-0.176 0.664,-0.278c12.82,-6.043 27.731,-10.549 44.717,-13.57c0.138,-0.025 0.276,-0.053 0.412,-0.084c4.013,-0.925 7.938,-1.97 11.774,-3.135Zm-164.961,24.638c-15.814,-12.917 -20.589,-38.19 -48.56,-85.314c12.864,-16.754 23.81,-32.243 32.841,-46.46c10.212,-9.022 16.49,-14.758 18.852,-17.185c1.64,-1.685 2.355,-2.96 2.593,-3.468c0.052,-0.112 0.102,-0.225 0.15,-0.34c0.882,-2.127 2.781,-3.781 5.365,-5.289c1.301,-0.759 2.752,-1.455 4.352,-2.094c-0.271,1.58 -0.549,3.283 -0.834,5.109c-0.053,0.342 -0.085,0.688 -0.096,1.034c-0.743,24.676 -2.276,56.184 -4.598,94.524c-3.854,12.006 -5.835,20.903 -6.136,26.642c-0.134,2.562 0.057,4.714 0.445,6.472c-0.889,8.21 -0.959,13.896 -0.581,17.045c-1.03,2.287 -2.08,4.634 -3.148,7.039c-0.327,0.737 -0.542,1.506 -0.645,2.285Zm-157.382,-191.683c-14.208,-10.825 -29.51,-22.835 -46.098,-37.226c2.283,-2.792 4.932,-5.985 7.932,-9.59c0.254,-0.305 0.486,-0.628 0.694,-0.966c0.662,-1.077 1.323,-2.144 1.983,-3.199c2.497,0.105 4.364,0.179 5.524,0.11c-1.315,-0.824 -2.651,-1.666 -4.004,-2.527c10.195,-16.11 20.025,-29.561 29.513,-40.338c0.36,-0.409 0.679,-0.852 0.953,-1.324c6.762,-11.652 12.129,-20.188 16.216,-25.531c0.227,0.019 0.455,0.028 0.685,0.028c3.059,0 6.482,-1.128 9.873,-4.252c1.572,-1.449 3.257,-3.489 5.001,-6.158c1.442,0.214 3.24,0.395 5.4,0.512c0.984,0.054 1.969,-0.067 2.911,-0.358c6.585,-2.031 12.308,-3.616 17.174,-4.724l0.764,1.827l1.532,1.941l1.86,1.36l2.107,0.831l2.414,0.299c2.493,0 5.794,-0.514 9.875,-1.697c-1.177,1.72 -1.68,2.966 -1.857,3.537c-0.147,0.474 -0.252,0.96 -0.312,1.452l-1.11,8.998l-0.45,1.288c-0.226,0.39 -1.977,3.392 -4.024,6.481c-0.395,0.597 -0.712,1.242 -0.943,1.919c-2.011,5.913 -13.324,24.21 -33.612,55.088c-0.248,0.378 -0.465,0.775 -0.649,1.189c-4.384,9.853 -8.656,17.351 -12.957,22.41c-0.348,0.409 -0.655,0.851 -0.918,1.32c-6.002,10.698 -11.16,19.798 -15.476,27.298Zm-60.163,-72.319c-4.827,-4.129 -9.484,-8.63 -13.764,-13.575c9.81,-14.406 15.565,-23.454 17.476,-27c0.562,0.118 1.138,0.179 1.717,0.179l3.473,-0.668l3.066,-1.877c2.034,-1.747 5.328,-6.685 9.11,-15.257l24.459,-39.015c0.114,-0.182 0.221,-0.369 0.321,-0.559c9.378,-17.902 14.903,-28.94 16.669,-33.068c9.084,-13.52 14.36,-22.91 16.079,-28.02l4.184,-12.167l0.047,-0.141c1.366,-4.214 8.464,-15.459 20.926,-33.963c0.566,-0.841 0.974,-1.777 1.204,-2.764l0.947,-4.067c2.735,-4.829 5.218,-9.057 7.455,-12.681l-0.837,1.891c-0.095,0.214 -0.181,0.433 -0.257,0.654c-2.557,7.409 -1.681,12.573 0.799,15.896c-0.515,4.229 -1.714,13.441 -3.593,24.29l-1.787,5.277c-3.46,6.92 -10.482,15.933 -20.884,27.185c-0.276,0.298 -0.529,0.616 -0.758,0.951c-13.806,20.179 -21.988,34.175 -24.808,41.834c-7.436,12.326 -12.277,20.837 -14.548,25.517c-1.182,2.436 -1.079,5.204 0.101,7.478c-3.096,5.483 -5.193,9.616 -6.318,12.384c-6.462,8.291 -10.436,13.575 -11.94,15.835c-0.376,0.565 -0.675,1.073 -0.91,1.516c-12.531,19.231 -20.013,31.267 -22.499,36.068c-1.862,2.812 -3.571,5.434 -5.128,7.865Zm-89.237,-180.155c2.173,1.877 4.337,3.561 6.473,5.061c-2.704,0.721 -5.541,1.561 -8.51,2.52c-4.785,-0.388 -8.894,-0.581 -12.325,-0.581l-0.542,0c-0.451,0 -2.573,0.388 -6.366,1.163l0.406,-1.163c7.796,-2.823 14.75,-5.156 20.864,-7Zm13.362,9.351c6.987,3.798 13.36,5.595 18.272,5.808c22.712,0.987 56.801,-15.297 67.368,-35.464c-0.055,1.336 1.365,6.859 3.517,14.366c-2.011,0.952 -4.087,1.97 -6.228,3.054c-0.632,1.841 -3.747,5.136 -9.345,9.884c-1.716,5.039 -3.567,8.915 -5.553,11.629c-0.361,1.163 -0.542,2.713 -0.542,4.651c-4.334,6.396 -6.637,10.078 -6.907,11.047l-2.573,7.559c-0.632,1.744 -3.16,5.427 -7.585,11.047l-1.219,5.233c-3.612,6.396 -5.643,10.272 -6.095,11.629c-0.271,0.775 -0.813,3.489 -1.625,8.14c-2.709,2.52 -6.095,8.722 -10.158,18.606l-43.747,76.168l-1.083,0l0.406,-1.163l-1.083,0c0,0.194 -0.451,0.969 -1.354,2.326l-1.083,0c13.092,-27.715 20.632,-44.577 22.618,-50.585l0.271,-0.581l-1.084,0c-5.869,9.691 -10.745,19.187 -14.627,28.49c-0.271,0.097 -2.528,4.167 -6.772,12.21c-0.09,0.291 -0.451,1.841 -1.083,4.651c-1.806,5.33 -5.553,12.695 -11.241,22.095c-1.806,5.33 -9.345,17.346 -22.619,36.049c-0.181,0.581 -3.25,7.559 -9.21,20.932l-1.083,0l0.406,-1.163c0.993,-2.907 1.896,-5.039 2.709,-6.396c3.16,-11.532 4.831,-18.121 5.011,-19.769c0.451,-1.26 9.842,-19.284 28.171,-54.073c3.341,-6.687 6.23,-13.664 8.668,-20.932l1.354,-4.07l-1.625,0c-2.799,5.524 -5.508,9.787 -8.126,12.792c-8.307,13.857 -14.853,26.261 -19.639,37.212l-2.709,1.744c-1.083,0 -1.038,-1.744 0.135,-5.233c7.494,-17.831 15.214,-34.692 23.16,-50.585c3.16,-9.303 7.043,-15.505 11.648,-18.606c0.632,-0.678 1.129,-1.647 1.49,-2.907c0.451,-1.26 1.129,-4.748 2.032,-10.466l-1.625,0c-2.257,3.489 -3.792,6.396 -4.605,8.721l-2.032,5.814c-1.716,0 -5.463,5.814 -11.241,17.443c-0.542,1.55 -1.174,2.326 -1.896,2.326l-0.948,-0.581l1.896,-4.07l0.406,-1.163c0.451,-1.357 0.722,-3.682 0.813,-6.977l27.765,-56.399l4.876,-14.536c0.903,-2.423 4.831,-8.625 11.783,-18.606c1.625,-4.748 4.605,-9.787 8.939,-15.117l0.406,-1.163c0.271,-0.775 -0.135,-1.163 -1.219,-1.163c-1.445,0.775 -2.664,1.163 -3.657,1.163c-0.181,-0.678 -0.09,-1.454 0.271,-2.326l-2.709,0c-2.438,1.454 -4.424,2.423 -5.959,2.907c-2.889,-0.388 -5.327,-0.581 -7.314,-0.581c-5.147,2.52 -10.79,4.264 -16.93,5.233l-0.135,-1.163l0.135,-0.581c2.528,0 6.321,-2.132 11.377,-6.396l0.406,-1.163l-6.366,-0.581l-0.542,0c-1.986,0 -4.786,0.388 -8.397,1.163l-0.271,-1.163c2.582,-0.709 7.761,-2.832 15.535,-6.371Zm102.542,-5.222c-0.693,-2.068 -1.343,-4.1 -1.951,-6.102c2.38,-1.008 4.634,-1.892 6.763,-2.65c-0.933,1.463 -1.952,3.023 -3.055,4.68c-0.358,0.538 -0.653,1.117 -0.877,1.723c-0.295,0.796 -0.588,1.579 -0.88,2.349Zm-2.429,25.968c4.416,14.072 8.128,25.575 8.128,25.575c0,0 -19.739,46.188 -36.855,63.548c-1.33,1.348 -2.652,2.641 -3.964,3.881c0.973,-1.961 1.988,-4.031 3.047,-6.21c10.113,-14.923 20.497,-33.336 31.151,-55.236l0.677,-1.744l-1.083,0c-5.959,5.717 -10.474,13.082 -13.544,22.094c-12.099,19.866 -18.781,30.525 -20.045,31.979c-1.174,0.388 -2.077,1.551 -2.709,3.489l-1.49,4.07c-1.526,3.275 -2.916,6.186 -4.169,8.733c-2.32,1.893 -4.584,3.624 -6.776,5.209c3.131,-7.462 8.495,-18.699 16.092,-33.711c1.806,-5.33 12.325,-24.129 31.557,-56.399c1.084,-2.035 1.941,-3.973 2.573,-5.814l0.135,-0.581l-1.625,0c-17.336,28.975 -27.72,45.255 -31.151,48.84c0.09,-0.388 -0.045,-0.581 -0.406,-0.581c0.451,-1.163 5.643,-11.629 15.576,-31.397c1.844,-5.466 6.804,-14.047 14.881,-25.744Zm51.963,-103.215c-0.022,4.499 0.256,7.387 0.259,7.415c0.619,5.712 1.934,16.893 12.665,47.706c-8.345,12.783 -13.083,20.921 -14.216,24.415l-4.199,12.21c-1.625,4.845 -6.817,13.761 -15.576,26.746c-0.903,2.616 -6.456,13.664 -16.659,33.142l-24.785,39.537c-3.883,8.915 -6.637,13.373 -8.262,13.373l-0.948,-0.581c1.173,-3.358 5.193,-11.225 12.059,-23.602c6.493,-10.537 12.312,-21.432 16.993,-30.798c2.161,-3.74 4.576,-7.895 7.246,-12.464c5.327,-10.466 9.165,-19.187 11.512,-26.165l0.813,-2.326l-0.542,0c-0.999,-0 -3.766,4.287 -8.299,12.862c-5.183,-12.043 -9.615,-22.585 -13.273,-32.195c1.275,-3.23 2.732,-7.058 4.371,-11.484c5.869,-8.818 9.481,-15.214 10.835,-19.187l0.542,-1.744c-6.046,0 -14.137,2.081 -24.272,6.243c-2.788,-10.965 -4.201,-21.29 -4.192,-32.277c0.042,-49.655 23.785,-89.236 53.113,-139.56c0.175,0.174 0.356,0.329 0.542,0.467l2.709,0c7.946,-9.981 13.544,-15.796 16.795,-17.443l1.625,0c1.896,0 2.889,0.775 2.98,2.326l-0.271,0.581c-1.625,4.942 -4.605,11.144 -8.939,18.606l-1.083,2.907c-0.181,0.678 0.226,4.361 1.219,11.047c-5.688,6.105 -8.894,10.175 -9.616,12.21c-0.271,0.775 -0.181,3.682 0.271,8.721c-0.271,0.872 -3.612,4.361 -10.023,10.466l-15.711,27.327c-1.986,3.779 -4.153,9.012 -6.501,15.699l-4.876,14.536c-0.451,1.26 -5.147,9.787 -14.086,25.583l3.251,0c18.871,-3.973 31.241,-6.88 37.11,-8.721c1.782,-0.911 4.922,-6.104 9.417,-15.579Zm88.372,-113.62c8.293,23.368 16.014,45.332 20.863,59.163c-2.505,11.567 -3.047,21.636 -1.627,30.207c0.632,1.454 0.632,5.136 0,11.047c-4.334,7.559 -6.998,12.792 -7.991,15.699l-2.032,5.814l1.625,0c2.167,-1.066 6.501,-5.911 13.002,-14.536c1.896,-1.357 8.126,-8.528 18.691,-21.513c3.251,-3.101 5.418,-6.202 6.501,-9.303c0.08,-4.121 0.373,-7.177 0.878,-9.169c18.031,-4.099 45.081,-8.597 76.952,-8.597c0.808,0 1.613,0.003 2.415,0.009l-3.445,10.199c-0.632,1.841 -4.334,8.431 -11.106,19.769c0.09,0.775 0.09,1.357 0,1.744c-0.542,0 -1.309,0.581 -2.302,1.744l-0.948,2.907l0.542,0c2.709,0 10.203,-6.59 22.483,-19.769c3.546,-1.655 9.923,-6.841 19.129,-15.56c44.224,3.429 74.042,14.132 74.042,14.132c0,0 8.503,-24.358 19.339,-55.027c1.651,-0.665 3.517,-1.325 5.599,-1.979c1.535,0 8.036,-2.132 19.503,-6.396c2.528,0 9.887,-2.52 22.077,-7.559c2.201,0 6.039,-0.653 11.512,-1.96c2.808,8.665 6.173,18.887 9.497,29.055c-10.671,1.955 -16.365,3.97 -17.081,6.047c-5.147,0 -13.679,3.876 -25.598,11.629c-0.542,1.454 -2.709,3.004 -6.501,4.651c-1.535,1.454 -2.528,2.81 -2.98,4.07l-1.354,4.07c-1.083,3.101 -4.379,9.109 -9.887,18.024l-0.813,2.326l1.083,0c11.648,-2.035 21.309,-6.105 28.984,-12.21c13.544,-3.489 24.786,-9.497 33.725,-18.024c2.097,-1.7 3.961,-3.264 5.589,-4.692c2.065,6.401 3.974,12.403 5.553,17.537c1.241,4.034 3.119,8.934 5.464,17.017c1.485,5.118 2.568,9.637 3.354,13.655c-10.563,10.629 -21.731,18.605 -33.505,23.93c-19.052,7.171 -29.345,12.985 -30.88,17.443c-2.348,7.462 -4.334,21.804 -5.959,43.026c3.883,26.843 3.837,46.224 -0.135,58.143c-0.408,5.868 -1.701,13.082 -3.879,21.641c8.823,-15.281 15.379,-27.353 19.668,-36.217c4.854,-5.578 8.532,-10.933 11.035,-16.065c2.124,-1.636 3.527,-3.421 4.209,-5.355c0.379,-0.892 0.265,-2.231 -0.341,-4.016c5.233,-8.702 13.993,-21.197 26.28,-37.485c5.157,-9.074 9.329,-16.66 12.514,-22.759c0.62,-0.492 1.212,-0.971 1.774,-1.439c-1.837,14.868 -5.745,27.805 -9.141,38.326l1.031,0.352c8.933,-25.015 11.866,-37.62 12.969,-43.163c1.576,-1.682 2.588,-3.128 3.037,-4.339l0,-8.479c3.034,-3.272 4.74,-5.355 5.119,-6.247l0.114,-1.785c4.247,-4.165 9.594,-6.247 16.041,-6.247c3.185,-1.636 7.622,-6.247 13.311,-13.834c2.427,-2.083 4.399,-3.272 5.916,-3.57c2.327,0 4.102,0.284 5.325,0.853c0.581,1.586 1.142,3.173 1.681,4.763c-0.021,0.061 -0.043,0.123 -0.066,0.185c-3.565,5.355 -5.461,8.33 -5.688,8.925l-0.455,1.339c-1.972,5.281 -0.493,8.256 4.437,8.925c5.157,0 7.129,1.636 5.916,4.909c-0.228,0.521 -3.223,2.454 -8.987,5.801c-0.152,0.446 -0.683,1.041 -1.593,1.785l-0.683,1.785c-0.379,1.041 0.683,3.57 3.185,7.586c-0.379,0.892 -0.417,1.339 -0.114,1.339c-5.515,5.153 -9.405,9.151 -11.673,11.994l-2.873,11.005l-0.016,0.003l-0.049,-8.275l-0.403,-0l-0.003,8.215l-0,-8.215c-1.365,0 -4.133,3.421 -8.305,10.264l-2.048,5.355c-0.531,1.413 -4.247,6.917 -11.149,16.511l-0.228,0.892l-2.503,10.264c-0.607,1.711 -5.157,7.066 -13.652,16.065c-0.91,2.454 -9.746,16.437 -26.507,41.947c-4.012,6.719 -8.853,14.078 -14.523,22.078c10.306,-2.782 25.459,-6.168 45.458,-10.159c3.477,-2.344 7.512,-4.967 12.105,-7.868c4.283,-5.621 11.464,-12.792 21.541,-21.513l0.479,-1.744l-2.679,0c-5.488,4.264 -8.455,6.396 -8.902,6.396l-1.072,0l-0.822,-0.581c2.375,-3.876 6.581,-7.752 12.617,-11.629c2.464,-3.876 4.603,-6.783 6.416,-8.722l0.595,-2.326c1.857,-6.105 3.934,-12.307 6.231,-18.606c0.288,-2.132 0.596,-3.682 0.921,-4.651c0.722,-2.52 4.369,-9.884 10.94,-22.094l1.093,-3.489c0.408,-1.391 0.95,-4.51 1.628,-9.357c-2.207,23.526 -11.233,46.097 -26.566,81.632c0,0 8.937,21.474 21.935,44.58c-6.744,1.4 -13.889,2.858 -21.437,4.374l-0.406,1.163l3.25,0l20.499,-2.189c1.393,2.418 2.828,4.843 4.298,7.253c-10.64,2.438 -16.648,3.658 -18.025,3.658l-9.21,0c-6.411,3.101 -11.648,4.651 -15.711,4.651c-2.257,0 -7.585,1.357 -15.982,4.07c-5.327,6.59 -12.054,9.884 -20.181,9.884c-2.709,4.651 -5.463,6.977 -8.262,6.977c-5.508,5.524 -14.492,20.835 -26.953,45.933c-2.713,1.892 -5.856,5.316 -9.429,10.27c5.403,-4.833 11.206,-9.602 17.409,-14.307c16.219,-11.425 34.898,-22.323 56.039,-32.693c10.962,-7.294 25.614,-13.798 43.958,-19.51c1.192,0 6.101,-2.006 14.728,-6.019c10.695,15.399 22.573,28.244 33.936,31.63c-1.021,1.802 -2.096,3.555 -3.221,5.262c-2.018,0.915 -4.247,1.874 -6.686,2.874c-9.06,9.491 -16.834,14.237 -23.321,14.237c-7.159,1.143 -17.785,6.591 -31.878,16.346c-21.923,16.522 -33.388,25.838 -34.395,27.947l-0.839,2.109c-0.336,0.527 0.056,1.055 1.174,1.582l0.671,0c9.731,-3.427 26.789,-7.822 51.173,-13.183c3.915,-0.703 7.718,-1.23 11.409,-1.582c1.624,0.149 3.631,0.426 6.021,0.833c-24.906,22.336 -46.999,39.133 -66.873,54.109c-5.673,2.018 -13.353,4.972 -23.039,8.862c-3.579,0.176 -10.179,3.34 -19.798,9.491c-18.232,8.085 -31.319,12.128 -39.261,12.128l-2.013,0c-13.311,0 -18.568,-7.91 -15.771,-23.729c1.901,-4.218 -2.573,-8.085 -13.422,-11.601c-0.202,-0.654 -0.347,-1.312 -0.435,-1.974c-1.526,1.692 -3.03,3.302 -4.513,4.828c-6.05,9.4 -12.009,17.346 -17.878,23.839c-5.056,7.462 -8.578,13.664 -10.564,18.606c-2.167,0 -9.21,9.497 -21.129,28.49c-0.542,1.55 -5.056,7.946 -13.544,19.187c-4.334,7.656 -12.054,17.734 -23.16,30.235c-6.682,10.369 -11.874,19.284 -15.576,26.746l-1.354,0.581l0.271,-0.581c2.348,-6.977 10.474,-21.901 24.379,-44.77c1.084,-2.132 1.761,-3.682 2.032,-4.651l-0.542,0c-1.354,0 -5.824,6.783 -13.409,20.35c-4.842,6.063 -11.7,15.472 -20.572,28.226c-0.791,2.583 -1.74,5.171 -2.845,7.764c0.107,4.681 -2.471,17.349 -7.734,38.002c0.823,0 0.513,1.682 -0.928,5.046c-0.73,-0.017 -1.452,-0.035 -2.164,-0.055c-0.05,-8.848 0.82,-16.754 2.608,-23.716c-0.061,-1.967 0.306,-6.152 1.099,-12.555c-2.214,3.25 -4.522,6.655 -6.923,10.216c-1.196,6.466 -2.67,15.05 -4.423,25.753c-2.993,-0.157 -5.807,-0.356 -8.459,-0.601c0.327,-3.778 0.654,-6.058 0.981,-6.84c-0.044,-0.116 -0.087,-0.232 -0.129,-0.35c-1.402,2.106 -2.829,4.253 -4.281,6.443c-0.093,0.122 -0.185,0.243 -0.276,0.362c-3.003,-0.348 -5.782,-0.766 -8.363,-1.26l1.178,-6.88c-1.29,1.835 -2.693,3.917 -4.209,6.244c-2.234,-0.513 -4.309,-1.094 -6.247,-1.748l0.852,-2.532c0.361,-0.872 0.451,-1.647 0.271,-2.326c5.67,-9.646 9.708,-16.826 12.114,-21.542c0.046,-1.243 0.084,-2.556 0.111,-3.94c-3.022,3.058 -6.014,7.288 -8.975,12.691c-0.632,0 -3.386,3.876 -8.262,11.629l-1.084,0c1.54,-3.466 3.039,-6.808 4.498,-10.026c-1.314,-0.409 -1.287,-6.461 0.082,-18.157c-1.719,-4.039 0.107,-14.319 5.479,-30.842c2.363,-38.919 3.921,-70.863 4.673,-95.83c1.504,-9.638 2.686,-15.513 3.545,-17.624l-1.934,0c-14.609,3.029 -23.418,8.169 -26.426,15.421c-0.43,0.918 -7.197,7.16 -20.303,18.725c-8.582,13.591 -18.954,28.365 -31.115,44.323c-19.044,-29.774 -40.234,-49.428 -65.191,-69.111c8.164,-2.431 14.544,-4.165 19.142,-5.204l2.302,-2.326l0.271,-0.581c1.174,-3.586 3.792,-9.206 7.855,-16.862c10.655,-34.111 13.002,-51.166 7.043,-51.166l-3.792,0c-0.813,2.423 -3.386,4.167 -7.72,5.233l-10.7,18.606c-1.625,0 -5.734,7.946 -12.325,23.839c-4.801,7.288 -8.747,14.251 -11.839,20.887c-7.183,-5.497 -14.671,-11.096 -22.499,-17.012c4.447,-7.714 9.798,-17.146 16.054,-28.296c4.695,-5.524 9.436,-13.664 14.221,-24.42c20.948,-31.882 32.46,-50.875 34.537,-56.98c2.889,-4.361 4.515,-7.074 4.876,-8.14l0.813,-2.326l1.219,-9.884c0.361,-1.163 6.05,-8.334 17.065,-21.513c0.524,-0.759 1.039,-1.493 1.544,-2.202c-5.264,1.83 -11.375,3.969 -18.333,6.417l0.948,-1.163l0.406,-1.163c-4.515,0 -8.352,1.163 -11.512,3.489l-0.406,1.163l3.25,0l-0.135,0.581c-3.702,1.163 -6.637,1.744 -8.804,1.744c-0.722,0 -0.948,-0.388 -0.677,-1.163l0.271,-0.581c9.029,-4.845 16.975,-7.559 23.837,-8.14c4.848,-2.095 10.244,-4.707 16.189,-7.838c1.634,-2.001 3.129,-3.652 4.486,-4.953l-4.963,0c-6.682,1.938 -12.596,4.458 -17.743,7.559c-8.578,4.651 -14.221,6.977 -16.93,6.977c-6.772,0 -17.697,2.326 -32.776,6.977c-5.327,-0.291 -7.856,-0.872 -7.585,-1.744c1.716,-0.775 2.934,-1.163 3.657,-1.163c2.98,0.388 5.463,0.581 7.449,0.581c4.424,-2.616 10.339,-5.136 17.743,-7.559c1.896,-2.326 7.63,-4.845 17.201,-7.559l0.948,-1.163l0.135,-0.581c-6.772,0.388 -11.693,0.581 -14.763,0.581c-6.682,-0.581 -9.977,-1.551 -9.887,-2.907c16.253,-3.876 24.876,-5.814 25.869,-5.814c1.806,-2.229 10.023,-5.717 24.65,-10.466c0.993,-0.678 3.296,-3.198 6.907,-7.559c1.354,0 3.431,-1.357 6.23,-4.07c0.451,-1.454 -0.181,-4.361 -1.896,-8.721c3.792,-2.713 10.564,-16.28 20.316,-40.7c7.314,-12.113 13.634,-24.905 18.962,-38.375c5.869,-11.047 11.106,-22.87 15.711,-35.467c4.456,-8.046 11.848,-22.514 22.177,-43.403c-0.478,0.507 -0.965,1.02 -1.46,1.54c-2.799,3.295 -6.321,8.915 -10.564,16.862c-7.585,6.493 -12.009,11.532 -13.273,15.117l0.135,1.163c-0.813,1.454 -5.418,6.493 -13.815,15.117c-0.271,0.969 -4.108,5.427 -11.512,13.373c-0.903,2.713 -6.005,7.171 -15.305,13.373c-1.625,1.454 -2.799,3.198 -3.521,5.233l-0.948,2.907c-2.889,0 -8.623,7.365 -17.201,22.095c-26.456,33.142 -41.129,54.073 -44.018,62.795c-4.515,6.88 -15.079,21.416 -31.693,43.607c-4.244,8.528 -8.036,12.792 -11.377,12.792l0.271,-0.581c5.056,-8.625 8.939,-15.796 11.648,-21.513l-1.625,0c-3.251,4.361 -7.494,10.95 -12.731,19.769c-4.605,4.361 -11.828,15.02 -21.67,31.979c-9.717,11.037 -19.798,24.803 -30.241,41.296c-0.991,-0.662 -1.985,-1.336 -2.983,-2.022c5.406,-8.724 10.567,-17.164 15.481,-25.32c1.174,-3.392 8.036,-15.602 20.587,-36.63l0.813,-2.326l-1.084,0c-4.153,3.876 -11.106,12.598 -20.858,26.164c-10.557,12.983 -18.436,23.593 -23.635,31.833c-0.345,-0.263 -0.689,-0.527 -1.033,-0.792c1.739,-2.711 3.686,-5.693 5.842,-8.946c2.167,-4.361 9.661,-16.377 22.483,-36.049c0.271,-0.872 4.605,-6.686 13.002,-17.443c1.445,-4.361 6.953,-14.245 16.524,-29.653l0.542,-1.744l-0.542,0c-0.813,0.485 -3.747,4.361 -8.804,11.629l-0.542,0l-0.813,-0.581c2.257,-4.651 7.133,-13.179 14.628,-25.583c2.348,-7.074 10.384,-20.641 24.108,-40.7c11.377,-12.307 18.871,-22.191 22.483,-29.653l2.167,-6.396c1.673,-9.577 2.837,-16.879 3.491,-21.906c0.722,-5.552 0.823,-8.328 0.302,-8.328c-2.619,-0.969 -3.025,-4.07 -1.219,-9.303l2.573,-5.814c2.077,-16.958 3.792,-27.424 5.147,-31.397c3.431,-9.012 5.192,-13.664 5.282,-13.954c0.512,-2.197 1.077,-5.394 1.697,-9.59c-10.722,21.317 -17.791,34.689 -21.205,40.115c-3.883,5.136 -9.074,13.47 -15.576,25.002l-1.219,5.233c-2.487,3.693 -4.765,7.117 -6.834,10.272c-1.234,-4.017 -2.885,-9.744 -4.388,-16.238c-3.882,-16.77 -3.734,-27.947 -3.898,-31.065c-0.265,-5.023 -0.194,-9.785 0.215,-14.529c3.259,-6.151 7.776,-16.873 13.551,-32.166c4.876,-9.691 8.849,-14.536 11.919,-14.536c2.98,-3.489 4.876,-6.396 5.688,-8.721l0.542,-1.744c1.174,-3.392 1.806,-6.88 1.896,-10.466l1.625,-2.907l0.813,-2.326c5.688,-15.02 11.648,-24.13 17.878,-27.327c0.903,0.775 1.851,1.163 2.844,1.163c0.632,0 2.98,-4.264 7.043,-12.792c3.792,-4.651 7.133,-6.977 10.023,-6.977c4.153,1.454 5.643,3.973 4.469,7.559c0.09,0.775 0.045,1.357 -0.135,1.744l-5.147,10.466c-1.677,4.909 -1.23,7.746 1.341,8.51l0.967,-4.149l0.542,-1.744c1.213,-3.55 3.469,-6.594 6.768,-9.132Zm342.061,-3.453c9.226,15.918 18.014,30.703 25.831,44.969c-1.456,3.365 -2.875,6.543 -4.257,9.534c0.542,-0.543 1.045,-1.057 1.51,-1.542c1.999,-1.204 3.688,-2.445 5.067,-3.72c2.349,4.369 4.6,8.695 6.739,12.995c-0.142,0.115 -0.285,0.231 -0.43,0.349l0.511,-0.187c0.353,0.71 0.703,1.42 1.049,2.129c-2.38,0.616 -4.163,0.987 -5.349,1.113l-0.742,0.596c-2.769,2.425 -6.111,5.057 -10.025,7.896c-0.223,0.315 -1.11,0.928 -2.658,1.839c-0.548,0.658 -1.483,1.138 -2.807,1.438l-0.242,-0.252l11.082,-10.051l0.458,-0.568l-0.168,-0.052c-0.447,-0.138 -2.924,1.757 -7.431,5.683c-1.678,0.93 -3.866,2.736 -6.564,5.419c-1.055,0.835 -2.514,1.927 -4.376,3.277c-1.103,1.561 -2.169,2.93 -3.195,4.109c-2.244,2.786 -4.518,5.442 -6.821,7.967c-1.716,-7.659 -4.177,-15.698 -7.3,-24.779c-1.22,-3.547 -4.963,-12.582 -8.605,-21.396c3.116,-2.954 4.913,-5.142 5.39,-6.562l2.167,-6.396c-2.348,-1.163 -4.47,-1.744 -6.366,-1.744c-2.423,0.351 -4.68,0.705 -6.771,1.06c-3.986,-9.971 -7.64,-19.861 -10.827,-28.901c4.648,-1.141 10.378,-2.714 17.192,-4.72c4.515,-1.163 7.088,-1.744 7.72,-1.744c0.941,0 4.347,0.747 10.219,2.241Zm211.519,71.621c0.277,-5.557 0.414,-11.323 0.399,-17.303c0.396,1.906 0.944,3.839 1.643,5.799c-0.337,3.58 -1.018,7.415 -2.042,11.504Zm-148.868,212.014c-10.493,-18.378 -18.781,-37.773 -18.781,-37.773c0,0 22.817,-70.698 22.601,-75.977c9.604,18.326 38.63,33.447 60.893,35.313c-1.716,1.712 -3.695,3.355 -5.938,4.929c-2.986,1.551 -10.326,9.303 -22.02,23.257c-17.129,14.342 -26.095,21.513 -26.898,21.513l-0.521,0.314c0.926,-0.015 1.605,-0.023 2.037,-0.023l-0.135,0.581c-0.324,0.261 -2.092,0.795 -5.305,1.601c-2.61,1.74 -4.827,3.432 -6.649,5.077c41.735,-4.452 64.32,-6.679 67.755,-6.679l2.167,0l-0.271,0.581c-0.542,1.551 -5.056,2.713 -13.544,3.489l0.135,-0.581c-2.799,1.163 -4.966,1.744 -6.501,1.744l-0.542,0l0.948,-1.163l0.135,-0.581l-2.167,0l-0.406,1.163c1.083,0 1.49,0.388 1.219,1.163c-19.413,5.039 -31.648,7.559 -36.704,7.559c-3.07,0.581 -4.786,1.357 -5.147,2.326l0.948,0.581c12.641,0 29.797,-1.551 51.467,-4.651l26.546,-3.489l2.167,0l-0.135,0.581c-0.271,0.678 -3.476,1.647 -9.616,2.907c-5.598,3.101 -17.788,5.427 -36.569,6.977c-11.029,2.698 -24.752,5.785 -41.17,9.26Zm50.336,50.631c-8.732,-4.984 -20.206,-12.628 -32.262,-24.856c-1.193,-1.21 -2.398,-2.559 -3.608,-4.023c9.001,-2.357 18.353,-5.402 28.055,-9.136c2.796,0.352 5.145,0.527 7.047,0.527l1.342,0c7.942,-4.57 16.387,-6.855 25.335,-6.855l0.671,0c3.467,0 5.313,1.758 5.537,5.273c-3.803,4.394 -5.872,7.031 -6.208,7.91c-1.566,3.252 0.503,6.943 6.208,11.073c-0.112,0.352 0,1.582 0.336,3.691c-1.901,3.955 -10.906,7.47 -27.013,10.546c-2.461,1.494 -4.027,2.9 -4.698,4.218l-0.741,1.631Zm-44.073,-40.274c-1.268,-1.966 -2.524,-3.997 -3.756,-6.061l23.494,-2.509c0.181,0.775 3.521,-0.581 3.521,-0.581c4.515,-1.163 8.668,-1.744 12.46,-1.744l2.573,0.581l-0.406,1.163c-15.275,3.747 -27.904,6.798 -37.887,9.152Zm-167.988,266.006c-0.58,1.035 -1.148,2.058 -1.705,3.069l-1.594,0c0.328,-0.687 1.427,-1.71 3.299,-3.069Zm-5.041,9.226c-1.308,2.454 -2.55,4.834 -3.734,7.141c-5.049,2.199 -10.718,4.796 -17.006,7.793c-8.501,1.582 -19.686,6.328 -33.556,14.237c-8.053,2.812 -12.695,4.218 -13.926,4.218l-0.671,0c3.132,-2.285 11.129,-5.625 23.993,-10.019l35.234,-19.51c1.212,0 4.434,-1.287 9.667,-3.861Zm-10.573,20.891c-1.558,3.22 -3.009,6.267 -4.384,9.147c-5.992,2.148 -12.227,3.969 -18.703,5.462c-17.785,3.164 -33.388,7.91 -46.811,14.237c-3.803,1.406 -6.376,2.109 -7.718,2.109l-1.342,0c5.257,-3.427 14.709,-6.943 28.355,-10.546c0.671,-1.494 5.872,-3.076 15.604,-4.746c5.593,-3.076 14.093,-6.416 25.503,-10.019c1.138,-0.572 4.303,-2.454 9.497,-5.645Zm-384.106,-190.138c-0.514,-0.456 -1.029,-0.914 -1.545,-1.374c1.531,-2.435 3.045,-4.849 4.54,-7.243c1.41,-0.008 2.759,-0.001 4.042,0.016c-2.615,3.149 -4.96,6.016 -7.037,8.601Zm-27.038,-50.026c-1.628,-2.231 -3.174,-4.545 -4.624,-6.946c0.381,-0.986 0.766,-1.992 1.156,-3.018c6.594,-2.706 13.318,-8.399 19.849,-15.751c-0.231,0.482 -0.462,0.966 -0.694,1.451c-0.566,1.648 -5.795,9.736 -15.687,24.264Zm140.267,-181.354c-1.128,-0.036 -2.219,-0.276 -3.25,-0.777c0.217,0.094 0.437,0.182 0.659,0.264c0.831,0.308 1.706,0.481 2.591,0.513Zm-122.306,223.196c-0,-0 -0.001,-0.001 -0.001,-0.001c0.001,-0 0.001,-0 0.002,-0c-0,0 -0,0.001 -0.001,0.001Zm537.663,-231.124l0.326,0.085c-0.126,0.022 -0.236,0.034 -0.326,0.034l0,-0.119Zm22.275,-55.105c0.115,0.415 0.228,0.83 0.339,1.245c-0.32,-0.081 -0.65,-0.156 -0.991,-0.223c0.189,-0.297 0.407,-0.64 0.651,-1.023Zm4.492,21.72c0.535,3.937 0.922,7.923 1.153,11.971c-2.089,3.937 -4.531,8.486 -7.208,13.382c-0.492,0.9 -0.814,1.884 -0.949,2.901c-0.759,5.715 -1.299,9.347 -1.729,10.878l-0.836,2.67c-6.605,12.304 -10.258,19.938 -11.161,22.8c-0.372,1.135 -0.767,2.856 -1.113,5.163c-2.231,6.159 -4.256,12.231 -6.075,18.212c-0.036,0.119 -0.07,0.24 -0.101,0.36l-0.103,0.402c-1.468,1.769 -3.101,4.004 -4.883,6.716c-6.502,4.393 -10.992,8.891 -13.674,13.268c-1.535,2.505 -1.593,5.519 -0.39,7.999c-2.66,2.737 -4.901,5.248 -6.727,7.53c-3.578,2.269 -6.809,4.367 -9.692,6.291c-8.737,1.752 -16.536,3.388 -23.396,4.908c0.969,-1.55 1.899,-3.069 2.79,-4.558c14.655,-22.307 23.343,-36.16 26.245,-41.441c9.368,-9.992 14.017,-16.273 14.704,-18.21c0.094,-0.266 0.175,-0.537 0.242,-0.811l2.333,-9.566c7.046,-9.854 10.687,-15.642 11.252,-17.145l1.749,-4.574c1.295,-2.066 2.701,-4.041 3.668,-5.354c0.35,-0.069 0.697,-0.161 1.039,-0.276c2.231,-0.749 4.041,-2.406 4.983,-4.563c0.952,-2.179 5.091,-6.134 11.819,-12.421c1.712,-1.599 2.635,-3.803 2.644,-6.056c0.33,-1.98 -0.062,-4.038 -1.147,-5.779c-0.263,-0.422 -0.528,-0.878 -0.777,-1.323c2.38,-1.426 4.157,-2.557 5.341,-3.375Zm-56.91,-18.721c-0.157,-1.825 -0.363,-3.645 -0.615,-5.47c3.866,-3.922 7.654,-8.18 11.362,-12.776c0.897,-1.037 1.826,-2.205 2.78,-3.499l0.002,-0.002c0.52,-0.382 1.006,-0.741 1.455,-1.077c0.555,-0.013 1.108,-0.082 1.65,-0.205c2.671,-0.607 4.646,-1.687 6.089,-2.936c1.037,-0.657 1.867,-1.276 2.518,-1.82l-0.097,0.098c3.628,-2.632 6.79,-5.099 9.49,-7.396c1.22,-0.246 2.671,-0.586 4.351,-1.026c0.362,0.002 0.736,-0.005 1.122,-0.019c1.343,2.943 2.627,5.881 3.846,8.82c-0.563,-0.035 -1.147,-0.054 -1.753,-0.054c-0.538,0 -1.076,0.052 -1.604,0.156c-2.447,0.48 -5.823,2.064 -9.738,5.423c-0.461,0.395 -0.877,0.84 -1.241,1.325c-3.851,5.135 -6.791,8.767 -9.155,10.581c-7.687,0.513 -14.123,3.41 -19.363,8.549c-0.414,0.406 -0.782,0.852 -1.099,1.328Zm-5.458,-0.771c0.322,3.207 0.439,5.996 0.459,8.469c-1.057,1.428 -1.634,3.164 -1.634,4.957l0,6.318c-0.236,0.252 -0.525,0.527 -0.832,0.852c-1.391,1.476 -3.292,3.147 -5.681,5.041c-0.916,0.726 -1.669,1.637 -2.21,2.673c-3.094,5.924 -7.13,13.267 -12.107,22.031c-12.35,16.387 -21.155,28.985 -26.442,37.776c-1.15,1.913 -1.481,4.198 -0.936,6.344c-0.25,0.242 -0.553,0.472 -0.877,0.721c-1.018,0.784 -1.841,1.793 -2.404,2.948c-1.906,3.909 -4.603,7.948 -8.052,12.144c0.121,-10.155 -0.774,-22.245 -2.767,-36.269c1.487,-19.126 3.198,-32.306 5.307,-39.515c0.448,-0.398 1.741,-1.522 2.856,-2.245c4.789,-3.108 12.552,-6.613 23.234,-10.634c0.168,-0.063 0.334,-0.132 0.498,-0.206c11.011,-4.979 21.552,-12.1 31.588,-21.405Zm-198.228,-45.344c1.4,0.046 2.789,0.1 4.166,0.161c-2.267,2.061 -4.256,3.785 -5.976,5.162l1.437,-4.255c0.121,-0.357 0.246,-0.713 0.373,-1.069Zm-110.984,14.652c1.972,-0.663 6.836,-2.229 14.085,-4.106c-0.178,1.541 -0.31,3.305 -0.383,5.294c-0.818,1.679 -2.186,3.318 -3.965,5.016c-0.253,0.242 -0.491,0.499 -0.712,0.771c-3.198,3.93 -5.947,7.299 -8.259,10.096c-0.091,-1.104 -0.224,-2.046 -0.385,-2.826l0.034,0.116c-0.722,-4.357 -0.849,-9.143 -0.415,-14.36Zm-205.758,201.165c-0.027,-0.657 0.033,-1.371 0.214,-2.146c-0.167,0.716 -0.236,1.437 -0.214,2.146Zm736.358,223.059l0.096,0.014c0.994,-3.935 4.592,-17.233 10.442,-41.854c12.28,-51.683 17.551,-81.32 18.818,-88.441c0.22,-1.239 1.018,-5.726 2.449,-15.541c3.509,-24.074 8.969,-66.087 9.584,-109.135c0.254,-17.809 -0.363,-27.161 -0.687,-32.878c-3.697,-65.189 -17.48,-156.246 -31.197,-227.775c-3.724,-19.422 -6.311,-31.467 -6.312,-31.468c-0.103,-0.248 -0.345,-0.421 -0.448,-0.669c-0.024,0.138 -0.206,0.215 -0.229,0.353c-0.025,0.147 0.062,0.293 0.093,0.439c0.135,0.644 0.755,3.603 1.65,8.052c13.756,68.409 20.837,124.651 22.21,135.554c8.99,71.404 9.143,115.274 9.46,128.362c1.241,51.153 -5.823,104.816 -10.702,136.882c-1.873,12.311 -5.345,38.51 -10.995,68.612c-7.646,40.732 -15.372,69.381 -15.215,69.515c0.195,0.167 0.419,0.299 0.614,0.466l0.37,-0.488Zm-815.251,-135.519l1.084,0l-0.406,1.163l0.542,0l2.032,-1.163l-0.135,0.581c-3.612,10.66 -8.939,21.513 -15.982,32.56l-0.542,0c-0.903,0 -0.858,-1.744 0.135,-5.233c2.257,-3.489 3.612,-5.814 4.063,-6.977l1.896,-5.814c0.722,-2.132 3.16,-7.171 7.314,-15.117Zm-46.31,135.519l0.37,0.488c0.195,-0.167 0.419,-0.299 0.614,-0.466c0.057,-0.049 -0.262,-1.275 -0.463,-2.082c-8.876,-35.74 -16.767,-72.7 -24.713,-129.045c-2.17,-15.39 -12.933,-79.201 -11.797,-141.066c0.338,-18.437 0.68,-36.153 3.039,-67.566c7.573,-100.846 30.331,-206.767 30.342,-207.218c0.006,-0.268 -0.143,-0.524 -0.137,-0.792c-0.078,0.117 -0.275,0.113 -0.353,0.229c-0.002,0.003 -4.194,19.445 -9.844,50.234c-1.31,7.138 -23.035,123.583 -27.838,210.869c-0.26,4.733 -4.131,55.522 10.048,147.708c0.534,3.472 2.639,17.158 8.14,43.154c11.667,55.134 22.089,93.949 22.497,95.567l0.096,-0.014Zm255.913,-229.246c3.091,-4.327 5.435,-7.706 7.03,-10.138c0.398,-0.607 0.715,-1.262 0.943,-1.951c2.78,-8.39 17.169,-28.334 42.62,-60.217c0.254,-0.318 0.484,-0.654 0.688,-1.005c5.3,-9.102 11.312,-16.762 12.596,-18.369c2.476,-0.812 4.487,-2.761 5.327,-5.335l0.906,-2.778c0.205,-0.543 0.499,-1.012 0.881,-1.425c6.951,-4.674 11.676,-8.509 14.281,-11.372c1.23,-1.351 2.124,-2.63 2.758,-3.786c1.449,-1.561 2.758,-2.989 3.929,-4.282c-1.814,3.867 -3.701,7.646 -5.661,11.335c-0.146,0.274 -0.276,0.556 -0.39,0.845c-5.155,13.034 -11.269,25.411 -18.346,37.132c-0.235,0.388 -0.437,0.795 -0.605,1.217c-5.69,14.249 -10.319,24.705 -13.922,31.355c-1.492,2.753 -3.505,5.534 -3.704,5.807c-2.957,2.251 -4.073,6.203 -2.705,9.68c0.237,0.603 0.461,1.256 0.66,1.878c-1.411,0.496 -2.68,1.368 -3.657,2.547c-1.943,2.346 -3.885,4.485 -4.855,5.534c-9.92,3.271 -16.85,5.994 -20.82,8.091c-1.297,0.685 -2.38,1.37 -3.274,2.025c-3.079,0.611 -7.975,1.668 -14.679,3.213Zm300.626,72.186l1.208,-1.861c2.348,-6.977 2.438,-10.466 0.271,-10.466c-1.312,-0.49 -2.389,-0.825 -3.232,-1.005l-0.399,2.062c1.179,4.191 1.897,7.948 2.153,11.27Zm-235.449,111.904c1.22,-1.723 2.449,-3.496 3.685,-5.318c10.098,-11.658 24.009,-29.098 41.733,-52.321c2.793,-1.56 4.78,-3.763 5.962,-6.609c0,-1.469 -0.322,-2.203 -0.967,-2.203l-0.644,0c-4.941,0 -12.192,2.937 -21.753,8.812c-2.471,0.734 -4.351,1.102 -5.64,1.102c-1.611,-0.734 -2.363,-1.469 -2.256,-2.203l0.161,-0.551c1.289,-3.029 4.834,-5.783 10.635,-8.261c0.752,-0.734 1.182,-1.285 1.289,-1.652l-3.867,0c-5.586,0 -14.072,3.304 -25.459,9.913c-2.041,1.101 -3.76,1.652 -5.156,1.652c0.967,-2.203 10.151,-7.71 27.554,-16.522c0.752,-0.643 1.289,-1.377 1.611,-2.203l-1.934,0l-22.559,3.305c-1.833,0.701 -3.59,1.362 -5.272,1.984c-11.589,39.181 -16.534,58.771 -14.834,58.771c2.167,0 4.424,2.907 6.772,8.721c6.466,1.469 10.112,2.664 10.938,3.583Zm12.439,-55.099c0.883,2.198 2.783,4.459 6.482,6.145c1.085,0.494 2.263,0.75 3.456,0.75c1.451,0 3.443,-0.256 5.955,-0.883c-12.692,16.374 -23.006,29.146 -30.946,38.313c-0.161,0.186 -0.315,0.38 -0.459,0.58c-0.618,-0.175 -1.278,-0.354 -1.981,-0.537c-1.366,-2.629 -2.767,-4.605 -4.085,-6.004c1.188,-5.955 4.075,-16.848 8.622,-32.688c2.112,-0.272 4.586,-1.042 7.354,-2.535c0.076,-0.041 0.151,-0.083 0.226,-0.126c1.893,-1.099 3.684,-2.106 5.376,-3.015Zm57.57,221.064l-0.292,-0l-0.001,4.958l0.326,-0.687l-0.032,-4.271Zm41.324,-108.959l0.313,-0.411c3.16,-3.198 9.165,-12.307 18.013,-27.327c6.682,-7.074 10.339,-11.532 10.971,-13.373l0.271,-0.581c-0.813,-1.938 -1.174,-3.101 -1.083,-3.489c5.418,-9.109 16.704,-22.094 33.86,-38.956c2.882,-4.144 5.563,-7.975 8.042,-11.494c-9.49,6.393 -19.367,11.437 -29.631,15.133c-22.666,6.793 -34.912,12.3 -36.738,16.522c-2.793,7.068 -5.156,20.653 -7.09,40.755c1.551,8.537 2.575,16.277 3.072,23.22Zm5.512,-22.544l-0.179,-1.017c1.717,-17.518 3.666,-29.674 6.087,-36.427c0.622,-0.442 2.218,-1.545 3.616,-2.267c5.008,-2.587 12.69,-5.468 23.024,-8.702c-7.78,8.635 -13.347,15.817 -16.737,21.517c-0.438,0.736 -0.759,1.535 -0.954,2.368c-0.136,0.585 -0.271,2.012 0.136,4.149c-1.582,1.961 -4.669,5.687 -8.236,9.463c-0.429,0.454 -0.805,0.954 -1.122,1.492c-2.047,3.475 -3.924,6.617 -5.634,9.424Zm59.374,-416.676c-1.112,1.945 -2.277,3.971 -3.495,6.077c-2.528,3.586 -10.79,10.369 -24.786,20.35c-0.632,0.678 -1.083,1.454 -1.354,2.326l-2.844,8.14l16.253,9.884c3.452,2.084 5.837,4.874 7.155,8.372c7.414,-11.335 16.498,-25.852 27.252,-43.549c2.348,-1.647 4.018,-3.973 5.011,-6.977c0,-1.551 -0.271,-2.326 -0.813,-2.326l-0.542,0c-4.153,0 -10.248,3.101 -18.284,9.303c-2.077,0.775 -3.657,1.163 -4.74,1.163c-1.354,-0.775 -1.986,-1.551 -1.896,-2.326l0.135,-0.581c1.084,-3.198 4.063,-6.105 8.939,-8.722c0.632,-0.775 0.993,-1.357 1.083,-1.744l-3.251,0c-1.133,0 -2.408,0.203 -3.824,0.609Zm2.963,20.509c-4.647,7.541 -8.922,14.373 -12.826,20.497c-0.648,-0.471 -1.327,-0.921 -2.037,-1.351l-10.488,-6.378l0.382,-1.092c6.729,-4.837 12.135,-8.997 16.253,-12.44c0.139,0.085 0.281,0.169 0.426,0.252c1.26,0.721 2.688,1.101 4.14,1.101c1.072,0 2.461,-0.168 4.15,-0.588Zm-72.532,279.834l-1.611,3.855c-1.289,2.937 -5.21,8.628 -11.763,17.073l-0.967,2.203l1.289,0c13.857,-1.928 25.352,-5.783 34.482,-11.566c16.113,-3.304 29.487,-8.996 40.122,-17.073c10.098,-6.517 15.63,-10.923 16.597,-13.218l2.578,-6.058c-2.793,-1.101 -5.317,-1.652 -7.573,-1.652c-19.873,2.295 -30.347,4.681 -31.421,7.16c-6.123,0 -16.274,3.672 -30.454,11.015c-0.645,1.377 -3.223,2.846 -7.734,4.406c-1.826,1.377 -3.008,2.662 -3.545,3.855Zm4.199,10.595c0.823,-1.366 1.428,-2.498 1.821,-3.391l0.058,-0.135l1.384,-3.311c0.074,-0.07 0.183,-0.172 0.309,-0.287c3.859,-1.501 6.585,-3.248 8.405,-4.881c11.9,-6.11 20.33,-9.532 25.558,-9.532c2.266,0 4.384,-0.918 5.921,-2.469c1.538,-0.379 7.474,-1.8 15.263,-3.131c-1.784,1.292 -3.778,2.675 -5.883,4.033c-0.178,0.115 -0.352,0.237 -0.521,0.366c-9.733,7.393 -22.008,12.521 -36.756,15.546c-0.989,0.203 -1.932,0.583 -2.785,1.123c-3.8,2.407 -8.06,4.424 -12.773,6.07Zm-38.756,-224.041l-1.354,4.07c-0.09,0.388 0.045,0.581 0.406,0.581c-5.508,8.818 -10.745,18.897 -15.711,30.235c-0.632,0 -1.67,1.938 -3.115,5.814l-0.406,2.907c-1.264,1.551 -2.573,3.876 -3.928,6.977l0.813,0.581l0.542,0c6.321,0 11.874,-3.101 16.659,-9.303c3.341,-2.713 7.269,-7.365 11.783,-13.954c8.126,-5.136 16.298,-14.245 24.515,-27.327c10.293,-9.206 16.117,-15.796 17.472,-19.769l2.032,-5.814c0.181,-0.581 -0.271,-1.357 -1.354,-2.326l-4.876,0c-3.792,0 -12.551,4.458 -26.275,13.373c-4.695,0 -9.887,4.651 -15.576,13.954l-1.625,0Zm-3.655,26.692c3.153,-6.363 6.41,-12.239 9.775,-17.626c0.567,-0.907 0.944,-1.898 1.13,-2.917c0.57,-0.521 1.072,-1.126 1.485,-1.802c2.326,-3.804 4.488,-6.704 6.611,-8.606c0.729,-0.653 1.195,-1.362 1.855,-1.362c1.611,0 3.188,-0.467 4.54,-1.345c4.861,-3.157 9.057,-5.733 12.597,-7.715c-2.484,2.528 -5.741,5.52 -9.689,9.051c-0.581,0.52 -1.087,1.119 -1.502,1.779c-7.392,11.77 -14.599,20.095 -21.91,24.715c-0.958,0.605 -1.782,1.4 -2.422,2.334c-0.85,1.241 -1.673,2.406 -2.469,3.493Zm-0.858,442.263c-0.825,2.633 -1.921,5.794 -3.288,9.48c1.434,-3.383 2.79,-6.474 4.068,-9.274l-0.781,-0.207Zm44.066,-104.448c3.141,-3.737 5.082,-6.773 5.825,-9.106l0.406,-1.163l-0.542,0c-1.821,1.866 -3.707,3.915 -5.656,6.148c0.016,1.414 0.005,2.788 -0.033,4.121Zm-4.97,-301.88c-2.02,1.007 -4.338,2.032 -6.954,3.074l-32.235,26.164c-0.722,0 -5.282,3.876 -13.679,11.629c-4.605,1.163 -12.099,4.651 -22.483,10.466c-2.257,0 -6.682,2.326 -13.273,6.977c-1.283,0 -5.722,0.948 -13.315,2.844c0.788,0.72 1.613,1.08 2.474,1.08l1.625,0c1.264,0 5.824,-1.744 13.679,-5.233l2.167,0c2.799,0 2.348,7.752 -1.354,23.257c-0.722,2.035 -4.515,6.299 -11.377,12.792c-0.632,0.678 -1.174,1.647 -1.625,2.907l-0.406,1.163c-0.451,1.357 1.219,5.039 5.011,11.047c0.451,1.26 0.632,2.81 0.542,4.651c-0.451,1.357 -3.702,6.202 -9.752,14.536l-0.271,0.581c-0.451,1.454 -1.716,7.849 -3.792,19.187l-2.302,6.977l-1.194,4.01c3.137,-0.824 5.569,-1.236 7.296,-1.236c2.471,-1.928 9.238,-5.232 20.303,-9.913c1.934,-1.469 8.272,-3.672 19.014,-6.609l0.967,-1.101l0.322,-0.551l-0.645,0c-18.047,2.937 -28.359,4.406 -30.938,4.406l-0.161,-1.102c5.693,-3.488 17.993,-7.16 36.899,-11.015c5.149,-2.278 10.077,-4.263 14.782,-5.957c6.957,-18.154 15.625,-37.197 26.006,-57.13c0.903,-2.52 5.553,-12.404 13.95,-29.653l1.49,-4.651l-1.625,0c-3.251,3.295 -17.472,29.847 -42.664,79.656l-1.354,0.581c-0.722,0 -0.948,-0.388 -0.677,-1.163c5.327,-13.567 12.099,-28.684 20.316,-45.352c1.535,-5.717 2.664,-9.594 3.386,-11.629c8.488,-16.571 13.093,-25.874 13.815,-27.909l-1.625,0c-2.799,4.264 -7.63,13.179 -14.492,26.746l-0.542,0l-0.948,-0.581c4.876,-14.245 13.138,-31.688 24.786,-52.329c0.282,-0.539 0.566,-1.079 0.854,-1.62Zm-50.829,119.99c-2.343,0.942 -4.735,1.948 -7.175,3.018c-17.192,3.542 -29.145,7.108 -35.948,10.403c0.185,-0.907 0.34,-1.627 0.466,-2.161c6.443,-8.938 9.692,-14.302 10.191,-15.799c0.239,-0.719 0.379,-1.466 0.416,-2.223c0.153,-3.121 -0.255,-5.736 -1.02,-7.871c-0.205,-0.573 -0.473,-1.122 -0.798,-1.637c-1.278,-2.026 -2.463,-4.261 -3.185,-5.68c7.669,-7.393 11.544,-12.612 12.389,-14.994c0.099,-0.279 0.183,-0.564 0.252,-0.852c2.469,-10.342 3.509,-17.602 3.377,-21.738c-0.017,-0.524 -0.05,-1.027 -0.1,-1.509c0.233,-0.104 0.462,-0.218 0.685,-0.343c9.47,-5.303 16.252,-8.597 20.452,-9.657c1.349,-0.341 2.59,-1.013 3.612,-1.957c5.538,-5.112 10.573,-9.349 11.642,-10.244c0.58,-0.279 1.13,-0.627 1.636,-1.038l10.264,-8.331c-4.116,8.747 -7.397,16.706 -9.85,23.873c-1.012,2.955 -0.273,6.156 1.769,8.361c-0.4,1.411 -0.838,2.997 -1.314,4.76c-8.169,16.612 -14.913,31.698 -20.237,45.257c-0.039,0.098 -0.075,0.197 -0.11,0.297l-0.566,3.757l0.304,1.921l0.893,2.136l1.532,1.941l0.423,0.309Zm-170.802,-66.913l-0.813,2.326l0.542,0c0.722,0 1.219,-0.388 1.49,-1.163l0.406,-1.163l-1.625,0Zm70.57,5.814c-0.181,0.775 0.045,1.163 0.677,1.163l0.542,0l0.406,-1.163l-1.625,0Zm94.034,340.655c4.666,-10.235 8.908,-19.173 12.727,-26.812c-0.045,-2.764 -0.111,-5.69 -0.198,-8.778c1.182,-12.667 2.148,-20.928 2.9,-24.784l-1.289,0l-0.967,2.203c0.43,2.111 -2.417,14.411 -8.54,36.9c-1.404,3.17 -2.948,10.261 -4.633,21.27Zm158.965,-331.448c-0.034,-2.113 -0.076,-4.31 -0.128,-6.591c0.993,-13.373 1.806,-22.094 2.438,-26.165l-1.084,0l-0.813,2.326c0.329,2.028 -1.623,12.964 -5.856,32.808c1.608,-0.695 3.422,-1.487 5.442,-2.379Zm57.062,-13.558c1.118,-0.104 2.145,-0.155 3.081,-0.155l0.275,-0.087l10.453,-18.223l0.683,-1.785l-0.455,0c-1.214,0 -5.84,6.694 -13.879,20.081l-0.157,0.169Zm35.18,39.382l-0.948,1.163l-0.135,0.581l0.542,0c0.722,0 1.219,-0.388 1.49,-1.163l-0.948,-0.581Zm-66.518,-36.943c-0.031,-4.453 -0.251,-7.401 -0.66,-8.845l-0.948,1.163c-1.141,4.696 -2.055,9.105 -2.74,13.228l4.094,0l0.211,-0.07c0.02,-1.054 0.034,-2.053 0.041,-2.998c-0.509,0.461 -1.083,0.848 -1.723,1.162c0.076,-0.297 -0.038,-0.446 -0.341,-0.446c0.701,-0.896 1.389,-1.961 2.066,-3.193Zm-37.419,16.124c0.651,-5.646 2.249,-13.387 4.795,-23.224c1.986,-41.088 3.296,-74.811 3.928,-101.169c1.264,-10.175 2.257,-16.377 2.98,-18.606l-1.625,0c-12.28,3.198 -19.684,8.625 -22.212,16.28c-0.361,0.969 -6.05,7.559 -17.065,19.769c-9.842,19.575 -22.483,41.476 -37.923,65.702c-7.404,16.668 -12.596,25.002 -15.576,25.002c-0.813,0 -0.813,-1.551 0,-4.651c1.986,-2.616 3.251,-4.748 3.792,-6.396l1.354,-4.07l-1.083,0c-5.056,5.33 -10.564,14.051 -16.524,26.165c-4.334,6.686 -9.345,15.602 -15.034,26.746c-4.717,7.223 -10.157,16.844 -16.32,28.863c2.084,-0.689 4.121,-1.317 6.113,-1.884c1.182,-2.845 7.09,-5.599 17.725,-8.261c1.826,0 9.561,-2.019 23.203,-6.058c3.008,0 11.763,-2.387 26.265,-7.16c2.864,0 8.056,-0.74 15.575,-2.22c-3.162,-1.289 -4.549,-3.593 -4.162,-6.913c-0.632,0 -0.677,-0.969 -0.135,-2.907l0.406,-1.163c1.806,-1.26 8.849,-2.81 21.129,-4.651c2.348,-3.101 8.126,-5.814 17.336,-8.14c0.286,0 1.306,-0.35 3.06,-1.05Zm-39.463,9.912c-0.75,-0.219 -1.535,-0.333 -2.333,-0.333c0.841,0 1.617,0.116 2.333,0.333Zm-44.858,-17.995l1.623,0.17c2.447,-0 6.056,-1.039 9.593,-5.145c3.249,-3.772 7.791,-11.799 13.345,-24.237c15.197,-23.873 27.694,-45.511 37.5,-64.906c8.592,-9.534 13.872,-15.593 15.859,-18.158c1.32,-1.704 1.885,-2.935 2.076,-3.448c0.037,-0.098 0.072,-0.198 0.104,-0.297c0.875,-2.649 2.696,-4.738 5.34,-6.448c-0.215,1.592 -0.437,3.303 -0.665,5.133c-0.034,0.275 -0.055,0.551 -0.061,0.828c-0.626,26.123 -1.92,59.495 -3.879,100.116c-1.818,7.089 -3.146,13.118 -3.997,18.084c-7.807,2.2 -13.318,4.945 -16.772,7.745c-7.726,1.208 -13.24,2.315 -16.549,3.274c-2.714,0.787 -4.497,1.691 -5.487,2.382c-1.437,1.002 -2.521,2.432 -3.099,4.086l-0.406,1.163c-0.058,0.167 -0.111,0.335 -0.159,0.506c-0.662,2.369 -0.716,4.297 -0.526,5.772c-1.08,0.118 -1.988,0.178 -2.725,0.178c-0.885,0 -1.765,0.141 -2.605,0.418c-13.105,4.313 -20.941,6.742 -23.659,6.742c-0.801,0 -1.598,0.115 -2.366,0.343c-11.264,3.335 -20.661,5.595 -21.197,5.723c-0.561,0.024 -1.118,0.105 -1.664,0.242c-0.946,0.237 -1.859,0.476 -2.739,0.718c1.468,-2.466 2.875,-4.731 4.223,-6.795c0.162,-0.248 0.311,-0.504 0.445,-0.768c5.529,-10.832 10.392,-19.503 14.604,-26.002c0.178,-0.275 0.34,-0.56 0.485,-0.854c1.142,-2.321 2.261,-4.508 3.36,-6.562Zm182.977,33.554c-2.528,3.198 -3.928,5.136 -4.199,5.814l-0.135,0.581l1.083,0c3.07,-3.876 4.695,-6.008 4.876,-6.396l-1.625,0Zm40.741,-59.33c3.528,-2.416 7.159,-4.637 10.891,-6.662l4.672,-4.652l0.364,-1.163c-2.054,0 -9.239,4.264 -21.554,12.792c-1.346,0.46 -2.695,0.981 -4.047,1.563c3.116,-0.612 6.341,-1.238 9.674,-1.878Zm-418.866,200.891c2.52,-4.875 5.509,-9.929 8.958,-15.166c0.289,-0.439 0.537,-0.905 0.738,-1.391c4.122,-9.939 8.435,-18.231 9.525,-20.289c0.934,-0.678 1.732,-1.554 2.327,-2.588l9.088,-15.804l0.292,-0.116c-0.023,0.173 -0.048,0.345 -0.074,0.517c-1.225,8.106 -4.274,19.887 -9.087,35.359c-3.498,6.629 -5.932,11.811 -7.349,15.523c-3.863,0.952 -8.669,2.27 -14.418,3.956Zm461.869,-157.852c-1.586,0.668 -2.627,1.092 -2.952,1.224c-0.438,0.063 -0.872,0.161 -1.296,0.293c-18.992,5.914 -34.187,12.693 -45.637,20.224c-13.907,6.839 -26.766,13.906 -38.578,21.198c4.042,-7.177 7.379,-12.383 10.052,-15.595c2.826,-1.001 5.742,-3.041 8.466,-6.484c7.896,-0.972 14.697,-4.528 20.374,-10.727c5.799,-1.857 9.503,-2.951 11.2,-2.951c4.606,0 10.497,-1.433 17.57,-4.652l7.351,0.001c1.179,-0 5.664,-0.834 13.45,-2.53Zm-4.723,-174.777c-1.393,-1.011 -3.096,-1.589 -4.895,-1.589c2.005,0 3.631,0.499 4.911,1.451l-0.016,0.138Zm1.672,1.613c-0.371,-0.475 -0.792,-0.906 -1.252,-1.287l0.093,-0.055c0.431,0.389 0.816,0.838 1.158,1.342Zm-125.607,-61.848c0.79,-1.614 1.362,-2.935 1.72,-3.959l0.04,-0.118l1.228,-3.69l0.17,-0.204c3.406,-1.691 5.75,-3.571 7.277,-5.324c9.283,-5.986 15.737,-9.501 19.851,-9.501c2.518,0 4.84,-1.132 6.393,-2.987c1.35,-0.4 5.699,-1.649 11.398,-2.875c-1.829,1.717 -4.024,3.682 -6.379,5.591c-0.174,0.141 -0.342,0.289 -0.505,0.444c-7.957,7.591 -17.995,12.879 -30.051,15.984c-1.134,0.292 -2.193,0.82 -3.109,1.548c-2.442,1.943 -5.121,3.636 -8.033,5.09Z" style="fill:#d91a4e;"/><path d="M575.416,292.448c-10.722,21.317 -17.791,34.689 -21.205,40.115c-3.883,5.136 -9.074,13.47 -15.576,25.002l-1.219,5.233c-13.183,19.575 -20.497,31.591 -21.941,36.049l-4.199,12.21c-1.625,4.845 -6.817,13.761 -15.576,26.746c-0.903,2.616 -6.456,13.664 -16.659,33.142l-24.785,39.537c-3.883,8.915 -6.637,13.373 -8.262,13.373l-0.948,-0.581c1.354,-3.876 6.501,-13.761 15.44,-29.653c0.993,-2.713 7.946,-15.117 20.858,-37.212c5.327,-10.466 9.165,-19.187 11.512,-26.165l0.813,-2.326l-0.542,0c-1.083,0 -4.244,5.039 -9.481,15.117c-8.939,10.272 -24.47,38.568 -46.591,84.889c-0.632,1.841 -7.088,11.726 -19.368,29.653c-0.813,2.423 -6.546,12.501 -17.201,30.235c-0.993,2.907 -1.896,5.039 -2.709,6.396l-1.625,0l0.813,-4.07c0.271,-0.969 1.806,-3.876 4.605,-8.722l1.761,-6.977c4.154,-6.59 9.345,-18.218 15.576,-34.886c3.16,-4.361 8.578,-14.439 16.253,-30.235c10.113,-14.923 20.497,-33.336 31.151,-55.236l0.677,-1.744l-1.083,0c-5.959,5.717 -10.474,13.082 -13.544,22.094c-12.099,19.866 -18.781,30.525 -20.045,31.979c-1.174,0.388 -2.077,1.551 -2.709,3.489l-1.49,4.07c-6.862,14.73 -10.971,22.094 -12.325,22.094l-0.677,-2.907c2.438,-6.88 8.488,-19.866 18.149,-38.956c1.806,-5.33 12.325,-24.129 31.557,-56.399c1.084,-2.035 1.941,-3.973 2.573,-5.814l0.135,-0.581l-1.625,0c-17.336,28.975 -27.72,45.255 -31.151,48.84c0.09,-0.388 -0.045,-0.581 -0.406,-0.581c0.451,-1.163 5.643,-11.629 15.576,-31.397c1.896,-5.621 7.088,-14.536 15.576,-26.746c1.354,-1.163 4.831,-9.303 10.429,-24.42c5.869,-8.818 9.481,-15.214 10.835,-19.187l0.542,-1.744c-8.849,0 -22.077,4.458 -39.684,13.373c-0.632,1.841 -3.747,5.136 -9.345,9.884c-1.716,5.039 -3.567,8.915 -5.553,11.629c-0.361,1.163 -0.542,2.713 -0.542,4.651c-4.334,6.396 -6.637,10.078 -6.907,11.047l-2.573,7.559c-0.632,1.744 -3.16,5.427 -7.585,11.047l-1.219,5.233c-3.612,6.396 -5.643,10.272 -6.095,11.629c-0.271,0.775 -0.813,3.489 -1.625,8.14c-2.709,2.52 -6.095,8.722 -10.158,18.606l-43.747,76.168l-1.083,0l0.406,-1.163l-1.083,0c0,0.194 -0.451,0.969 -1.354,2.326l-1.083,0c13.092,-27.715 20.632,-44.577 22.618,-50.585l0.271,-0.581l-1.084,0c-5.869,9.691 -10.745,19.187 -14.627,28.49c-0.271,0.097 -2.528,4.167 -6.772,12.21c-0.09,0.291 -0.451,1.841 -1.083,4.651c-1.806,5.33 -5.553,12.695 -11.241,22.095c-1.806,5.33 -9.345,17.346 -22.619,36.049c-0.181,0.581 -3.25,7.559 -9.21,20.932l-1.083,0l0.406,-1.163c0.993,-2.907 1.896,-5.039 2.709,-6.396c3.16,-11.532 4.831,-18.121 5.011,-19.769c0.451,-1.26 9.842,-19.284 28.171,-54.073c3.341,-6.687 6.23,-13.664 8.668,-20.932l1.354,-4.07l-1.625,0c-2.799,5.524 -5.508,9.787 -8.126,12.792c-8.307,13.857 -14.853,26.261 -19.639,37.212l-2.709,1.744c-1.083,0 -1.038,-1.744 0.135,-5.233c7.494,-17.831 15.214,-34.692 23.16,-50.585c3.16,-9.303 7.043,-15.505 11.648,-18.606c0.632,-0.678 1.129,-1.647 1.49,-2.907c0.451,-1.26 1.129,-4.748 2.032,-10.466l-1.625,0c-2.257,3.489 -3.792,6.396 -4.605,8.721l-2.032,5.814c-1.716,0 -5.463,5.814 -11.241,17.443c-0.542,1.55 -1.174,2.326 -1.896,2.326l-0.948,-0.581l1.896,-4.07l0.406,-1.163c0.451,-1.357 0.722,-3.682 0.813,-6.977l27.765,-56.399l4.876,-14.536c0.903,-2.423 4.831,-8.625 11.783,-18.606c1.625,-4.748 4.605,-9.787 8.939,-15.117l0.406,-1.163c0.271,-0.775 -0.135,-1.163 -1.219,-1.163c-1.445,0.775 -2.664,1.163 -3.657,1.163c-0.181,-0.678 -0.09,-1.454 0.271,-2.326l-2.709,0c-2.438,1.454 -4.424,2.423 -5.959,2.907c-2.889,-0.388 -5.327,-0.581 -7.314,-0.581c-5.147,2.52 -10.79,4.264 -16.93,5.233l-0.135,-1.163l0.135,-0.581c2.528,0 6.321,-2.132 11.377,-6.396l0.406,-1.163l-6.366,-0.581l-0.542,0c-1.986,0 -4.786,0.388 -8.397,1.163l-0.271,-1.163c3.883,-1.066 13.634,-5.33 29.255,-12.792l0.406,-1.163c-7.675,0 -17.517,1.938 -29.526,5.814c-4.785,-0.388 -8.894,-0.581 -12.325,-0.581l-0.542,0c-0.451,0 -2.573,0.388 -6.366,1.163l0.406,-1.163c22.483,-8.14 37.968,-12.21 46.456,-12.21l3.251,0c2.167,0 8.262,-3.682 18.284,-11.047l-0.542,-2.907c11.648,-6.59 18.239,-12.21 19.774,-16.862l6.095,-18.024c2.438,-7.074 7.675,-15.02 15.711,-23.839l0.813,-2.326l0.406,-7.559l0.271,-1.163c0.451,-1.26 4.334,-5.717 11.648,-13.373c1.896,-4.555 8.758,-17.346 20.587,-38.375l2.709,-8.14c0.993,-2.713 4.244,-7.946 9.752,-15.699l3.657,-11.047c5.147,-8.14 11.783,-12.21 19.91,-12.21c0.722,3.198 1.806,5.33 3.251,6.396l2.709,0c7.946,-9.981 13.544,-15.796 16.795,-17.443l1.625,0c1.896,0 2.889,0.775 2.98,2.326l-0.271,0.581c-1.625,4.942 -4.605,11.144 -8.939,18.606l-1.083,2.907c-0.181,0.678 0.226,4.361 1.219,11.047c-5.688,6.105 -8.894,10.175 -9.616,12.21c-0.271,0.775 -0.181,3.682 0.271,8.721c-0.271,0.872 -3.612,4.361 -10.023,10.466l-15.711,27.327c-1.986,3.779 -4.153,9.012 -6.501,15.699l-4.876,14.536c-0.451,1.26 -5.147,9.787 -14.086,25.583l3.251,0c18.871,-3.973 31.241,-6.88 37.11,-8.721c1.896,-0.969 5.327,-6.783 10.293,-17.443c2.618,0 8.758,-12.792 18.42,-38.375c4.876,-9.691 8.849,-14.536 11.919,-14.536c2.98,-3.489 4.876,-6.396 5.688,-8.721l0.542,-1.744c1.174,-3.392 1.806,-6.88 1.896,-10.466l1.625,-2.907l0.813,-2.326c5.688,-15.02 11.648,-24.13 17.878,-27.327c0.903,0.775 1.851,1.163 2.844,1.163c0.632,0 2.98,-4.264 7.043,-12.792c3.792,-4.651 7.133,-6.977 10.023,-6.977c4.153,1.454 5.643,3.973 4.469,7.559c0.09,0.775 0.045,1.357 -0.135,1.744l-5.147,10.466c-1.677,4.909 -1.23,7.746 1.341,8.51l0.967,-4.149l0.542,-1.744c1.986,-5.814 6.772,-10.272 14.357,-13.373c10.745,-18.218 18.51,-27.327 23.296,-27.327c3.431,1.551 2.302,12.404 -3.386,32.56c-0.632,6.977 1.083,10.466 5.147,10.466c1.181,1.394 1.84,2.705 1.979,3.933c6.553,-1.133 15.827,-3.607 27.823,-7.422c5.869,-1.55 9.752,-2.326 11.648,-2.326l12.46,0c11.558,0 19.865,-1.551 24.921,-4.651c3.612,-0.775 7.223,-1.357 10.835,-1.744l0.677,-1.744l-1.625,0l-20.181,-2.907l0.406,-1.163c11.214,-1.003 22.259,-2.294 33.137,-3.874c2.04,-2.43 3.95,-4.822 5.729,-7.174c2.98,-2.326 5.192,-3.489 6.637,-3.489l0.542,0c0.813,0 0.993,2.713 0.542,8.14c-0.357,0.582 -0.718,1.163 -1.082,1.744l1.493,0l24.921,3.489c19.142,4.167 28.262,7.656 27.359,10.466c11.106,9.691 14.627,20.544 10.564,32.56l-0.626,1.792c1.796,-0.498 3.677,-0.998 5.643,-1.502c7.675,-4.264 14.763,-7.559 21.264,-9.884c0.993,-3.004 5.959,-5.911 14.898,-8.722c1.535,0 8.036,-2.132 19.503,-6.396c2.528,0 9.887,-2.52 22.077,-7.559c4.153,0 14.131,-2.326 29.932,-6.977c4.515,-1.163 7.088,-1.744 7.72,-1.744c1.174,0 6.185,1.163 15.034,3.489l3.928,-0.581l7.991,5.233c4.605,1.066 8.081,4.167 10.429,9.303c0.179,0.761 0.347,1.509 0.503,2.243c0.62,-0.431 1.586,-0.683 2.9,-0.755c0.66,-0.469 0.914,-1.302 0.762,-2.501l-0.024,-0.189c-1.198,-2.348 -1.834,-3.805 -1.906,-4.373c-0.036,-0.284 0.818,-1.354 2.561,-3.21c-0.393,-3.091 0.664,-4.684 3.172,-4.778c-0.028,-0.221 0.413,-0.293 1.322,-0.216l0.549,0.074c0.656,0.558 1.677,2.928 3.064,7.11c1.521,0.64 3.017,2.501 4.489,5.583c0.04,0.315 1.999,2.983 5.877,8.003c0.511,1.185 0.798,2.03 0.862,2.535l0.361,2.839c0.204,0.344 0.403,0.682 0.595,1.013l0.506,-0.494c2.545,-0.958 4.128,-1.829 4.746,-2.613l0.98,-3.065c1.495,-0.839 2.364,-1.398 2.607,-1.677l0.248,-0.632c2.045,-1.023 4.254,-1.169 6.628,-0.438c1.362,-0.23 3.528,-1.393 6.499,-3.49c1.134,-0.477 1.998,-0.684 2.591,-0.619c2.234,0.689 2.862,1.65 1.884,2.884c-1.931,1.531 -2.973,2.391 -3.126,2.58l-0.322,0.432c-1.336,1.685 -1.136,2.928 0.602,3.729c1.899,0.585 2.436,1.4 1.611,2.446c-0.144,0.162 -1.47,0.521 -3.979,1.077c-0.107,0.144 -0.372,0.299 -0.793,0.464l-0.458,0.568c-0.26,0.333 -0.161,1.368 0.296,3.104c-0.243,0.28 -0.308,0.437 -0.197,0.471c-3.828,1.803 -6.102,3.11 -6.822,3.922l-0.242,-0.252l-0.168,-0.052c-0.503,-0.155 -1.917,0.768 -4.244,2.767l-0.208,0.258c9.318,-4.073 20.015,-8.74 28.268,-12.395l-5.102,0c-0.714,0 -0.95,-0.388 -0.707,-1.163c0.327,0 1.246,-0.363 2.756,-1.09c-2.385,0.51 -3.748,0.72 -4.089,0.631l-0.39,-0.463c0.797,-0.441 4.922,-1.503 10.233,-3.139c2.097,-1.126 4.575,-2.485 7.434,-4.079c18.118,-5.814 29.232,-10.078 33.341,-12.792c15.807,-2.713 24.425,-4.07 25.854,-4.07c15.716,0 29.382,5.621 40.996,16.862c2.307,7.849 6.212,16.765 11.713,26.746c-0.29,4.845 0.498,9.884 2.363,15.117c-0.466,4.942 -1.585,10.369 -3.359,16.28c-2.659,8.915 -8.604,19.769 -17.835,32.56c-0.846,1.454 -1.51,3.004 -1.993,4.651c-0.08,0.291 -0.03,1.841 0.15,4.651c-6.266,13.373 -13.347,25.002 -21.243,34.886c-7.643,12.21 -14.408,19.769 -20.297,22.676c-3.87,7.365 -8.964,14.148 -15.283,20.35c-2.245,5.136 -6.337,9.787 -12.274,13.954c-2.986,1.551 -10.326,9.303 -22.02,23.257c-17.129,14.342 -26.095,21.513 -26.898,21.513l-0.521,0.314c0.926,-0.015 1.605,-0.023 2.037,-0.023l-0.135,0.581c-0.324,0.261 -2.092,0.795 -5.305,1.601c-2.61,1.74 -4.827,3.432 -6.649,5.077c41.735,-4.452 64.32,-6.679 67.755,-6.679l2.167,0l-0.271,0.581c-0.542,1.551 -5.056,2.713 -13.544,3.489l0.135,-0.581c-2.799,1.163 -4.966,1.744 -6.501,1.744l-0.542,0l0.948,-1.163l0.135,-0.581l-2.167,0l-0.406,1.163c1.083,0 1.49,0.388 1.219,1.163c-19.413,5.039 -31.648,7.559 -36.704,7.559c-3.07,0.581 -4.786,1.357 -5.147,2.326l0.948,0.581c12.641,0 29.797,-1.551 51.467,-4.651l26.546,-3.489l2.167,0l-0.135,0.581c-0.271,0.678 -3.476,1.647 -9.616,2.907c-5.598,3.101 -17.788,5.427 -36.569,6.977c-17.427,4.264 -41.58,9.497 -72.46,15.699l-0.406,1.163l3.25,0l54.447,-5.814c0.181,0.775 3.521,-0.581 3.521,-0.581c4.515,-1.163 8.668,-1.744 12.46,-1.744l2.573,0.581l-0.406,1.163c-41.083,10.078 -63.025,15.117 -65.824,15.117l-9.21,0c-6.411,3.101 -11.648,4.651 -15.711,4.651c-2.257,0 -7.585,1.357 -15.982,4.07c-5.327,6.59 -12.054,9.884 -20.181,9.884c-2.709,4.651 -5.463,6.977 -8.262,6.977c-5.508,5.524 -14.492,20.835 -26.953,45.933c-2.713,1.892 -5.856,5.316 -9.429,10.27c5.403,-4.833 11.206,-9.602 17.409,-14.307c16.219,-11.425 34.898,-22.323 56.039,-32.693c10.962,-7.294 25.614,-13.798 43.958,-19.51c1.454,0 8.445,-2.988 20.973,-8.964c10.067,-2.461 20.581,-5.8 31.543,-10.019c2.796,0.352 5.145,0.527 7.047,0.527l1.342,0c7.942,-4.57 16.387,-6.855 25.335,-6.855l0.671,0c3.467,0 5.313,1.758 5.537,5.273c-3.803,4.394 -5.872,7.031 -6.208,7.91c-1.566,3.252 0.503,6.943 6.208,11.073c-0.112,0.352 0,1.582 0.336,3.691c-1.901,3.955 -10.906,7.47 -27.013,10.546c-2.461,1.494 -4.027,2.9 -4.698,4.218l-1.678,3.691c-0.224,0.352 -0.112,0.527 0.336,0.527c-1.342,2.9 -8.333,6.943 -20.973,12.128c-9.06,9.491 -16.834,14.237 -23.321,14.237c-7.159,1.143 -17.785,6.591 -31.878,16.346c-21.923,16.522 -33.388,25.838 -34.395,27.947l-0.839,2.109c-0.336,0.527 0.056,1.055 1.174,1.582l0.671,0c9.731,-3.427 26.789,-7.822 51.173,-13.183c3.915,-0.703 7.718,-1.23 11.409,-1.582c6.711,0.615 19.966,3.427 39.764,8.437c20.693,2.549 28.802,8.701 24.328,18.456c-0.671,2.373 -1.342,4.306 -2.013,5.8c-3.915,8.349 -16.89,23.289 -38.925,44.821c-6.152,4.218 -17.673,14.061 -34.563,29.529c-0.224,0 -2.237,1.055 -6.04,3.164l-0.671,0l14.932,-13.71c4.362,-4.482 7.047,-7.822 8.053,-10.019l-2.013,0c-0.447,1.055 -9.06,7.558 -25.838,19.51c-5.369,6.679 -12.975,13.007 -22.818,18.983c-3.467,5.712 -13.087,13.446 -28.858,23.201c-8.165,4.658 -14.988,9.228 -20.469,13.71c-2.461,0.703 -5.369,2.637 -8.725,5.8c-1.23,0.703 -2.74,1.055 -4.53,1.055l0.168,-0.527l-0.671,0c-0.895,0.088 -1.454,0.439 -1.678,1.055l-0.336,0.527l1.342,0l-0.503,1.055c-4.25,3.867 -12.416,8.964 -24.496,15.292c-1.566,1.582 -3.803,2.988 -6.711,4.218l-1.342,0l0.336,-0.527c13.758,-7.997 21.308,-13.271 22.65,-15.819c20.805,-14.765 31.822,-23.553 33.053,-26.365l0.336,-0.527l-0.671,0c-19.574,10.898 -32.605,19.686 -39.093,26.365c-16.442,9.14 -25.503,13.71 -27.18,13.71c-14.653,9.755 -31.319,16.786 -49.998,21.092c-17.785,3.164 -33.388,7.91 -46.811,14.237c-3.803,1.406 -6.376,2.109 -7.718,2.109l-1.342,0c5.257,-3.427 14.709,-6.943 28.355,-10.546c0.671,-1.494 5.872,-3.076 15.604,-4.746c5.593,-3.076 14.093,-6.416 25.503,-10.019c2.796,-1.406 17.841,-10.722 45.133,-27.947l-1.174,-0.527c-6.152,0 -21.029,5.625 -44.63,16.874c-8.501,1.582 -19.686,6.328 -33.556,14.237c-8.053,2.812 -12.695,4.218 -13.926,4.218l-0.671,0c3.132,-2.285 11.129,-5.625 23.993,-10.019l35.234,-19.51c2.573,0 14.205,-5.8 34.898,-17.401c17.225,-7.91 28.187,-15.116 32.885,-21.619l-1.342,0l-52.347,29.002l-2.684,0c1.007,-2.109 9.284,-7.382 24.831,-15.819c6.935,-6.503 18.959,-14.589 36.073,-24.256c5.369,-5.712 12.863,-11.337 22.483,-16.874c0.336,-0.703 8.109,-6.855 23.321,-18.456c3.579,-4.746 9.619,-11.073 18.12,-18.983c3.356,-5.273 5.537,-8.964 6.543,-11.073c1.678,-3.515 -0.336,-5.976 -6.04,-7.382c-0.112,-0.615 0,-1.318 0.336,-2.109l-7.382,0c-2.796,0 -14.261,4.043 -34.395,12.128c-3.579,0.176 -10.179,3.34 -19.798,9.491c-18.232,8.085 -31.319,12.128 -39.261,12.128l-2.013,0c-13.311,0 -18.568,-7.91 -15.771,-23.729c1.901,-4.218 -2.573,-8.085 -13.422,-11.601c-0.202,-0.654 -0.347,-1.312 -0.435,-1.974c-1.526,1.692 -3.03,3.302 -4.513,4.828c-6.05,9.4 -12.009,17.346 -17.878,23.839c-5.056,7.462 -8.578,13.664 -10.564,18.606c-2.167,0 -9.21,9.497 -21.129,28.49c-0.542,1.55 -5.056,7.946 -13.544,19.187c-4.334,7.656 -12.054,17.734 -23.16,30.235c-6.682,10.369 -11.874,19.284 -15.576,26.746l-1.354,0.581l0.271,-0.581c2.348,-6.977 10.474,-21.901 24.379,-44.77c1.084,-2.132 1.761,-3.682 2.032,-4.651l-0.542,0c-1.354,0 -5.824,6.783 -13.409,20.35c-4.842,6.063 -11.7,15.472 -20.572,28.226c-0.791,2.583 -1.74,5.171 -2.845,7.764c0.107,4.681 -2.471,17.349 -7.734,38.002c0.859,0 0.483,1.836 -1.128,5.507l-0.161,0.551c-0.322,0.734 -0.913,1.101 -1.772,1.101c-0.215,-9.73 0.645,-18.358 2.578,-25.885c-0.061,-1.967 0.306,-6.152 1.099,-12.555c-2.214,3.25 -4.522,6.655 -6.923,10.216c-2.033,10.994 -4.872,28.113 -8.517,51.356c-3.008,7.068 -4.78,19.735 -5.317,38.002c0.107,1.928 -0.322,3.947 -1.289,6.058l-1.45,0.551c-0.537,-2.662 -0.054,-9.822 1.45,-21.479c1.074,-34.881 2.148,-53.606 3.223,-56.176c-0.044,-0.116 -0.087,-0.232 -0.129,-0.35c-1.402,2.106 -2.829,4.253 -4.281,6.443c-2.89,3.798 -4.933,6.356 -6.128,7.673l-2.192,22.032l-1.289,0c-1.289,-5.599 -1.235,-14.228 0.161,-25.885l1.986,-11.598c-5.172,7.36 -12.166,18.674 -20.981,33.942c-3.702,8.722 -6.456,14.73 -8.262,18.024l-1.083,0c0.542,-4.651 1.129,-7.946 1.761,-9.884l0.813,-2.326c2.257,-6.783 7.72,-17.637 16.388,-32.56l1.761,-5.233c0.361,-0.872 0.451,-1.647 0.271,-2.326c5.67,-9.646 9.708,-16.826 12.114,-21.542c0.046,-1.243 0.084,-2.556 0.111,-3.94c-3.022,3.058 -6.014,7.288 -8.975,12.691c-0.632,0 -3.386,3.876 -8.262,11.629l-1.084,0c1.54,-3.466 3.039,-6.808 4.498,-10.026c-1.314,-0.409 -1.287,-6.461 0.082,-18.157c-1.719,-4.039 0.107,-14.319 5.479,-30.842c2.363,-38.919 3.921,-70.863 4.673,-95.83c1.504,-9.638 2.686,-15.513 3.545,-17.624l-1.934,0c-14.609,3.029 -23.418,8.169 -26.426,15.421c-0.43,0.918 -7.197,7.16 -20.303,18.725c-11.709,18.542 -26.748,39.287 -45.117,62.234c-8.217,14.728 -14.144,22.586 -17.78,23.575l-0.181,0.485c-0.271,0.775 -0.767,1.163 -1.49,1.163l-0.542,0c-0.097,-2.491 0.208,-6.039 0.914,-10.643c-2.175,2.377 -4.413,5.134 -6.715,8.27c-5.206,20.025 -8.103,30.894 -8.691,32.608c-0.722,2.132 -2.393,6.008 -5.011,11.629c-0.993,3.876 -1.806,6.783 -2.438,8.722c-6.862,17.055 -11.016,27.715 -12.46,31.979l-1.354,0.581l-1.083,0c0.451,-1.163 0.497,-1.744 0.135,-1.744c0.09,-0.291 0.632,-1.454 1.625,-3.489c6.519,-28.369 11.017,-47.726 13.496,-58.071c-1.772,2.507 -3.616,5.201 -5.532,8.082c-4.498,12.016 -8.958,22.864 -13.381,32.546c-2.077,6.202 -3.341,11.047 -3.792,14.536c-1.264,2.616 -2.167,4.748 -2.709,6.396l-3.386,9.884c-0.271,0.775 -0.767,1.163 -1.49,1.163c-0.271,-3.489 0.271,-7.171 1.625,-11.047l2.573,-7.559l6.096,-25.819c-5.733,8.192 -12.118,18.107 -19.156,29.744l-0.645,0l-0.967,-0.551c1.932,-4.524 4.012,-9.11 6.242,-13.758c0.447,-4.259 2.347,-12.763 5.702,-25.512c-2.821,4.409 -5.782,9.054 -8.882,13.935l-1.611,0.551c-0.859,0 -1.128,-0.367 -0.806,-1.102c5.214,-10.571 11.59,-22.136 19.13,-34.694c0.621,-2.099 1.133,-3.963 1.534,-5.589c1.445,-3.295 2.528,-6.008 3.251,-8.14c0.829,-2.967 1.565,-5.531 2.206,-7.691l-0.661,1.04l-0.644,0l-1.128,-0.551c0.422,-0.982 0.865,-1.979 1.33,-2.993c-2.034,3.304 -3.123,5.152 -3.269,5.543l-0.542,0c-1.445,0 -0.858,-4.458 1.761,-13.373l13.544,-36.63c1.445,-5.427 3.025,-10.66 4.74,-15.699c1.264,-2.616 2.167,-4.748 2.709,-6.396c-0.813,0 -1.58,0.194 -2.302,0.581l-2.167,-1.744l-2.709,0c-3.341,1.454 -10.203,3.586 -20.587,6.396c-1.535,2.229 -10.474,6.299 -26.817,12.21c-0.451,1.163 -0.858,1.744 -1.219,1.744l-1.896,-0.581c-2.619,0 -9.481,10.078 -20.587,30.235c-2.889,2.423 -10.655,16.765 -23.296,43.026c-2.528,2.713 -4.063,4.07 -4.605,4.07c-0.271,-0.194 0.903,-5.233 3.521,-15.117c4.695,-8.528 7.314,-13.567 7.855,-15.117l0.135,-0.581l-0.542,0c-1.174,0.581 -7.449,10.66 -18.826,30.235c-0.632,1.744 -12.415,21.513 -35.35,59.306c-6.682,13.179 -10.7,19.769 -12.054,19.769c-0.993,-0.388 -1.174,-1.551 -0.542,-3.489c0.722,-2.035 7.494,-15.602 20.316,-40.7c2.618,-7.656 9.436,-20.835 20.451,-39.537l-0.542,0c-0.993,0.388 -4.379,5.039 -10.158,13.954c-3.702,0 -11.964,12.21 -24.785,36.63l-0.542,0c-0.722,0 -0.993,-0.388 -0.813,-1.163l2.167,-6.396c4.515,-8.915 9.165,-18.8 13.95,-29.653c1.354,-0 5.102,-6.783 11.241,-20.35l0.135,-0.581c0.451,-1.357 0.858,-3.101 1.219,-5.233c3.251,-3.198 6.727,-9.206 10.429,-18.024l23.16,-36.049l0.135,-0.581c-1.083,0 -6.953,1.938 -17.607,5.814l-0.542,0l0.135,-0.581c1.445,-2.326 7.901,-6.396 19.368,-12.21l0.542,-1.744l-0.542,0c-13.093,4.651 -28.758,11.435 -46.998,20.35l-1.625,0l0.135,-0.581l35.485,-21.513l0.271,-0.581l-1.083,0c-2.528,0 -18.42,6.396 -47.675,19.187c-15.982,9.303 -25.327,13.954 -28.036,13.954l-1.083,0l0.406,-1.163c5.869,-3.004 20.587,-11.338 44.153,-25.002c19.865,-9.497 34.176,-17.055 42.934,-22.676l0.271,-0.581l-1.625,0c-10.655,1.938 -19.548,5.233 -26.682,9.884c-1.445,1.26 -4.876,2.81 -10.293,4.651l-0.135,-1.163l0.135,-0.581c8.397,-4.361 14.989,-7.268 19.774,-8.722c21.129,-11.919 36.704,-20.059 46.727,-24.42c2.167,-1.163 5.418,-6.396 9.752,-15.699c4.424,-6.59 14.357,-23.645 29.797,-51.166c4.695,-5.524 9.436,-13.664 14.221,-24.42c20.948,-31.882 32.46,-50.875 34.537,-56.98c2.889,-4.361 4.515,-7.074 4.876,-8.14l0.813,-2.326l1.219,-9.884c0.361,-1.163 6.05,-8.334 17.065,-21.513c0.524,-0.759 1.039,-1.493 1.544,-2.202c-5.264,1.83 -11.375,3.969 -18.333,6.417l0.948,-1.163l0.406,-1.163c-4.515,0 -8.352,1.163 -11.512,3.489l-0.406,1.163l3.25,0l-0.135,0.581c-3.702,1.163 -6.637,1.744 -8.804,1.744c-0.722,0 -0.948,-0.388 -0.677,-1.163l0.271,-0.581c9.029,-4.845 16.975,-7.559 23.837,-8.14c4.848,-2.095 10.244,-4.707 16.189,-7.838c1.634,-2.001 3.129,-3.652 4.486,-4.953l-4.963,0c-6.682,1.938 -12.596,4.458 -17.743,7.559c-8.578,4.651 -14.221,6.977 -16.93,6.977c-6.772,0 -17.697,2.326 -32.776,6.977c-5.327,-0.291 -7.856,-0.872 -7.585,-1.744c1.716,-0.775 2.934,-1.163 3.657,-1.163c2.98,0.388 5.463,0.581 7.449,0.581c4.424,-2.616 10.339,-5.136 17.743,-7.559c1.896,-2.326 7.63,-4.845 17.201,-7.559l0.948,-1.163l0.135,-0.581c-6.772,0.388 -11.693,0.581 -14.763,0.581c-6.682,-0.581 -9.977,-1.551 -9.887,-2.907c16.253,-3.876 24.876,-5.814 25.869,-5.814c1.806,-2.229 10.023,-5.717 24.65,-10.466c0.993,-0.678 3.296,-3.198 6.907,-7.559c1.354,0 3.431,-1.357 6.23,-4.07c0.451,-1.454 -0.181,-4.361 -1.896,-8.721c3.792,-2.713 10.564,-16.28 20.316,-40.7c7.314,-12.113 13.634,-24.905 18.962,-38.375c5.869,-11.047 11.106,-22.87 15.711,-35.467c4.456,-8.046 11.848,-22.514 22.177,-43.403c-0.478,0.507 -0.965,1.02 -1.46,1.54c-2.799,3.295 -6.321,8.915 -10.564,16.862c-7.585,6.493 -12.009,11.532 -13.273,15.117l0.135,1.163c-0.813,1.454 -5.418,6.493 -13.815,15.117c-0.271,0.969 -4.108,5.427 -11.512,13.373c-0.903,2.713 -6.005,7.171 -15.305,13.373c-1.625,1.454 -2.799,3.198 -3.521,5.233l-0.948,2.907c-2.889,0 -8.623,7.365 -17.201,22.095c-26.456,33.142 -41.129,54.073 -44.018,62.795c-4.515,6.88 -15.079,21.416 -31.693,43.607c-4.244,8.528 -8.036,12.792 -11.377,12.792l0.271,-0.581c5.056,-8.625 8.939,-15.796 11.648,-21.513l-1.625,0c-3.251,4.361 -7.494,10.95 -12.731,19.769c-4.605,4.361 -11.828,15.02 -21.67,31.979c-10.835,12.307 -22.122,28.006 -33.86,47.096c-12.099,14.536 -18.646,23.257 -19.639,26.164l-0.542,0l0.542,-1.744c13.092,-20.544 25.011,-39.731 35.756,-57.562c1.174,-3.392 8.036,-15.602 20.587,-36.63l0.813,-2.326l-1.084,0c-4.153,3.876 -11.106,12.598 -20.858,26.164c-17.336,21.319 -27.449,36.243 -30.338,44.77c-0.361,0 -1.67,1.744 -3.928,5.233l-1.083,0l0.135,-0.581c1.354,-3.779 6.817,-12.888 16.388,-27.327c2.167,-4.361 9.661,-16.377 22.483,-36.049c0.271,-0.872 4.605,-6.686 13.002,-17.443c1.445,-4.361 6.953,-14.245 16.524,-29.653l0.542,-1.744l-0.542,0c-0.813,0.485 -3.747,4.361 -8.804,11.629l-0.542,0l-0.813,-0.581c2.257,-4.651 7.133,-13.179 14.628,-25.583c2.348,-7.074 10.384,-20.641 24.108,-40.7c11.377,-12.307 18.871,-22.191 22.483,-29.653l2.167,-6.396c3.521,-20.156 4.786,-30.235 3.792,-30.235c-2.619,-0.969 -3.025,-4.07 -1.219,-9.303l2.573,-5.814c2.077,-16.958 3.792,-27.424 5.147,-31.397c3.431,-9.012 5.192,-13.664 5.282,-13.954c0.512,-2.197 1.077,-5.394 1.697,-9.59Zm64.073,-69.405c-7.911,11.582 -12.318,18.726 -13.219,21.433l-0.135,0.581c-0.451,1.357 -0.451,7.752 0,19.187c-2.619,11.822 -3.205,22.094 -1.761,30.816c0.632,1.454 0.632,5.136 0,11.047c-4.334,7.559 -6.998,12.792 -7.991,15.699l-2.032,5.814l1.625,0c2.167,-1.066 6.501,-5.911 13.002,-14.536c1.896,-1.357 8.126,-8.528 18.691,-21.513c3.251,-3.101 5.418,-6.202 6.501,-9.303c0.09,-4.651 0.451,-7.946 1.083,-9.884c1.445,-3.489 5.598,-7.752 12.46,-12.792l1.625,-4.651c0.09,-0.388 -0.045,-0.581 -0.406,-0.581c0.748,-2.142 6.4,-8.395 16.953,-18.758c-10.266,2.04 -19.166,3.06 -26.699,3.06l-10.293,0l-1.354,0.581l-0.135,-1.163c6.682,-3.779 15.937,-6.493 27.765,-8.14c0.271,-0.485 2.122,-1.26 5.553,-2.326l2.573,0.581l5.959,0c0.423,0 1.965,-0.456 4.628,-1.369c2.716,-2.802 5.596,-5.253 8.64,-7.353c0.57,-0.674 1.126,-1.317 1.668,-1.93c-19.744,2.456 -33.932,4.456 -42.565,6l-0.542,0c-3.973,-1.163 -7.223,-1.744 -9.752,-1.744c-4.899,0.539 -8.847,0.954 -11.843,1.243Zm-17.179,435.363c1.22,-1.723 2.449,-3.496 3.685,-5.318c10.098,-11.658 24.009,-29.098 41.733,-52.321c2.793,-1.56 4.78,-3.763 5.962,-6.609c0,-1.469 -0.322,-2.203 -0.967,-2.203l-0.644,0c-4.941,0 -12.192,2.937 -21.753,8.812c-2.471,0.734 -4.351,1.102 -5.64,1.102c-1.611,-0.734 -2.363,-1.469 -2.256,-2.203l0.161,-0.551c1.289,-3.029 4.834,-5.783 10.635,-8.261c0.752,-0.734 1.182,-1.285 1.289,-1.652l-3.867,0c-5.586,0 -14.072,3.304 -25.459,9.913c-2.041,1.101 -3.76,1.652 -5.156,1.652c0.967,-2.203 10.151,-7.71 27.554,-16.522c0.752,-0.643 1.289,-1.377 1.611,-2.203l-1.934,0l-22.559,3.305c-1.833,0.701 -3.59,1.362 -5.272,1.984c-11.589,39.181 -16.534,58.771 -14.834,58.771c2.167,0 4.424,2.907 6.772,8.721c6.466,1.469 10.112,2.664 10.938,3.583Zm190.381,-408.172c-0.407,0.823 -0.85,1.701 -1.329,2.634c1.798,-1.108 3.367,-1.593 4.805,-1.288l0.813,-1.581l0.271,-0.581l-0.542,0c-1.394,0.285 -2.734,0.557 -4.018,0.816Zm163.435,-23.128c0.735,6.109 0.462,11.027 -0.817,14.753c-2.265,5.389 -4.444,10.349 -6.537,14.881c0.542,-0.543 1.045,-1.057 1.51,-1.542c2.432,-1.465 4.405,-2.984 5.919,-4.554c0.971,-0.35 1.694,-0.836 2.169,-1.458c0.243,-0.28 0.356,-0.776 0.339,-1.49c1.062,-0.924 2.352,-1.976 3.87,-3.154c-2.546,-5.777 -4.545,-10.758 -4.586,-11.076c0.262,-0.77 0.373,-1.313 0.333,-1.629l-0.048,-0.379c-0.843,-1.639 -1.56,-3.089 -2.151,-4.352Zm-52.961,292.533l-0.948,1.163l-0.135,0.581l0.542,0c0.722,0 1.219,-0.388 1.49,-1.163l-0.948,-0.581Zm-415.811,-40.846l-0.813,2.326l0.542,0c0.722,0 1.219,-0.388 1.49,-1.163l0.406,-1.163l-1.625,0Zm410.529,45.497c-2.528,3.198 -3.928,5.136 -4.199,5.814l-0.135,0.581l1.083,0c3.07,-3.876 4.695,-6.008 4.876,-6.396l-1.625,0Zm-183.928,203.305c3.141,-3.737 5.082,-6.773 5.825,-9.106l0.406,-1.163l-0.542,0c-1.821,1.866 -3.707,3.915 -5.656,6.148c0.016,1.414 0.005,2.788 -0.033,4.121Zm-61.997,97.667c4.666,-10.235 8.908,-19.173 12.727,-26.812c-0.045,-2.764 -0.111,-5.69 -0.198,-8.778c1.182,-12.667 2.148,-20.928 2.9,-24.784l-1.289,0l-0.967,2.203c0.43,2.111 -2.417,14.411 -8.54,36.9c-1.404,3.17 -2.948,10.261 -4.633,21.27Zm-134.616,-52.228l-0.326,0.4l-0.193,0.623c0.171,-0.339 0.344,-0.68 0.52,-1.023Zm550.632,-516.494l-0.23,1.163c-0.895,2.713 -1.183,4.845 -0.865,6.396c-1.603,2.907 -2.81,5.621 -3.622,8.14l-2.416,8.14c-0.563,1.938 -4.611,9.303 -12.146,22.094l-5.561,18.606c1.654,1.454 1.23,6.299 -1.272,14.536c-2.082,4.651 -3.526,8.334 -4.331,11.047l-3.509,11.629c-3.448,6.59 -5.454,10.853 -6.016,12.792l0.822,0.581l0.536,0c15.812,-10.853 26.005,-21.513 30.579,-31.979l1.093,-3.489c0.24,-0.872 0.304,-1.647 0.193,-2.326c0.406,-1.26 6.681,-10.175 18.827,-26.746l0.479,-1.744l2.014,-8.14c3.716,-6.59 6.06,-11.435 7.032,-14.536l0.115,-0.581c-1.697,0 -1.584,-6.202 0.337,-18.606l2.416,-8.14c2.106,-6.687 -0.289,-11.726 -7.185,-15.117l-4.822,0c-2.858,0 -4.97,2.326 -6.338,6.977l-6.129,9.303Zm-129.35,208.42c3.528,-2.416 7.159,-4.637 10.891,-6.662l4.672,-4.652l0.364,-1.163c-2.054,0 -9.239,4.264 -21.554,12.792c-1.346,0.46 -2.695,0.981 -4.047,1.563c3.116,-0.612 6.341,-1.238 9.674,-1.878Zm-70.639,15.297c1.118,-0.104 2.145,-0.155 3.081,-0.155l0.275,-0.087l10.453,-18.223l0.683,-1.785l-0.455,0c-1.214,0 -5.84,6.694 -13.879,20.081l-0.157,0.169Zm-30.226,66.245l1.208,-1.861c2.348,-6.977 2.438,-10.466 0.271,-10.466c-1.312,-0.49 -2.389,-0.825 -3.232,-1.005l-0.399,2.062c1.179,4.191 1.897,7.948 2.153,11.27Zm-328.392,276.129c1.748,-3.044 3.554,-6.111 5.417,-9.203l7.642,-22.497c-0.93,1.402 -1.89,2.857 -2.882,4.365c-1.132,2.928 -1.93,5.137 -2.393,6.629l-1.896,6.977c-2.131,5.015 -4.094,9.591 -5.888,13.729Zm204.276,-107.22l0.313,-0.411c3.16,-3.198 9.165,-12.307 18.013,-27.327c6.682,-7.074 10.339,-11.532 10.971,-13.373l0.271,-0.581c-0.813,-1.938 -1.174,-3.101 -1.083,-3.489c5.418,-9.109 16.704,-22.094 33.86,-38.956c2.882,-4.144 5.563,-7.975 8.042,-11.494c-9.49,6.393 -19.367,11.437 -29.631,15.133c-22.666,6.793 -34.912,12.3 -36.738,16.522c-2.793,7.068 -5.156,20.653 -7.09,40.755c1.551,8.537 2.575,16.277 3.072,23.22Zm-4.684,-138.877l-1.611,3.855c-1.289,2.937 -5.21,8.628 -11.763,17.073l-0.967,2.203l1.289,0c13.857,-1.928 25.352,-5.783 34.482,-11.566c16.113,-3.304 29.487,-8.996 40.122,-17.073c10.098,-6.517 15.63,-10.923 16.597,-13.218l2.578,-6.058c-2.793,-1.101 -5.317,-1.652 -7.573,-1.652c-19.873,2.295 -30.347,4.681 -31.421,7.16c-6.123,0 -16.274,3.672 -30.454,11.015c-0.645,1.377 -3.223,2.846 -7.734,4.406c-1.826,1.377 -3.008,2.662 -3.545,3.855Zm-34.557,-213.446l-1.354,4.07c-0.09,0.388 0.045,0.581 0.406,0.581c-5.508,8.818 -10.745,18.897 -15.711,30.235c-0.632,0 -1.67,1.938 -3.115,5.814l-0.406,2.907c-1.264,1.551 -2.573,3.876 -3.928,6.977l0.813,0.581l0.542,0c6.321,0 11.874,-3.101 16.659,-9.303c3.341,-2.713 7.269,-7.365 11.783,-13.954c8.126,-5.136 16.298,-14.245 24.515,-27.327c10.293,-9.206 16.117,-15.796 17.472,-19.769l2.032,-5.814c0.181,-0.581 -0.271,-1.357 -1.354,-2.326l-4.876,0c-3.792,0 -12.551,4.458 -26.275,13.373c-4.695,0 -9.887,4.651 -15.576,13.954l-1.625,0Zm-116.478,121.52c-0.181,0.775 0.045,1.163 0.677,1.163l0.542,0l0.406,-1.163l-1.625,0Zm108.677,356.916c2.275,-5.367 4.354,-10.001 6.238,-13.9c0.139,-0.878 0.308,-1.779 0.509,-2.703l-0.967,-0.551l-0.357,-0l-0.356,0.603c-0.415,3.043 -2.104,8.559 -5.068,16.55Zm60.487,-601.7l-0.813,4.07c-3.25,0 -7.043,6.396 -11.377,19.187l-3.928,11.629c-0.632,1.841 -4.334,8.431 -11.106,19.769c0.09,0.775 0.09,1.357 0,1.744c-0.542,0 -1.309,0.581 -2.302,1.744l-0.948,2.907l0.542,0c2.709,0 10.203,-6.59 22.483,-19.769c4.154,-1.938 12.19,-8.721 24.108,-20.35c2.709,-3.586 4.56,-6.88 5.553,-9.884l1.625,-4.651c1.806,-5.33 1.174,-8.818 -1.896,-10.466c-3.973,-0.388 -7.856,-0.581 -11.648,-0.581l-2.709,0c-3.973,0 -6.501,1.551 -7.585,4.651Zm121.089,22.385l-1.354,4.07c-1.083,3.101 -4.379,9.109 -9.887,18.024l-0.813,2.326l1.083,0c11.648,-2.035 21.309,-6.105 28.984,-12.21c13.544,-3.489 24.786,-9.497 33.725,-18.024c8.488,-6.88 13.138,-11.532 13.95,-13.954l2.167,-6.396c-2.348,-1.163 -4.47,-1.744 -6.366,-1.744c-16.704,2.423 -25.508,4.942 -26.411,7.559c-5.147,0 -13.679,3.876 -25.598,11.629c-0.542,1.454 -2.709,3.004 -6.501,4.651c-1.535,1.454 -2.528,2.81 -2.98,4.07Zm139.232,-14.082c0.826,1.838 1.73,3.936 2.711,6.296c12.605,-4.754 22.644,-9.2 30.116,-13.34l0.426,-0.915c-0.752,-0.715 -2.428,-0.692 -5.029,0.07c-3.568,1.977 -12.976,4.607 -28.225,7.89Zm-16.322,13.239c-0.529,-0.741 -1.126,-1.714 -1.766,-2.853c-1.691,1.439 -4.245,3.542 -7.663,6.308l9.429,-3.455Zm-262.101,164.35c-2.02,1.007 -4.338,2.032 -6.954,3.074l-32.235,26.164c-0.722,0 -5.282,3.876 -13.679,11.629c-4.605,1.163 -12.099,4.651 -22.483,10.466c-2.257,0 -6.682,2.326 -13.273,6.977c-1.283,0 -5.722,0.948 -13.315,2.844c0.788,0.72 1.613,1.08 2.474,1.08l1.625,0c1.264,0 5.824,-1.744 13.679,-5.233l2.167,0c2.799,0 2.348,7.752 -1.354,23.257c-0.722,2.035 -4.515,6.299 -11.377,12.792c-0.632,0.678 -1.174,1.647 -1.625,2.907l-0.406,1.163c-0.451,1.357 1.219,5.039 5.011,11.047c0.451,1.26 0.632,2.81 0.542,4.651c-0.451,1.357 -3.702,6.202 -9.752,14.536l-0.271,0.581c-0.451,1.454 -1.716,7.849 -3.792,19.187l-2.302,6.977l-1.194,4.01c3.137,-0.824 5.569,-1.236 7.296,-1.236c2.471,-1.928 9.238,-5.232 20.303,-9.913c1.934,-1.469 8.272,-3.672 19.014,-6.609l0.967,-1.101l0.322,-0.551l-0.645,0c-18.047,2.937 -28.359,4.406 -30.938,4.406l-0.161,-1.102c5.693,-3.488 17.993,-7.16 36.899,-11.015c5.149,-2.278 10.077,-4.263 14.782,-5.957c6.957,-18.154 15.625,-37.197 26.006,-57.13c0.903,-2.52 5.553,-12.404 13.95,-29.653l1.49,-4.651l-1.625,0c-3.251,3.295 -17.472,29.847 -42.664,79.656l-1.354,0.581c-0.722,0 -0.948,-0.388 -0.677,-1.163c5.327,-13.567 12.099,-28.684 20.316,-45.352c1.535,-5.717 2.664,-9.594 3.386,-11.629c8.488,-16.571 13.093,-25.874 13.815,-27.909l-1.625,0c-2.799,4.264 -7.63,13.179 -14.492,26.746l-0.542,0l-0.948,-0.581c4.876,-14.245 13.138,-31.688 24.786,-52.329c0.282,-0.539 0.566,-1.079 0.854,-1.62Zm69.543,-149.524c-1.112,1.945 -2.277,3.971 -3.495,6.077c-2.528,3.586 -10.79,10.369 -24.786,20.35c-0.632,0.678 -1.083,1.454 -1.354,2.326l-2.844,8.14l16.253,9.884c3.452,2.084 5.837,4.874 7.155,8.372c7.414,-11.335 16.498,-25.852 27.252,-43.549c2.348,-1.647 4.018,-3.973 5.011,-6.977c0,-1.551 -0.271,-2.326 -0.813,-2.326l-0.542,0c-4.153,0 -10.248,3.101 -18.284,9.303c-2.077,0.775 -3.657,1.163 -4.74,1.163c-1.354,-0.775 -1.986,-1.551 -1.896,-2.326l0.135,-0.581c1.084,-3.198 4.063,-6.105 8.939,-8.722c0.632,-0.775 0.993,-1.357 1.083,-1.744l-3.251,0c-1.133,0 -2.408,0.203 -3.824,0.609Zm155.868,6.911c-1.103,1.561 -2.169,2.93 -3.195,4.109c-13.815,17.152 -28.758,29.362 -44.831,36.63c-19.052,7.171 -29.345,12.985 -30.88,17.443c-2.348,7.462 -4.334,21.804 -5.959,43.026c3.883,26.843 3.837,46.224 -0.135,58.143c-0.408,5.868 -1.701,13.082 -3.879,21.641c8.823,-15.281 15.379,-27.353 19.668,-36.217c4.854,-5.578 8.532,-10.933 11.035,-16.065c2.124,-1.636 3.527,-3.421 4.209,-5.355c0.379,-0.892 0.265,-2.231 -0.341,-4.016c5.233,-8.702 13.993,-21.197 26.28,-37.485c5.157,-9.074 9.329,-16.66 12.514,-22.759c5.537,-4.388 8.76,-7.809 9.67,-10.264l0,-8.479c3.034,-3.272 4.74,-5.355 5.119,-6.247l0.114,-1.785c4.247,-4.165 9.594,-6.247 16.041,-6.247c3.185,-1.636 7.622,-6.247 13.311,-13.834c2.427,-2.083 4.399,-3.272 5.916,-3.57c6.067,0 8.381,1.934 6.94,5.801c-3.565,5.355 -5.461,8.33 -5.688,8.925l-0.455,1.339c-1.972,5.281 -0.493,8.256 4.437,8.925c5.157,0 7.129,1.636 5.916,4.909c-0.228,0.521 -3.223,2.454 -8.987,5.801c-0.152,0.446 -0.683,1.041 -1.593,1.785l-0.683,1.785c-0.379,1.041 0.683,3.57 3.185,7.586c-0.379,0.892 -0.417,1.339 -0.114,1.339c-8.039,7.512 -12.628,12.569 -13.766,15.172l-0.796,-0.446l-0.455,0c-1.365,0 -4.133,3.421 -8.305,10.264l-2.048,5.355c-0.531,1.413 -4.247,6.917 -11.149,16.511l-0.228,0.892l-2.503,10.264c-0.607,1.711 -5.157,7.066 -13.652,16.065c-0.91,2.454 -9.746,16.437 -26.507,41.947c-4.012,6.719 -8.853,14.078 -14.523,22.078c10.306,-2.782 25.459,-6.168 45.458,-10.159c3.477,-2.344 7.512,-4.967 12.105,-7.868c4.283,-5.621 11.464,-12.792 21.541,-21.513l0.479,-1.744l-2.679,0c-5.488,4.264 -8.455,6.396 -8.902,6.396l-1.072,0l-0.822,-0.581c2.375,-3.876 6.581,-7.752 12.617,-11.629c2.464,-3.876 4.603,-6.783 6.416,-8.722l0.595,-2.326c1.857,-6.105 3.934,-12.307 6.231,-18.606c0.288,-2.132 0.596,-3.682 0.921,-4.651c0.722,-2.52 4.369,-9.884 10.94,-22.094l1.093,-3.489c0.483,-1.647 1.155,-5.717 2.017,-12.21c9.697,-17.734 14.786,-27.424 15.269,-29.072c1.108,-7.171 1.985,-11.822 2.63,-13.954c0.649,-2.035 4.786,-8.043 12.411,-18.024l0.479,-1.744c0.729,-2.326 1.643,-5.814 2.743,-10.466c0.4,-1.454 2.736,-5.136 7.01,-11.047l-6.422,-12.21c0.02,-0.071 0.084,-0.165 0.192,-0.283c-5.442,1.946 -12.171,3.93 -20.513,5.819l-0.882,-0.87l1.651,-1.594c2.857,-1.583 6.274,-2.797 10.251,-3.642l1.764,1.739l2.041,-1.131c-0.328,-0.271 -0.616,-0.791 -0.864,-1.559l16.974,-8.632l0.281,-0.897c-0.491,0 -0.967,-0.028 -1.427,-0.083c-7.193,1.147 -21.706,3.566 -32.726,6.07c-1.341,0.58 -2.645,1.132 -3.912,1.657c2.027,5.044 4.329,11.018 6.907,17.921c0.823,5.056 1.282,7.962 1.378,8.719l-0.272,-0.014c-0.298,-0.219 -1.534,-2.866 -3.709,-7.942c-0.43,-0.554 -0.736,-0.836 -0.917,-0.845l-0.278,-0.061l0.048,0.378c4.721,17.316 7.166,26.637 7.334,27.961l0.096,0.757l-0.278,-0.061c-0.732,-0.099 -1.464,-1.609 -2.195,-4.528l0.272,0.014c-0.656,-0.91 -1.018,-1.633 -1.086,-2.17l-0.024,-0.189l0.573,0.264l0.272,0.014l-0.096,-0.757l-0.549,-0.074c0.048,0.378 -0.111,0.543 -0.477,0.493c-3.164,-6.489 -4.859,-10.616 -5.084,-12.382c-0.402,-1.039 -0.832,-1.593 -1.291,-1.663l-0.224,0.365c0.561,4.416 2.032,10.318 4.411,17.708l2.773,9.07l0.096,0.757l-0.272,-0.014c-0.322,-0.055 -0.907,-1.119 -1.755,-3.19c-1.665,-1.775 -3.269,-5.898 -4.812,-12.369c-2.722,-5.84 -6.186,-13.973 -10.391,-24.4l-0.549,-0.074l0.144,1.135l5.075,18.681c-0.346,0.108 -0.612,0.142 -0.797,0.101l0.12,0.946l1.099,0.149c0.732,1.51 1.182,2.927 1.35,4.251l-0.151,0.933l-0.549,-0.074c-6.429,-13.766 -9.706,-21.137 -9.83,-22.115l-0.409,-3.217c-1.299,-1.572 -2.816,-5.281 -4.179,-8.183c-3.658,0.886 -6.613,1.244 -8.866,1.073c-3.225,0.883 -5.561,1.401 -7.008,1.555l-0.742,0.596c-2.769,2.425 -6.111,5.057 -10.025,7.896c-0.223,0.315 -1.11,0.928 -2.658,1.839c-0.548,0.658 -1.483,1.138 -2.807,1.438l-0.242,-0.252l11.082,-10.051l0.458,-0.568l-0.168,-0.052c-0.447,-0.138 -2.924,1.757 -7.431,5.683c-1.678,0.93 -3.866,2.736 -6.564,5.419c-1.055,0.835 -2.514,1.927 -4.376,3.277Zm-97.75,199.593c-0.031,-4.453 -0.251,-7.401 -0.66,-8.845l-0.948,1.163c-1.141,4.696 -2.055,9.105 -2.74,13.228l4.094,0l0.211,-0.07c0.02,-1.054 0.034,-2.053 0.041,-2.998c-0.509,0.461 -1.083,0.848 -1.723,1.162c0.076,-0.297 -0.038,-0.446 -0.341,-0.446c0.701,-0.896 1.389,-1.961 2.066,-3.193Zm-25.724,11.119c-0.034,-2.113 -0.076,-4.31 -0.128,-6.591c0.993,-13.373 1.806,-22.094 2.438,-26.165l-1.084,0l-0.813,2.326c0.329,2.028 -1.623,12.964 -5.856,32.808c1.608,-0.695 3.422,-1.487 5.442,-2.379Zm-11.695,5.005c0.651,-5.646 2.249,-13.387 4.795,-23.224c1.986,-41.088 3.296,-74.811 3.928,-101.169c1.264,-10.175 2.257,-16.377 2.98,-18.606l-1.625,0c-12.28,3.198 -19.684,8.625 -22.212,16.28c-0.361,0.969 -6.05,7.559 -17.065,19.769c-9.842,19.575 -22.483,41.476 -37.923,65.702c-7.404,16.668 -12.596,25.002 -15.576,25.002c-0.813,0 -0.813,-1.551 0,-4.651c1.986,-2.616 3.251,-4.748 3.792,-6.396l1.354,-4.07l-1.083,0c-5.056,5.33 -10.564,14.051 -16.524,26.165c-4.334,6.686 -9.345,15.602 -15.034,26.746c-4.717,7.223 -10.157,16.844 -16.32,28.863c2.084,-0.689 4.121,-1.317 6.113,-1.884c1.182,-2.845 7.09,-5.599 17.725,-8.261c1.826,0 9.561,-2.019 23.203,-6.058c3.008,0 11.763,-2.387 26.265,-7.16c2.864,0 8.056,-0.74 15.575,-2.22c-3.162,-1.289 -4.549,-3.593 -4.162,-6.913c-0.632,0 -0.677,-0.969 -0.135,-2.907l0.406,-1.163c1.806,-1.26 8.849,-2.81 21.129,-4.651c2.348,-3.101 8.126,-5.814 17.336,-8.14c0.286,0 1.306,-0.35 3.06,-1.05Zm-243.041,277.269c0.277,-0.459 0.498,-0.887 0.662,-1.286l1.611,-3.855l-0.646,0c-0.529,1.703 -1.071,3.417 -1.628,5.141Zm-129.374,-51.495l-0.135,0.581l1.625,0c0.542,0 1.264,-0.581 2.167,-1.744l0.271,-0.581l-1.625,0c-0.542,0 -1.309,0.581 -2.302,1.744Zm125.688,-126.171c-0.813,2.423 -3.386,4.167 -7.72,5.233l-10.7,18.606c-1.625,0 -5.734,7.946 -12.325,23.839c-7.404,11.241 -12.776,21.707 -16.117,31.397c-0.181,0.775 0.045,1.163 0.677,1.163c14.808,-4.652 25.643,-7.752 32.506,-9.303l2.302,-2.326l0.271,-0.581c1.174,-3.586 3.792,-9.206 7.855,-16.862c10.655,-34.111 13.002,-51.166 7.043,-51.166l-3.792,0Zm-120.677,122.683l-0.542,1.744l1.083,0c0.542,0 1.264,-0.581 2.167,-1.744l-0.948,-0.581c-0.813,0.388 -1.4,0.581 -1.761,0.581Zm-57.291,157.569l-0.542,1.744l1.083,0l0.542,-1.744l-1.083,0Zm-47.003,-310.631l1.084,0l-0.406,1.163l0.542,0l2.032,-1.163l-0.135,0.581c-3.612,10.66 -8.939,21.513 -15.982,32.56l-0.542,0c-0.903,0 -0.858,-1.744 0.135,-5.233c2.257,-3.489 3.612,-5.814 4.063,-6.977l1.896,-5.814c0.722,-2.132 3.16,-7.171 7.314,-15.117Zm86.687,52.62l0.542,0l-0.406,1.163c-2.201,4.728 -4.289,8.721 -5.011,8.721l-0.271,-1.163l0.406,-1.163c0.181,-0.388 1.761,-2.907 4.74,-7.559Zm257.775,-423.25c1.229,-0.158 2.139,0.645 5.66,1.129c-0.542,1.163 8.691,6.088 5.982,6.088l-15.734,-4.343c-0.722,0 -0.948,-0.388 -0.677,-1.163l0.135,-0.581c2.528,0 3.026,-0.922 4.633,-1.129Z" style="fill:#d91a4e;"/></g></svg>