<?xml version="1.0" encoding="UTF-8" standalone="no"?><!DOCTYPE svg PUBLIC "-//W3C//DTD SVG 1.1//EN" "http://www.w3.org/Graphics/SVG/1.1/DTD/svg11.dtd"><svg width="100%" height="100%" viewBox="0 0 1464 1092" version="1.1" xmlns="http://www.w3.org/2000/svg" xmlns:xlink="http://www.w3.org/1999/xlink" xml:space="preserve" xmlns:serif="http://www.serif.com/" style="fill-rule:evenodd;clip-rule:evenodd;stroke-linejoin:round;stroke-miterlimit:2;"><g id="BRAND-KO" serif:id="BRAND KO"><path id="outline" d="M450.552,353.747c-0.032,-1.199 -0.047,-2.404 -0.046,-3.617c0.035,-41.268 15.624,-75.902 37.572,-114.87c21.047,-37.368 47.983,-78.955 71.463,-135.466l6.823,-16.42l8.254,15.749c5.973,11.397 50.354,137.62 61.77,170.182c15.203,-4.432 50.762,-13.135 95.613,-13.135c44.851,0 80.41,8.703 95.613,13.135c11.416,-32.562 55.797,-158.785 61.77,-170.182l8.254,-15.749l6.823,16.42c23.48,56.511 50.416,98.098 71.463,135.466c21.948,38.968 37.538,73.601 37.572,114.87c0.001,1.213 -0.014,2.418 -0.046,3.617l7.603,14.509c3.626,6.919 10.616,13.168 18.782,18.287c12.8,8.023 28.628,13.251 40.843,12.72c11.926,-0.519 32.869,-12.374 48.804,-41.502c26.35,-48.165 37.584,-141.141 -21.605,-307.253l-16.788,-47.116l31.157,39.128c93.723,117.699 227.905,314.903 282.164,483.927c48.569,151.297 23.947,389.766 -16.276,512.442l-15.278,46.598l-0.972,-49.029c-1.246,-62.864 -7.752,-171.378 -34.676,-248.467c-8.67,-24.823 -19.414,-46.331 -32.981,-61.655c-12.542,-14.166 -27.489,-22.875 -45.548,-23.162c-63.627,-1.01 -95.605,59.014 -103.685,81.233l-10.11,27.801l-5.889,-28.99c-8.426,-41.48 -12.244,-99.84 -26.054,-150.819c-8.768,-32.365 -21.49,-61.751 -42.744,-81.085c-0.372,-0.203 -3.289,-1.794 -5.932,-3.15c-2.025,-1.039 -4.358,-2.257 -6.945,-3.704l-1.55,2.735c-8.966,15.823 -21.858,28.19 -35.114,38.273c1.476,0.064 3.001,0.146 4.57,0.251l19.435,1.296l-14.359,13.162c-39.22,35.952 -71.62,58.026 -99.401,79.815c-26.838,21.05 -49.251,41.793 -69.248,75.472c-17.883,30.119 -26.233,51.278 -34.09,65.968c-6.052,11.315 -12.028,19.159 -20.648,24.692c-13.319,8.548 -33.818,11.434 -74.916,10.977c-41.097,0.457 -61.596,-2.429 -74.916,-10.977c-8.62,-5.533 -14.596,-13.377 -20.648,-24.692c-7.857,-14.689 -16.207,-35.849 -34.09,-65.968c-19.997,-33.68 -42.41,-54.423 -69.248,-75.472c-27.781,-21.789 -60.181,-43.863 -99.401,-79.815l-14.359,-13.162l19.435,-1.296c1.57,-0.105 3.094,-0.187 4.57,-0.251c-13.256,-10.083 -26.148,-22.45 -35.114,-38.273l-1.55,-2.735c-2.587,1.447 -4.92,2.665 -6.945,3.704c-2.643,1.356 -5.56,2.947 -5.932,3.15c-21.255,19.334 -33.976,48.72 -42.744,81.085c-13.81,50.98 -17.629,109.339 -26.054,150.819l-5.889,28.99l-10.11,-27.801c-8.08,-22.219 -40.058,-82.243 -103.685,-81.233c-18.059,0.287 -33.006,8.996 -45.548,23.162c-13.567,15.323 -24.311,36.832 -32.981,61.655c-26.924,77.089 -33.43,185.603 -34.676,248.467l-0.972,49.029l-15.278,-46.598c-40.222,-122.676 -64.844,-361.145 -16.276,-512.442c54.259,-169.024 188.441,-366.228 282.164,-483.927l31.157,-39.128l-16.788,47.116c-59.19,166.113 -47.955,259.088 -21.605,307.253c15.935,29.128 36.878,40.984 48.804,41.502c12.215,0.531 28.043,-4.696 40.843,-12.72c8.166,-5.119 15.156,-11.367 18.782,-18.287l7.603,-14.509Zm281.448,495.017c96.473,1.084 72.565,-13.476 122.489,-97.557c41.191,-69.374 92.137,-85.634 170.183,-157.176c-16.26,-1.084 -27.635,0.229 -31.435,0c18.748,-11.745 41.787,-27.13 55.282,-50.947c-33.053,-9.85 -70.458,-99.725 -70.458,-99.725c17.822,-41.302 27.123,-65.091 27.099,-93.221c-0.067,-79.659 -61.133,-133.392 -108.397,-247.145c-6.819,13.012 -63.954,176.687 -63.954,176.687c0,0 -42.275,-15.176 -100.809,-15.176c-58.534,0 -100.809,15.176 -100.809,15.176c0,0 -57.135,-163.676 -63.954,-176.687c-47.264,113.754 -108.33,167.486 -108.397,247.145c-0.024,28.13 9.277,51.92 27.099,93.221c0,0 -37.405,89.875 -70.458,99.725c13.495,23.816 36.535,39.201 55.282,50.947c-3.8,0.229 -15.176,-1.084 -31.435,0c78.046,71.542 128.992,87.802 170.183,157.176c49.923,84.082 26.015,98.641 122.489,97.557Zm281.67,-476.64c0.216,5.279 -22.601,75.977 -22.601,75.977c0,0 19.739,46.188 36.855,63.548c23.09,23.418 44.041,30.024 47.695,33.331c56.112,50.793 57.45,167.204 71.542,236.578c8.672,-23.847 43.359,-87.802 111.649,-86.718c102.162,1.622 119.306,235.582 121.405,341.451c39.819,-121.445 64.341,-357.519 16.26,-507.298c-53.969,-168.119 -187.527,-364.214 -280.748,-481.283c100.809,282.916 -1.098,358.418 -34.687,359.878c-22.712,0.987 -56.801,-15.297 -67.368,-35.464Zm-563.34,0c-10.568,20.166 -44.656,36.451 -67.368,35.464c-33.589,-1.46 -135.496,-76.962 -34.687,-359.878c-93.221,117.069 -226.779,313.163 -280.748,481.283c-48.082,149.78 -23.559,385.853 16.26,507.298c2.099,-105.868 19.242,-339.829 121.405,-341.451c68.29,-1.084 102.977,62.87 111.649,86.718c14.092,-69.374 15.43,-185.785 71.542,-236.578c3.654,-3.307 24.605,-9.913 47.695,-33.331c17.116,-17.36 36.855,-63.548 36.855,-63.548c0,0 -22.817,-70.698 -22.601,-75.977Z"/><path id="fill" d="M450.33,372.124c-0.216,5.279 22.601,75.977 22.601,75.977c0,0 -19.739,46.188 -36.855,63.548c-23.09,23.418 -44.041,30.024 -47.695,33.331c-56.112,50.793 -57.45,167.204 -71.542,236.578c-8.672,-23.847 -43.359,-87.802 -111.649,-86.718c-102.162,1.622 -119.306,235.582 -121.405,341.451c-39.819,-121.445 -64.341,-357.519 -16.26,-507.298c53.969,-168.119 187.527,-364.214 280.748,-481.283c-100.809,282.916 1.098,358.418 34.687,359.878c22.712,0.987 56.801,-15.297 67.368,-35.464Zm281.67,476.64c-96.473,1.084 -72.565,-13.476 -122.489,-97.557c-41.191,-69.374 -92.137,-85.634 -170.183,-157.176c16.26,-1.084 27.635,0.229 31.435,0c-18.748,-11.745 -41.787,-27.13 -55.282,-50.947c33.053,-9.85 70.458,-99.725 70.458,-99.725c-17.822,-41.302 -27.123,-65.091 -27.099,-93.221c0.067,-79.659 61.133,-133.392 108.397,-247.145c6.819,13.012 63.954,176.687 63.954,176.687c0,0 42.275,-15.176 100.809,-15.176c58.534,0 100.809,15.176 100.809,15.176c0,0 57.135,-163.676 63.954,-176.687c47.264,113.754 108.33,167.486 108.397,247.145c0.024,28.13 -9.277,51.92 -27.099,93.221c0,0 37.405,89.875 70.458,99.725c-13.495,23.816 -36.535,39.201 -55.282,50.947c3.8,0.229 15.176,-1.084 31.435,0c-78.046,71.542 -128.992,87.802 -170.183,157.176c-49.923,84.082 -26.015,98.641 -122.489,97.557Zm281.67,-476.64c10.568,20.166 44.656,36.451 67.368,35.464c33.589,-1.46 135.496,-76.962 34.687,-359.878c93.221,117.069 226.779,313.163 280.748,481.283c48.082,149.78 23.559,385.853 -16.26,507.298c-2.099,-105.868 -19.242,-339.829 -121.405,-341.451c-68.29,-1.084 -102.977,62.87 -111.649,86.718c-14.092,-69.374 -15.43,-185.785 -71.542,-236.578c-3.654,-3.307 -24.605,-9.913 -47.695,-33.331c-17.116,-17.36 -36.855,-63.548 -36.855,-63.548c0,0 22.817,-70.698 22.601,-75.977Z" style="fill:#d91a4e;"/><g><g><path d="M301.219,703.563l-0.096,0.014c-0.408,-1.619 -10.831,-40.433 -22.497,-95.567c-5.501,-25.995 -7.606,-39.681 -8.14,-43.154c-14.18,-92.186 -10.309,-142.975 -10.048,-147.708c4.803,-87.286 26.528,-203.732 27.838,-210.869c5.651,-30.79 9.842,-50.231 9.844,-50.234c0.078,-0.117 0.275,-0.113 0.353,-0.229c-0.006,0.268 0.143,0.524 0.137,0.792c-0.01,0.45 -22.768,106.372 -30.342,207.218c-2.359,31.413 -2.7,49.13 -3.039,67.566c-1.136,61.865 9.627,125.677 11.797,141.066c7.946,56.346 15.837,93.305 24.713,129.045c0.2,0.806 0.52,2.033 0.463,2.082c-0.195,0.167 -0.419,0.299 -0.614,0.466l-0.37,-0.488Z"/><path d="M1162.396,703.949c-0.158,-0.135 -0.339,-0.243 -0.497,-0.378c-0.2,-0.171 10.885,-40.612 20.132,-96.185c2.581,-15.51 2.597,-15.951 6.905,-44.672c11.749,-78.321 10.616,-119.803 10.144,-141.155c-0.969,-43.857 -5.844,-112.696 -24.087,-215.149c-4.186,-23.507 -7.842,-41.687 -9.548,-49.815c-0.031,-0.146 -0.112,-0.291 -0.093,-0.439c0.014,-0.113 0.171,-0.173 0.186,-0.286c0.087,0.228 0.293,0.397 0.38,0.625c0.001,0.002 2.59,12.078 6.3,31.469c12.516,65.423 27.689,161.34 31.073,233.449c0.297,6.336 1.513,32.696 -2.153,75.994c-2.714,32.063 -6.987,60.155 -8.785,71.601c-1.406,8.953 -4.322,23.871 -4.727,25.941c-5.014,25.651 -14.04,66.976 -23.817,104.592c-0.526,2.025 -0.533,2.018 -1.036,4.016l-0.358,-0.049l-0.019,0.44Z"/><path d="M531.327,379.481c-27.967,-73.333 -10.563,-84.772 21.869,-178.102c7.604,-21.882 11.648,-35.292 11.704,-35.355c0.168,-0.188 0.497,-0.171 0.665,-0.358c-0.014,0.426 0.202,0.839 0.188,1.265c-0.009,0.283 -3.35,11.584 -3.647,12.589c-28.93,97.863 -47.847,115.128 -37.831,166.903c3.251,16.809 8.435,32.565 8.339,32.619c-0.395,0.222 -0.892,0.217 -1.287,0.439Z"/><path d="M932.673,379.481c-0.815,-0.278 -1.533,0.387 -1.287,-0.439c12.307,-41.354 14.427,-61.806 5.925,-92.323c-7.193,-25.82 -21.57,-58.182 -39.064,-119.788c-0.158,-0.557 -0.178,-0.551 -0.171,-0.601c0.057,-0.383 0.301,-0.28 0.358,-0.665c0.223,0.364 0.63,0.59 0.852,0.954c0.248,0.405 7.363,24.773 22.668,65.541c22.202,59.139 32.27,77.997 18.305,125.331c-2.803,9.502 -6.921,20.251 -7.587,21.989Z"/></g></g><path d="M311.47,591.981l-1.959,-1.921l-1.263,-2.309l-0.582,-2.154l-0.139,-2.401c0.055,-1.445 0.431,-3.613 1.384,-6.446c0.071,-0.212 0.151,-0.422 0.237,-0.629c5.728,-13.629 11.587,-26.697 17.576,-39.204c-2.37,-2.669 -3.03,-6.571 -1.453,-9.956l1.703,-3.655l0.231,-0.665c0.26,-0.849 0.272,-2.282 0.327,-4.271c0.036,-1.318 0.356,-2.613 0.939,-3.797l27.494,-55.848l4.681,-13.954c0.032,-0.096 0.066,-0.191 0.101,-0.286c0.967,-2.594 4.924,-9.205 12.16,-19.648c0.327,-0.862 0.69,-1.734 1.089,-2.614c-0.792,-0.086 -1.535,-0.151 -2.228,-0.195c-5.353,2.378 -11.148,4.071 -17.393,5.056c-2.465,0.389 -4.981,-0.244 -6.969,-1.752c-1.988,-1.508 -3.274,-3.762 -3.563,-6.24l-0.135,-1.163c-0.058,-0.498 -0.075,-0.998 -0.051,-1.497c-1.532,-1.239 -2.677,-2.978 -3.157,-5.043l-0.271,-1.163c-0.124,-0.53 -0.198,-1.061 -0.227,-1.587c-1.061,-0.032 -2.066,-0.049 -3.017,-0.049c-0.683,0.123 -2.834,0.516 -5.092,0.977c-3.231,0.66 -6.567,-0.466 -8.736,-2.948c-2.17,-2.483 -2.838,-5.94 -1.751,-9.053l0.406,-1.163c0.909,-2.602 2.94,-4.656 5.532,-5.594c23.961,-8.675 40.53,-12.757 49.576,-12.757l1.997,0c1.176,-0.693 5.297,-3.154 9.962,-6.336c0.456,-2.66 2.076,-5.048 4.521,-6.431c5.205,-2.945 9.3,-5.643 12.246,-8.155c1.648,-1.405 2.955,-2.44 3.338,-3.602l0.021,-0.064l6.095,-18.024l0.017,-0.05c2.602,-7.55 7.896,-16.066 16.129,-25.385l0.314,-5.845c0.029,-0.535 0.104,-1.066 0.226,-1.588l0.271,-1.163c0.08,-0.343 0.179,-0.681 0.298,-1.012l2.768,-4.586c1.727,-2.187 4.98,-5.818 9.781,-10.871c2.623,-5.647 9.238,-17.965 19.895,-36.925l2.432,-7.307c0.029,-0.086 0.058,-0.172 0.09,-0.257c1.075,-2.937 4.351,-8.565 10.086,-16.723l3.228,-9.752c0.235,-0.709 0.555,-1.386 0.954,-2.018c7.094,-11.22 16.455,-16.477 27.656,-16.477c2.043,0 3.957,0.675 5.502,1.835c5.861,-6.604 10.321,-10.48 13.109,-11.893c1.284,-0.651 2.703,-0.99 4.143,-0.99l1.625,0l4.439,0.706l3.366,1.815l1.876,1.862l1.368,2.219l1.079,4.355c0.088,1.515 -0.201,3.027 -0.842,4.403l-0.05,0.107c-1.756,5.158 -4.781,11.548 -9.148,19.132l-0.174,0.468c0.172,1.562 0.547,4.793 1.056,8.218c0.41,2.759 -0.459,5.553 -2.36,7.594c-3.215,3.45 -6.078,7.093 -7.258,8.63c0.052,1.231 0.155,3.224 0.335,5.237c0.107,1.192 -0.021,2.393 -0.376,3.536l-2.061,3.761c-1.241,1.589 -4.362,4.845 -9.427,9.7l-14.968,26.037c-1.801,3.458 -3.741,8.215 -5.863,14.254l-4.855,14.472l-0.061,0.177c-0.275,0.769 -2.017,4.125 -5.264,10.047c7.886,-1.762 13.833,-3.204 17.841,-4.333c1.238,-2.084 4.372,-7.492 7.058,-13.258c0.748,-1.606 1.925,-2.923 3.357,-3.842c1.411,-2.807 8.367,-16.875 14.796,-33.9c0.113,-0.3 0.243,-0.595 0.387,-0.881c4.241,-8.43 8.21,-13.719 11.352,-16.248l3.209,-1.833c1.224,-1.524 2.109,-2.819 2.539,-3.966l0.483,-1.555c0.029,-0.093 0.059,-0.186 0.091,-0.279c0.864,-2.495 1.329,-5.062 1.395,-7.699c0.037,-1.487 0.436,-2.943 1.162,-4.241l1.236,-2.211l0.55,-1.573c0.026,-0.075 0.053,-0.149 0.081,-0.223c6.824,-18.019 14.789,-28.398 22.264,-32.235c0.811,-0.416 1.663,-0.702 2.53,-0.861c0.938,-1.805 2.089,-4.082 3.268,-6.556c0.315,-0.661 0.708,-1.282 1.17,-1.849c6.214,-7.622 12.391,-10.351 17.125,-10.351c1.031,0 2.054,0.174 3.027,0.514c2.409,0.843 4.317,1.942 5.799,3.157l3.295,3.809l0.019,0.045c6.669,-10.65 12.271,-17.682 16.578,-21.262c2.065,-1.717 4.006,-2.849 5.734,-3.536l2.438,-0.743l2.799,-0.299c1.301,0 2.588,0.277 3.774,0.813l3.016,2.002l2.045,2.493l1.345,2.922c0.362,1.103 0.648,2.416 0.798,3.952c0.532,5.459 -1.035,15.854 -5.278,31.083c-0.006,0.215 -0.009,0.433 -0.008,0.647c0.98,0.466 1.878,1.105 2.646,1.897c5.511,-1.305 12.325,-3.258 20.447,-5.841c0.144,-0.046 0.29,-0.088 0.437,-0.127c6.166,-1.629 10.526,-2.423 13.039,-2.594l-0.322,-2.031l0.611,-4.073l-0.274,0.944l0.135,-0.581c0.945,-4.059 4.506,-6.958 8.649,-7.082c0.369,-0.206 0.753,-0.388 1.152,-0.543c2.105,-0.819 4.424,-0.827 6.514,-0.05c0.505,0.094 2.32,0.423 4.153,0.675c1.375,0.189 2.669,0.685 3.797,1.429c0.99,-0.485 2.075,-0.795 3.212,-0.896c9.845,-0.881 19.559,-1.987 29.142,-3.319c1.123,-1.39 2.2,-2.767 3.231,-4.13c0.481,-0.635 1.042,-1.205 1.67,-1.695c5.334,-4.163 9.689,-5.429 12.275,-5.429l0.542,0l2.605,0.364l2.351,1.03l2.012,1.638l1.588,2.257c0.447,0.867 0.984,2.773 1.202,5.739l17.387,2.434c0.228,0.032 0.454,0.072 0.679,0.121c11.517,2.507 19.64,4.849 24.403,6.899c3.308,1.424 5.502,2.96 6.8,4.248l2.066,2.7l0.205,0.524c8.038,7.638 12.379,15.869 13.231,24.626c3.264,-1.559 6.415,-2.929 9.45,-4.112c0.986,-1.188 2.278,-2.396 3.934,-3.558c3.047,-2.138 7.784,-4.35 14.314,-6.403c0.625,-0.196 1.268,-0.325 1.919,-0.384c0.868,-0.267 8.284,-2.566 17.139,-5.859c0.906,-0.337 1.86,-0.528 2.824,-0.567c0.621,-0.192 9.437,-2.94 18.945,-6.871c1.11,-0.459 2.3,-0.695 3.501,-0.695c3.802,0 12.882,-2.347 27.344,-6.604c0.1,-0.029 0.201,-0.057 0.302,-0.083c5.824,-1.5 9.191,-2.034 10.006,-2.034c1.269,0 6.477,0.979 15.537,3.314l2.083,-0.308c2.221,-0.329 4.485,0.169 6.363,1.399l6.781,4.441c1.322,0.408 2.588,0.923 3.795,1.548l0.482,-1.152l2.132,-2.414l2.647,-1.715l2.699,-0.916l0.202,-0.025l1.957,-0.461l2.762,-0.015c0.154,0.013 0.307,0.03 0.46,0.05l0.549,0.074c1.738,0.235 3.371,0.964 4.707,2.1c0.916,0.779 2.874,3.436 4.836,8.462c1.688,1.612 3.381,3.864 4.885,6.923c0.342,0.469 1.276,1.745 2.524,3.406c0.612,-0.554 1.301,-1.028 2.051,-1.403l3.237,-1.244l3.451,-0.582c0.98,-0.065 1.978,-0.049 2.992,0.055c0.667,-0.397 1.524,-0.926 2.264,-1.449c0.54,-0.381 1.12,-0.703 1.729,-0.959l3.611,-1.126l3.527,-0.156c0.579,0.063 1.151,0.181 1.707,0.353l2.774,1.123l2.13,1.402l2.274,2.55l0.964,2.094l0.411,-0.126c1.887,-1.019 4.062,-2.216 6.525,-3.588c0.529,-0.295 1.085,-0.536 1.661,-0.721c16.857,-5.41 27.269,-9.189 31.092,-11.713c1.058,-0.699 2.25,-1.17 3.499,-1.385c16.745,-2.874 25.891,-4.202 27.405,-4.202c18.154,0 33.954,6.456 47.369,19.441c1.139,1.102 1.972,2.48 2.419,4.001c2.15,7.314 5.821,15.606 10.947,24.907c0.837,1.518 1.226,3.242 1.122,4.971c-0.221,3.686 0.428,7.511 1.847,11.492c0.449,1.261 0.617,2.604 0.492,3.937c-0.516,5.48 -1.739,11.5 -3.701,18.04c-2.849,9.551 -9.067,21.22 -18.885,34.886c-0.214,0.398 -0.404,0.808 -0.564,1.206c0.028,0.67 0.074,1.633 0.134,2.566c0.099,1.539 -0.193,3.078 -0.847,4.474c-6.51,13.896 -13.873,25.992 -22.052,36.304c-7.622,12.093 -14.775,19.941 -20.962,23.993c-3.862,6.824 -8.693,13.19 -14.503,19.084c-2.947,5.857 -7.751,11.282 -14.615,16.099c-0.333,0.233 -0.68,0.445 -1.041,0.632c-2.655,1.378 -8.822,8.604 -19.219,21.01c-0.346,0.413 -0.728,0.794 -1.141,1.14c-4.291,3.593 -8.096,6.75 -11.412,9.473c21.438,-2.196 33.376,-3.279 35.813,-3.279l2.167,0c3.131,0 6.045,1.599 7.728,4.239c0.918,1.44 1.4,3.081 1.434,4.736l5.761,-0.757c0.396,-0.052 0.795,-0.078 1.194,-0.078l2.167,0c2.796,-0 5.439,1.276 7.178,3.466c1.738,2.19 2.382,5.054 1.748,7.777l-0.135,0.581c-0.105,0.45 -0.244,0.892 -0.415,1.321l-1.689,2.755l-2.919,2.317c-1.394,0.767 -4.849,1.947 -10.47,3.159c-5.222,2.44 -14.258,4.609 -27.168,6.199c0.145,0.97 0.135,1.961 -0.036,2.935c7.223,-3.001 14.777,-4.496 22.661,-4.496l0.671,0l5.175,0.793l2.673,1.204l2.457,1.849l1.96,2.354l1.33,2.582l1.087,5.073c0.153,2.399 -0.643,4.762 -2.216,6.579c-1.246,1.44 -2.444,2.9 -3.36,4.039c0.551,0.517 1.196,1.083 1.805,1.524c2.571,1.862 3.951,4.879 3.775,7.946c0.046,0.38 0.137,1.108 0.236,1.728c0.293,1.842 0.017,3.73 -0.791,5.411l-2.563,3.699c-1.144,1.222 -2.661,2.461 -4.617,3.633c-4.635,2.776 -12.764,5.523 -24.501,7.879c-0.136,0.101 -0.256,0.192 -0.351,0.265l-0.151,0.332c-0.091,1.043 -0.361,2.076 -0.813,3.054l-2.061,3.179c-0.842,0.991 -1.976,2.075 -3.454,3.194c-3.47,2.63 -9.614,5.905 -18.521,9.647c-10.471,10.548 -19.97,15.294 -27.671,15.641c-6.305,1.205 -15.339,6.283 -27.42,14.636c-2.904,2.19 -5.68,4.316 -8.299,6.347c5.691,-1.353 11.942,-2.779 18.754,-4.276c0.115,-0.025 0.231,-0.049 0.348,-0.069c4.173,-0.749 8.226,-1.31 12.16,-1.685c0.567,-0.054 1.138,-0.055 1.705,-0.003c6.885,0.631 20.436,3.442 40.626,8.54c9.35,1.195 16.414,3.172 21.263,5.651c5.583,2.854 8.873,6.591 10.489,10.58c1.705,4.209 1.789,9.018 -0.485,14.369c-0.76,2.606 -1.534,4.747 -2.292,6.434l-0.062,0.135c-4.129,8.806 -17.575,24.773 -40.818,47.485c-0.378,0.369 -0.787,0.705 -1.222,1.004c-5.978,4.099 -17.143,13.699 -33.556,28.729c-0.866,0.793 -1.868,1.405 -2.947,1.813c-0.572,0.299 -2.578,1.353 -4.837,2.606c-1.36,0.754 -2.89,1.15 -4.445,1.15l-0.671,0c-1.389,-0 -2.726,-0.313 -3.929,-0.885c-4.761,4.587 -10.524,9.025 -17.316,13.28c-4.681,6.192 -14.694,14.439 -30.476,24.2c-0.092,0.057 -0.186,0.113 -0.28,0.166c-7.658,4.369 -14.068,8.64 -19.209,12.844c-0.966,0.79 -2.084,1.375 -3.284,1.718c-1.447,0.413 -2.983,1.797 -4.956,3.657c-0.527,0.497 -1.111,0.93 -1.74,1.289l-4.235,1.647c-0.114,0.116 -0.232,0.229 -0.353,0.339c-4.465,4.062 -12.866,9.478 -25.319,16.056c-2.15,1.876 -4.952,3.621 -8.484,5.115c-1.13,0.478 -2.344,0.724 -3.571,0.724l-1.342,0c-2.86,-0 -5.525,-1.332 -7.244,-3.551c-15.113,9.753 -32.195,16.848 -51.266,21.245c-0.15,0.035 -0.302,0.066 -0.454,0.093c-16.906,3.008 -31.748,7.489 -44.508,13.504c-0.239,0.113 -0.482,0.215 -0.73,0.306c-5.333,1.972 -9.014,2.678 -10.896,2.678l-1.342,0c-4.056,-0 -7.629,-2.666 -8.785,-6.554c-1.155,-3.888 0.382,-8.073 3.78,-10.288c3.751,-2.446 9.424,-5.004 17.053,-7.581c-0.044,-0.118 -0.085,-0.237 -0.124,-0.357c-1.23,-3.772 0.107,-7.906 3.312,-10.244c3.399,-2.48 11.896,-6.289 25.66,-11.023l34.529,-19.12c1.011,-0.56 2.116,-0.922 3.256,-1.07c0.365,-0.169 1.573,-0.733 3.456,-1.64c0.086,-1.108 0.373,-2.206 0.866,-3.239l2.334,-3.293c0.756,-0.788 1.85,-1.756 3.324,-2.857c3.836,-2.863 11.18,-7.297 22.069,-13.23c7.229,-6.538 19.123,-14.601 35.765,-24.06c5.609,-5.717 13.133,-11.395 22.636,-16.949l0.606,-0.6c2.634,-2.293 9.872,-7.973 21.726,-17.021c3.732,-4.742 9.56,-10.867 17.53,-18.33c1.126,-1.78 2.097,-3.343 2.908,-4.691c-0.403,-0.241 -0.785,-0.512 -1.144,-0.809l-0.752,0c-1.068,0.345 -14.94,4.848 -31.425,11.468c-0.946,0.38 -1.948,0.599 -2.966,0.649c-0.986,0.048 -2.304,0.744 -4.122,1.615c-3.037,1.456 -6.762,3.612 -11.188,6.444c-0.39,0.25 -0.799,0.469 -1.222,0.657c-19.911,8.83 -34.303,12.915 -42.976,12.915l-2.013,0c-10.453,0 -17.43,-3.812 -21.558,-10.024c-3.433,-5.165 -4.997,-12.702 -3.516,-22.75c-0.769,-0.402 -1.8,-0.918 -2.966,-1.442c-5.654,8.574 -11.241,15.928 -16.742,22.072c-4.411,6.55 -7.54,11.989 -9.299,16.367c-0.857,2.133 -2.458,3.814 -4.433,4.793c-1.519,1.979 -9.478,12.469 -17.436,25.15l0.318,-0.662c-1.578,2.875 -6.12,9.63 -13.956,20.028c-4.541,7.867 -12.346,18.136 -23.505,30.738c-6.278,9.774 -11.181,18.192 -14.69,25.265c-0.967,1.949 -2.595,3.49 -4.594,4.348l-1.354,0.581c-1.7,0.73 -3.534,0.912 -5.274,0.592c-0.568,6.117 -2.895,17.768 -7.203,34.909c0.135,1.432 -0.165,4.547 -2.046,9.027l-0.006,0.021c-0.111,0.378 -0.245,0.748 -0.403,1.108l-1.628,2.648l-2.611,2.28l-3.081,1.307l-2.843,0.349c-0.09,0 -0.18,-0.001 -0.27,-0.004c-0.768,4.789 -1.581,9.919 -2.439,15.391c-0.117,0.746 -0.326,1.474 -0.621,2.169c-2.724,6.402 -4.082,17.877 -4.58,34.349c0.105,3.164 -0.547,6.489 -2.127,9.938c-1.003,2.19 -2.827,3.896 -5.078,4.752l-1.45,0.551c-2.516,0.956 -5.326,0.757 -7.683,-0.544c-2.357,-1.301 -4.022,-3.572 -4.555,-6.211c-0.604,-2.996 -0.373,-11.014 1.287,-24.018c0.114,-3.683 0.228,-7.188 0.343,-10.513c-0.232,0.018 -0.467,0.027 -0.703,0.027l-1.289,0c-4.269,-0 -7.973,-2.948 -8.931,-7.108c-0.237,-1.031 -0.439,-2.154 -0.604,-3.368l-1.084,1.871c-3.763,8.844 -6.587,14.948 -8.441,18.329c-1.609,2.935 -4.689,4.76 -8.036,4.76l-1.083,0c-2.615,-0 -5.106,-1.117 -6.845,-3.071c-1.739,-1.953 -2.561,-4.556 -2.258,-7.154c0.64,-5.496 1.404,-9.376 2.151,-11.666l0.061,-0.181l0.772,-2.207c2.216,-6.655 7.301,-17.061 15.369,-31.161c-0.786,-0.615 -1.477,-1.363 -2.036,-2.223c-1.691,-2.601 -1.951,-5.88 -0.691,-8.715c1.039,-2.338 2.059,-4.62 3.062,-6.847c-0.346,-3.247 -0.271,-8.869 0.587,-16.856c-0.383,-1.797 -0.571,-3.978 -0.435,-6.56c0.303,-5.768 2.279,-14.704 6.143,-26.754c2.317,-38.283 3.848,-69.747 4.59,-94.394c0.011,-0.381 0.047,-0.761 0.105,-1.137c0.198,-1.268 0.393,-2.477 0.584,-3.627c-1.025,0.458 -1.979,0.943 -2.863,1.459c-2.403,1.402 -4.196,2.912 -5.016,4.89c-0.052,0.126 -0.107,0.25 -0.165,0.374l-2.75,3.695c-2.361,2.426 -8.624,8.151 -18.809,17.15c-11.66,18.345 -26.5,38.803 -44.533,61.364c-6.142,10.94 -11.202,18.265 -14.974,22.112c-1.454,1.483 -2.819,2.584 -4.041,3.366l-1.511,1.544l-3.276,1.727l-3.152,0.484c-3.813,14.572 -5.985,22.591 -6.49,24.062c-0.751,2.208 -2.41,6.133 -5.014,11.753c-0.963,3.72 -1.763,6.541 -2.391,8.466c-0.064,0.195 -0.134,0.389 -0.211,0.579c-6.76,16.801 -10.86,27.299 -12.283,31.499c-0.834,2.462 -2.675,4.455 -5.064,5.48l-1.354,0.581c-1.142,0.49 -2.372,0.743 -3.615,0.743l-1.083,0c-1.372,-0 -2.703,-0.307 -3.908,-0.875l-0.966,2.821l-0.018,0.053l-1.62,3.063l-1.968,2.011l-3.276,1.727l-3.277,0.504c-4.786,0 -8.766,-3.683 -9.137,-8.455c-0.157,-2.025 -0.121,-4.101 0.118,-6.226l-0.487,0c-1.591,-0 -3.154,-0.414 -4.536,-1.201l-0.967,-0.551c-4.047,-2.305 -5.721,-7.278 -3.892,-11.561c1.797,-4.21 3.72,-8.472 5.769,-12.783l0.01,-0.065l-0.179,-0.036l-2.012,-1.179l-1.952,-1.987l-1.339,-2.571l-0.501,-2.53l0.144,-2.415l0.741,-2.403c0.055,-0.125 0.113,-0.249 0.173,-0.371c5.172,-10.487 11.465,-21.935 18.883,-34.342c0.434,-1.504 0.802,-2.864 1.102,-4.083c0.125,-0.509 0.294,-1.006 0.505,-1.486c0.552,-1.26 1.048,-2.426 1.486,-3.499l-1.702,-2.789l-0.733,-3.257c-0.201,-2.378 0.523,-7.596 2.851,-15.523c0.059,-0.201 0.125,-0.399 0.197,-0.596l13.395,-36.225c0.778,-2.905 1.594,-5.756 2.447,-8.553c-2.734,0.83 -5.908,1.743 -9.524,2.737c-0.927,0.721 -2.054,1.477 -3.411,2.234c-4.079,2.275 -11.4,5.401 -21.994,9.303l-0.663,0.804l-3.112,1.896l-2.218,0.403c-2.604,3.757 -9.233,13.581 -15.589,25.117c-0.484,0.878 -1.108,1.669 -1.846,2.344c-0.238,0.344 -2.26,3.289 -4.019,6.387c-4.008,7.059 -9.737,18.344 -17.2,33.847c-0.4,0.831 -0.924,1.598 -1.553,2.273c-2.98,3.199 -5.173,4.955 -6.28,5.595l-2.73,1.112l-2.3,0.281c-0.905,0 -1.8,-0.134 -2.656,-0.393c-5.11,8.876 -15.921,27.032 -32.533,54.408c-5.871,11.554 -10.05,18.393 -12.187,20.721l-3.696,2.808l-2.172,0.736l-2.015,0.213c-1.14,0 -2.27,-0.213 -3.332,-0.627l-1.954,-1.004l-1.831,-1.52l-1.44,-1.897l-0.92,-2l-0.59,-4.125l0.813,-4.322c0.024,-0.075 0.05,-0.15 0.076,-0.224c0.473,-1.331 3.443,-7.482 8.941,-18.436l-0.289,-0.109l-1.895,-1.275l-1.637,-1.808l-1.099,-2.061l-0.538,-1.964l0.155,-4.176c0.068,-0.291 0.15,-0.579 0.246,-0.862l2.167,-6.396c0.139,-0.411 0.308,-0.812 0.504,-1.199c4.447,-8.782 9.027,-18.519 13.741,-29.21c0.631,-1.432 1.601,-2.644 2.791,-3.561c1.007,-1.805 4.556,-8.276 8.131,-16.089c0.044,-0.16 0.092,-0.32 0.145,-0.477c0.333,-1.002 0.612,-2.296 0.879,-3.87c0.322,-1.9 1.235,-3.651 2.609,-5.002c2.689,-2.646 5.343,-7.743 8.406,-15.039c0.205,-0.489 0.453,-0.96 0.74,-1.406l10.868,-16.916c-1.836,-0.408 -3.515,-1.375 -4.795,-2.784c-5.293,2.407 -10.855,5.036 -16.686,7.886c-1.253,0.613 -2.63,0.931 -4.025,0.931l-1.625,0c-2.796,0 -5.439,-1.277 -7.178,-3.467c-0.325,-0.41 -0.612,-0.844 -0.86,-1.295l-0.673,0.294c-11.449,6.653 -19.605,10.957 -24.434,12.972c-3.64,1.518 -6.284,1.962 -7.758,1.962l-1.083,0c-2.969,-0 -5.754,-1.438 -7.473,-3.859c-1.719,-2.421 -2.158,-5.525 -1.179,-8.328l0.406,-1.163c0.777,-2.223 2.38,-4.062 4.476,-5.135c5.814,-2.976 20.389,-11.237 43.732,-24.772l0.063,-0.036l-0.1,-0.86c-0.122,-1.049 -0.062,-2.11 0.177,-3.138l0.135,-0.581c0.607,-2.608 2.325,-4.82 4.702,-6.055c8.479,-4.403 15.267,-7.393 20.33,-9.041c20.136,-11.343 35.256,-19.253 45.347,-23.757c0.864,-1.371 4.033,-6.5 6.493,-11.779c0.2,-0.43 0.434,-0.844 0.699,-1.238c4.37,-6.508 14.164,-23.361 29.413,-50.542c0.289,-0.515 0.627,-1.001 1.01,-1.451c4.262,-5.014 8.487,-12.447 12.831,-22.21c0.202,-0.454 0.441,-0.892 0.714,-1.307c20.223,-30.778 31.515,-49.006 33.52,-54.899c0.253,-0.745 0.602,-1.455 1.037,-2.111c1.99,-3.003 3.7,-5.918 3.949,-6.346l0.403,-1.154l1.099,-8.91c0.067,-0.541 0.182,-1.076 0.344,-1.597l1.058,-1.995c-3.347,0.856 -6.115,1.231 -8.283,1.231l-2.621,-0.326l-2.3,-0.907l-2.034,-1.487l-1.676,-2.124l-0.536,-1.282c-4.696,1.094 -10.174,2.623 -16.439,4.555c-1.035,0.319 -2.119,0.453 -3.201,0.394c-1.932,-0.105 -3.582,-0.261 -4.952,-0.447c-1.687,2.523 -3.318,4.47 -4.841,5.873c-0.827,0.762 -1.648,1.404 -2.452,1.937l-3.005,1.576l-2.372,0.698l-2.607,0.26c-0.099,0 -0.198,-0.002 -0.297,-0.005c-4.028,5.327 -9.283,13.719 -15.885,25.094c-0.301,0.518 -0.652,1.006 -1.048,1.456c-10.543,11.976 -21.51,27.264 -32.932,45.84c-0.229,0.372 -0.484,0.727 -0.763,1.063c-10.881,13.072 -17.117,20.65 -18.01,23.264c-0.519,1.519 -1.41,2.834 -2.551,3.857c-2.736,6.052 -4.945,9.543 -6.099,10.762l-3.531,2.473l-3.669,0.738c-4.26,0 -7.959,-2.936 -8.925,-7.085l-0.271,-1.163c-0.394,-1.692 -0.299,-3.462 0.274,-5.102l0.406,-1.163c0.101,-0.288 0.216,-0.571 0.344,-0.847c0.205,-0.441 1.943,-3.343 5.331,-8.632c0.407,-0.635 0.885,-1.21 1.421,-1.716c0.226,-0.614 0.518,-1.202 0.87,-1.754c1.466,-2.301 2.918,-4.585 4.355,-6.852c-1.53,-0.578 -2.898,-1.563 -3.94,-2.876c-1.738,-2.19 -2.382,-5.054 -1.747,-7.777l0.135,-0.581c0.08,-0.343 0.179,-0.681 0.298,-1.012c1.434,-4.002 7.038,-13.679 17.086,-28.859c2.534,-4.876 10.092,-17.032 22.735,-36.43l-1.074,2.286l1.773,-3.476c1.503,-2.259 5.466,-7.532 11.91,-15.8c1.122,-2.728 3.148,-6.728 6.104,-11.984c-1.106,-2.42 -1.142,-5.281 0.088,-7.816c2.273,-4.683 7.111,-13.196 14.544,-25.518c2.865,-7.716 11.061,-21.752 24.873,-41.939c0.252,-0.369 0.531,-0.718 0.834,-1.046c10.308,-11.15 17.282,-20.079 20.725,-26.942l1.748,-5.161c1.861,-10.747 3.054,-19.87 3.569,-24.07l-0.577,-0.774l-1.109,-2.531c-0.66,-2.079 -0.897,-4.904 -0.252,-8.431c-1.149,1.961 -2.351,4.049 -3.607,6.265l-0.92,3.95c-0.253,1.085 -0.702,2.116 -1.324,3.04c-12.39,18.397 -19.467,29.566 -20.825,33.755l-0.052,0.155l-4.184,12.168c-1.73,5.139 -7.018,14.579 -16.137,28.157c-1.83,4.243 -7.351,15.275 -16.66,33.046c-0.11,0.21 -0.228,0.415 -0.353,0.615l-24.427,38.965c-3.851,8.714 -7.233,13.717 -9.305,15.496l-3.302,2.02l-3.778,0.726c-0.432,0 -0.862,-0.031 -1.286,-0.091c-2.356,4.199 -8.618,13.982 -19.025,29.192c-1.959,4.142 -7.519,14.041 -16.853,29.597c-1.149,3.231 -2.243,5.618 -3.191,7.2c-1.655,2.764 -4.64,4.455 -7.862,4.455l-1.625,0c-2.745,-0 -5.346,-1.231 -7.086,-3.353c-1.741,-2.123 -2.438,-4.914 -1.901,-7.606l0.813,-4.07c0.045,-0.226 0.099,-0.451 0.161,-0.673c0.312,-1.118 1.833,-4.408 4.854,-9.719l1.452,-5.755c0.236,-0.936 0.618,-1.828 1.133,-2.644c3.51,-5.569 7.747,-14.948 12.805,-28.092c-0.707,-0.97 -1.231,-2.09 -1.517,-3.317l-0.677,-2.907c-0.397,-1.706 -0.298,-3.489 0.287,-5.14c2.485,-7.013 8.589,-20.214 18.375,-39.568c0.476,-1.224 1.256,-2.925 2.34,-5.103c-0.051,-0.075 -0.101,-0.15 -0.15,-0.226c-0.089,-0.117 -0.175,-0.236 -0.258,-0.358c-1.708,-2.496 -2.075,-5.674 -0.981,-8.493c0.459,-1.181 5.659,-11.749 15.664,-31.666c2.215,-6.121 7.635,-15.632 16.505,-28.392c0.166,-0.239 0.343,-0.469 0.53,-0.69c0.532,-1.176 4.555,-10.139 8.83,-21.682c0.247,-0.667 0.571,-1.303 0.965,-1.895c0.593,-0.891 1.162,-1.753 1.706,-2.587c-4.799,1.837 -10.194,4.27 -16.199,7.256c-1.678,2.203 -4.198,4.94 -7.706,8.074c-1.492,3.981 -3.093,7.267 -4.746,9.884c-0.012,0.315 -0.007,0.668 -0.007,1.057c0,1.833 -0.55,3.624 -1.578,5.141c-3.107,4.584 -5.524,8.521 -5.929,9.183l-2.463,7.236l-0.059,0.169c-0.706,1.949 -3.166,6.016 -7.732,11.962l-0.763,3.275c-0.198,0.85 -0.516,1.667 -0.945,2.427c-3.05,5.401 -4.895,8.676 -5.347,9.925c-0.084,0.402 -0.721,3.46 -1.325,6.915c-0.344,1.969 -1.322,3.772 -2.786,5.133c-2.211,2.056 -4.607,7.313 -7.923,15.38c-0.153,0.371 -0.329,0.732 -0.529,1.08l-43.747,76.168c-0.194,0.337 -0.407,0.659 -0.638,0.964l-0.009,0.039c-0.068,0.291 -0.15,0.579 -0.246,0.862c-3.831,11.307 -9.464,22.828 -16.934,34.546c-1.683,2.64 -4.597,4.238 -7.728,4.238l-0.542,0l-3.168,-0.528l-0.141,-0.08c-2.706,4.046 -5.799,8.533 -9.284,13.456c-1.292,3.042 -4.222,9.745 -8.833,20.093c-1.473,3.305 -4.752,5.434 -8.371,5.434l-1.083,0c-2.969,-0 -5.754,-1.438 -7.473,-3.86c-1.719,-2.421 -2.158,-5.525 -1.178,-8.328l0.397,-1.137c0.991,-2.897 1.948,-5.174 2.814,-6.854c2.758,-10.074 4.295,-15.832 4.457,-17.312c0.078,-0.714 0.24,-1.417 0.483,-2.093c0.25,-0.696 3.151,-6.42 8.731,-17.16Zm563.292,-320.887c2.034,-1.15 3.942,-2.43 5.722,-3.846c1.007,-0.801 2.173,-1.382 3.419,-1.703c11.907,-3.067 21.826,-8.283 29.685,-15.781c0.178,-0.17 0.363,-0.333 0.555,-0.488c1.432,-1.16 2.804,-2.34 4.068,-3.469c-3.977,0.925 -6.93,1.757 -8.057,2.085c-1.705,1.949 -4.2,3.132 -6.899,3.132c-4.016,0 -10.277,3.482 -19.317,9.314c-1.563,1.763 -3.903,3.639 -7.254,5.329l-1.167,3.507l-0.044,0.129c-0.182,0.521 -0.419,1.119 -0.711,1.792Zm-74.991,26.81c-0.933,0.151 -1.745,0.216 -2.431,0.216c-1.573,0 -3.119,-0.405 -4.489,-1.175c-4.033,3.35 -9.233,7.347 -15.632,11.953l-0.073,0.21l9.892,6.016c0.478,0.289 0.942,0.586 1.393,0.893c3.488,-5.481 7.268,-11.518 11.34,-18.113Zm-194.125,339.236l2.567,0.496c-0.802,-0.344 -1.65,-0.553 -2.534,-0.645c-0.011,0.05 -0.023,0.099 -0.034,0.148Zm42.933,-26.519c-1.56,0.289 -2.861,0.413 -3.894,0.413c-1.311,0 -2.607,-0.281 -3.801,-0.825l-3.61,-2.197l-2.72,-3.231l-0.132,-0.355c-1.469,0.802 -3.013,1.676 -4.634,2.617c-0.082,0.048 -0.165,0.094 -0.248,0.139c-2.639,1.424 -5.025,2.21 -7.099,2.549c-4.357,15.19 -7.162,25.751 -8.376,31.693c1.219,1.359 2.5,3.188 3.753,5.542c0.38,0.1 0.747,0.199 1.102,0.297c0.048,-0.058 0.097,-0.116 0.146,-0.173c7.638,-8.818 17.474,-20.975 29.512,-36.468Zm28.11,-65.216l-1.207,-1.529l-0.977,-2.337l-0.332,-2.098l0.611,-4.072c0.038,-0.11 0.079,-0.219 0.121,-0.327c5.324,-13.558 12.065,-28.642 20.23,-45.248c0.42,-1.556 0.811,-2.974 1.172,-4.255c-2.006,-2.406 -2.692,-5.745 -1.633,-8.839c2.153,-6.291 4.942,-13.19 8.372,-20.695l-7.475,6.067c-0.533,0.433 -1.11,0.801 -1.717,1.102c-1.122,0.94 -6.075,5.118 -11.521,10.145c-1.124,1.038 -2.49,1.777 -3.973,2.152c-4.159,1.05 -10.87,4.325 -20.249,9.577c-0.098,0.055 -0.197,0.108 -0.297,0.159l0.135,0.942c0.134,4.178 -0.905,11.512 -3.399,21.958c-0.076,0.317 -0.168,0.63 -0.277,0.937c-0.845,2.381 -4.631,7.573 -12.157,14.889c0.713,1.372 1.759,3.298 2.873,5.063c0.357,0.566 0.652,1.17 0.877,1.8c0.797,2.223 1.227,4.944 1.068,8.192c-0.041,0.832 -0.195,1.654 -0.458,2.444c-0.502,1.51 -3.746,6.912 -10.211,15.891l-0.082,0.361c7.038,-3.113 18.527,-6.45 34.544,-9.755c2.02,-0.885 4.006,-1.726 5.96,-2.523Zm58.688,-53.787c-1.011,1.903 -2.039,3.92 -3.086,6.049c-0.159,0.323 -0.337,0.637 -0.533,0.939c-4.201,6.481 -9.048,15.127 -14.562,25.928c-0.148,0.29 -0.311,0.572 -0.49,0.845c-1.016,1.556 -2.066,3.226 -3.15,5.011l0.769,-0.195c0.581,-0.145 1.174,-0.233 1.771,-0.263c0.683,-0.164 9.957,-2.407 21.056,-5.692c0.845,-0.25 1.721,-0.377 2.601,-0.377c2.689,0 10.433,-2.433 23.4,-6.7c0.925,-0.304 1.892,-0.459 2.865,-0.459c0.521,0 1.128,-0.031 1.822,-0.091l-0.078,-0.324l0.707,-4.928c0.052,-0.187 0.111,-0.373 0.175,-0.556l0.406,-1.163c0.636,-1.819 1.828,-3.391 3.408,-4.493c2.007,-1.4 9.313,-3.675 22.167,-5.754c3.466,-2.747 8.851,-5.444 16.388,-7.62c0.854,-4.867 2.15,-10.719 3.901,-17.553c1.957,-40.574 3.249,-73.912 3.875,-100.012c0.007,-0.304 0.03,-0.608 0.067,-0.91c0.14,-1.126 0.278,-2.207 0.413,-3.243c-1.656,1.372 -2.834,2.983 -3.474,4.921c-0.036,0.11 -0.075,0.219 -0.115,0.327l-2.198,3.667c-1.986,2.564 -7.254,8.612 -15.825,18.124c-9.802,19.377 -22.285,40.989 -37.458,64.829c-5.591,12.513 -10.176,20.584 -13.448,24.382c-0.837,0.972 -1.64,1.757 -2.385,2.38l-2.133,1.492l-3.033,1.229l-2.672,0.333l-1.151,-0.12Zm-40.399,-108.226c0.071,-0.048 0.143,-0.095 0.215,-0.14c7.23,-4.569 14.34,-12.816 21.65,-24.455c0.456,-0.726 1.012,-1.385 1.651,-1.957c1.558,-1.393 3.007,-2.72 4.346,-3.981c-1.943,1.198 -4.025,2.519 -6.246,3.962c-1.392,0.904 -3.001,1.412 -4.656,1.473c-0.309,0.21 -1.788,1.236 -2.673,2.17c-1.75,1.847 -3.538,4.329 -5.42,7.407c-0.405,0.663 -0.887,1.263 -1.431,1.791c-0.219,1.024 -0.616,2.018 -1.188,2.935c-2.125,3.403 -4.208,7.002 -6.248,10.796Zm-153.575,281.115c4.739,-1.373 8.79,-2.476 12.152,-3.313c1.442,-3.693 3.826,-8.747 7.197,-15.14c4.137,-13.302 6.965,-23.861 8.442,-31.69l-7.17,12.468c-0.627,1.09 -1.458,2.019 -2.43,2.751c-1.118,2.124 -5.33,10.28 -9.374,20.03c-0.222,0.535 -0.494,1.047 -0.812,1.53c-3.027,4.596 -5.697,9.049 -8.005,13.364Zm198.606,25.347c1.27,-2.111 2.624,-4.389 4.063,-6.831c0.348,-0.592 0.762,-1.142 1.234,-1.641c3.319,-3.513 6.221,-6.976 7.848,-8.971c-0.054,-0.261 -0.092,-0.487 -0.116,-0.677l0.163,-3.582c0.214,-0.917 0.567,-1.795 1.049,-2.605c3.108,-5.226 8.037,-11.695 14.816,-19.383c-7.779,2.509 -13.899,4.805 -18.349,6.912c-2.015,0.954 -4.143,2.32 -4.953,2.854c-2.274,6.478 -4.117,17.799 -5.754,33.923Zm-5.006,-104.285c3.815,-1.469 7.311,-3.202 10.482,-5.21c0.938,-0.594 1.975,-1.012 3.062,-1.235c14.612,-2.996 26.777,-8.069 36.42,-15.394c0.186,-0.141 0.377,-0.275 0.573,-0.402c0.963,-0.622 1.903,-1.248 2.809,-1.867c-5.717,1.064 -9.934,2.059 -11.29,2.388c-1.677,1.621 -3.947,2.575 -6.369,2.575c-5.145,0 -13.419,3.403 -25.114,9.407c-1.865,1.648 -4.597,3.394 -8.412,4.896l-0.043,0.039l-1.32,3.159l-0.064,0.149c-0.194,0.441 -0.438,0.94 -0.735,1.495Zm337.39,-254.139c0.034,-0.123 0.071,-0.245 0.11,-0.367c0.431,-1.337 6.608,-10.811 19.159,-27.989l0.002,-0.007l1.986,-8.026c0.199,-0.805 0.506,-1.579 0.914,-2.301c2.361,-4.186 4.13,-7.554 5.256,-10.134l-0.208,-0.671c-0.5,-3.046 -0.21,-9.665 1.362,-19.82c0.063,-0.407 0.154,-0.81 0.271,-1.205l2.416,-8.14l0.044,-0.145c0.254,-0.806 0.536,-1.499 0.247,-2.107c-0.198,-0.418 -0.526,-0.75 -0.944,-1.047c-0.043,0.122 -0.082,0.241 -0.115,0.353c-0.256,0.871 -0.64,1.699 -1.139,2.456l-5.177,7.858c-0.04,0.146 -0.084,0.292 -0.132,0.436c-0.244,0.739 -0.456,1.81 -0.514,2.113c0.313,2.002 -0.047,4.056 -1.029,5.838c-1.267,2.298 -2.243,4.437 -2.894,6.433l-2.368,7.977c-0.599,2.064 -4.642,9.872 -12.484,23.228l-4.395,14.704l0.402,1.375c0.245,2.101 0.051,5.174 -0.769,9.187Zm-1.512,6.008c0.164,-0.331 0.321,-0.663 0.472,-0.994l0.713,-2.277c-0.018,-0.561 0.016,-1.122 0.1,-1.676c-0.34,1.525 -0.765,3.174 -1.286,4.947Zm-327.809,-69.919c3.608,-3.086 8.177,-7.381 13.761,-12.821c1.788,-2.429 3.083,-4.639 3.764,-6.701l0.05,-0.146l1.193,-3.416c-1.502,-0.063 -2.988,-0.095 -4.46,-0.095l-1.849,0l-0.27,1.352c-0.627,3.142 -2.817,5.638 -5.663,6.747c-0.969,1.801 -4,7.621 -6.021,13.585l-0.505,1.495Zm291.452,5.759c-2.08,0.62 -4.295,1.238 -6.655,1.85c0.018,0.091 0.034,0.183 0.049,0.275c0.853,5.239 1.325,8.251 1.424,9.035l0.021,0.179l0.264,-1.111c0.025,-0.107 0.053,-0.214 0.082,-0.32c0.383,-1.393 1.999,-4.547 5.145,-9.278l-0.331,-0.63Zm-35.214,61.154c-0.177,-0.268 -0.364,-0.522 -0.563,-0.762l-0.053,0.032c0.217,0.232 0.423,0.475 0.616,0.73Zm-8.312,-51.764c-1.133,-2.794 -1.704,-4.422 -1.76,-4.862l-0.164,-1.292c-0.196,-0.352 -0.394,-0.721 -0.592,-1.1c-0.901,0.075 -1.749,0.111 -2.54,0.11c-1.557,0.407 -2.918,0.727 -4.083,0.966c-2.631,2.23 -5.693,4.618 -9.189,7.161l-0.247,0.257c-0.638,0.507 -1.731,1.256 -3.318,2.19l-0.789,0.671l-4.649,1.814c-0.508,0.116 -1.025,0.187 -1.544,0.215c-0.362,0.27 -0.746,0.554 -1.152,0.852l-0.002,0.002c-0.938,1.269 -1.853,2.416 -2.736,3.438c-14.8,18.343 -30.877,31.32 -48.088,39.104c-0.18,0.081 -0.363,0.157 -0.548,0.227c-8.967,3.375 -15.885,6.405 -20.73,9.141c-1.991,1.125 -4.227,2.863 -4.918,3.413c-2.067,7.208 -3.742,20.229 -5.205,39.038c1.836,12.946 2.736,24.252 2.767,33.917c2.704,-3.481 4.869,-6.853 6.469,-10.132c0.619,-1.27 1.524,-2.38 2.643,-3.242c0.161,-0.124 0.32,-0.238 0.468,-0.351c-0.434,-2.214 -0.037,-4.526 1.14,-6.484c5.292,-8.799 14.102,-21.407 26.458,-37.804c4.958,-8.733 8.981,-16.052 12.066,-21.959c0.595,-1.139 1.423,-2.141 2.431,-2.939c2.579,-2.044 5.042,-4.565 6.198,-5.792l0,-5.768c0,-2.311 0.873,-4.536 2.444,-6.23c1.102,-1.188 2.186,-2.451 2.916,-3.321c0.319,-1.902 1.233,-3.663 2.621,-5.025c5.329,-5.226 11.859,-8.199 19.648,-8.768c2.279,-1.807 5.092,-5.339 8.788,-10.268c0.4,-0.534 0.858,-1.023 1.364,-1.457c4.064,-3.487 7.58,-5.11 10.12,-5.608c0.581,-0.114 1.172,-0.171 1.764,-0.171c0.678,0 1.327,0.02 1.948,0.058Zm-10.669,81.397c-0.921,1.263 -2.2,3.079 -3.393,4.978l-1.719,4.494c-0.568,1.512 -4.202,7.327 -11.26,17.206l-2.295,9.41c-0.074,0.302 -0.162,0.599 -0.266,0.892c-0.695,1.961 -5.362,8.341 -14.831,18.448c-3.024,5.458 -11.692,19.288 -26.196,41.365c-0.567,0.948 -1.151,1.909 -1.75,2.883c6.346,-1.39 13.455,-2.876 21.327,-4.455c2.822,-1.881 5.974,-3.927 9.455,-6.137c1.733,-2.157 3.832,-4.516 6.301,-7.075c-1.069,-2.617 -0.91,-5.683 0.668,-8.259c2.712,-4.427 7.231,-8.984 13.78,-13.429c1.717,-2.606 3.299,-4.771 4.727,-6.506l0.057,-0.223c0.034,-0.133 0.071,-0.265 0.111,-0.396c1.815,-5.969 3.836,-12.029 6.061,-18.177c0.355,-2.341 0.761,-4.088 1.141,-5.242c0.936,-2.919 4.588,-10.568 11.173,-22.838l0.808,-2.583c0.424,-1.516 0.952,-5.106 1.702,-10.751c0.149,-1.119 0.502,-2.2 1.044,-3.191c7.642,-13.976 13.36,-25.118 14.431,-27.213c0.51,-3.241 0.982,-5.975 1.407,-8.201l-0.364,-0.295c-0.591,-0.634 -1.668,-2.127 -2.824,-4.689c-1.029,-1.524 -2.105,-3.614 -3.141,-6.305c-1.774,-0.33 -3.389,-1.172 -4.663,-2.392c-0.709,1.087 -1.335,2.057 -1.844,2.853c0.791,0.197 1.499,0.431 2.126,0.689l2.897,1.632l2.707,2.822l1.273,2.469l0.636,2.598l0.025,2.878l-0.847,3.535c-0.061,0.163 -0.126,0.325 -0.195,0.484l-1.35,2.211l-1.733,1.71c-0.9,0.732 -2.881,2.056 -5.972,3.928c0.118,0.201 0.238,0.4 0.358,0.591c1.181,1.895 1.616,4.132 1.273,6.289c-0.028,2.454 -1.042,4.85 -2.907,6.593c-6.598,6.165 -10.691,10.01 -11.625,12.146c-1.036,2.371 -3.027,4.194 -5.48,5.018c-0.274,0.092 -0.551,0.171 -0.831,0.236Zm-166.001,-112.262c-0.582,-0.104 -1.153,-0.265 -1.705,-0.479l0.563,0.883c0.373,-0.133 0.754,-0.268 1.142,-0.405Zm-152.159,-4.022c-1.016,0.031 -2.01,0.047 -2.983,0.047l-8.435,0c-2.56,0.958 -5.424,0.726 -7.803,-0.651c-2.313,-1.339 -3.917,-3.614 -4.412,-6.219c-1.808,2.84 -2.973,4.869 -3.46,6.108l-0.007,0.028c-0.015,0.89 -0.123,8.065 0.222,16.791c0.031,0.787 -0.039,1.574 -0.21,2.343c-2.323,10.49 -2.949,19.598 -1.667,27.337l-0.056,-0.19c0.065,0.314 0.126,0.652 0.181,1.016c2.033,-2.475 4.371,-5.344 7.02,-8.6c0.243,-0.299 0.505,-0.582 0.783,-0.848c1.644,-1.569 2.929,-3.076 3.715,-4.622c0.192,-4.982 0.762,-8.565 1.482,-10.775c0.073,-0.225 0.155,-0.447 0.246,-0.665c1.657,-4.002 5.8,-9.098 12.985,-14.758c0.024,-0.937 0.193,-1.876 0.51,-2.783c0.288,-0.824 0.873,-2.038 1.888,-3.558Zm47.574,604.78l-0.004,0.027c0.665,0.148 1.377,0.225 2.139,0.225c-0.726,0 -1.442,-0.086 -2.135,-0.252Zm-179.08,24.117l-0.04,0.118c1.047,0.387 2.23,0.579 3.547,0.579c-1.22,0 -2.409,-0.243 -3.507,-0.697Zm458.756,-365.434c-0.572,0.079 -0.987,0.119 -1.245,0.119l-7.171,-0.001c-7.138,3.228 -13.091,4.652 -17.75,4.652c-1.641,0 -5.189,1.064 -10.735,2.843c-5.707,6.169 -12.518,9.744 -20.401,10.787c-2.708,3.342 -5.601,5.364 -8.412,6.407c-2.264,2.749 -4.998,6.921 -8.231,12.5c11.059,-6.703 23.01,-13.215 35.854,-19.533c9.903,-6.507 22.589,-12.458 38.092,-17.775Zm-563.816,-30.431c-0.054,-0.871 0.017,-1.76 0.222,-2.643c-0.225,0.964 -0.282,1.843 -0.222,2.643Zm642.333,60.787l-0.345,0.759c-0.177,0.39 -0.381,0.766 -0.611,1.127c0.413,-0.65 0.727,-1.279 0.956,-1.886Zm-508.863,-68.578c5.474,-1.246 9.602,-2.131 12.378,-2.683c0.898,-0.648 1.972,-1.322 3.244,-1.994c3.968,-2.095 10.875,-4.818 20.752,-8.08c0.976,-1.063 2.822,-3.108 4.67,-5.34c0.896,-1.082 2.016,-1.929 3.265,-2.497c-0.127,-0.371 -0.262,-0.741 -0.401,-1.094c-1.494,-3.797 -0.294,-8.108 2.906,-10.592c0.237,-0.333 2.19,-3.092 3.546,-5.595c3.593,-6.631 8.208,-17.059 13.881,-31.267c0.185,-0.463 0.408,-0.911 0.666,-1.338c7.053,-11.682 13.147,-24.018 18.285,-37.008c0.126,-0.317 0.269,-0.628 0.429,-0.929c1.088,-2.048 2.154,-4.124 3.197,-6.227l-0.163,0.176l-0.224,0.477c-0.599,0.982 -1.413,2.078 -2.486,3.257c-2.623,2.882 -7.367,6.745 -14.347,11.445c-0.277,0.314 -0.492,0.668 -0.645,1.068l-0.9,2.76c-0.901,2.764 -3.032,4.873 -5.667,5.803c-1.349,1.705 -7.166,9.2 -12.327,18.062c-0.225,0.386 -0.478,0.756 -0.757,1.106c-25.351,31.757 -39.712,51.602 -42.481,59.959c-0.251,0.757 -0.6,1.479 -1.037,2.146c-1.374,2.094 -3.301,4.889 -5.783,8.387Z"/><path d="M575.416,292.448c-10.722,21.317 -17.791,34.689 -21.205,40.115c-3.883,5.136 -9.074,13.47 -15.576,25.002l-1.219,5.233c-13.183,19.575 -20.497,31.591 -21.941,36.049l-4.199,12.21c-1.625,4.845 -6.817,13.761 -15.576,26.746c-0.903,2.616 -6.456,13.664 -16.659,33.142l-24.785,39.537c-3.883,8.915 -6.637,13.373 -8.262,13.373l-0.948,-0.581c1.354,-3.876 6.501,-13.761 15.44,-29.653c0.993,-2.713 7.946,-15.117 20.858,-37.212c5.327,-10.466 9.165,-19.187 11.512,-26.165l0.813,-2.326l-0.542,0c-1.083,0 -4.244,5.039 -9.481,15.117c-8.939,10.272 -24.47,38.568 -46.591,84.889c-0.632,1.841 -7.088,11.726 -19.368,29.653c-0.813,2.423 -6.546,12.501 -17.201,30.235c-0.993,2.907 -1.896,5.039 -2.709,6.396l-1.625,0l0.813,-4.07c0.271,-0.969 1.806,-3.876 4.605,-8.722l1.761,-6.977c4.154,-6.59 9.345,-18.218 15.576,-34.886c3.16,-4.361 8.578,-14.439 16.253,-30.235c10.113,-14.923 20.497,-33.336 31.151,-55.236l0.677,-1.744l-1.083,0c-5.959,5.717 -10.474,13.082 -13.544,22.094c-12.099,19.866 -18.781,30.525 -20.045,31.979c-1.174,0.388 -2.077,1.551 -2.709,3.489l-1.49,4.07c-6.862,14.73 -10.971,22.094 -12.325,22.094l-0.677,-2.907c2.438,-6.88 8.488,-19.866 18.149,-38.956c1.806,-5.33 12.325,-24.129 31.557,-56.399c1.084,-2.035 1.941,-3.973 2.573,-5.814l0.135,-0.581l-1.625,0c-17.336,28.975 -27.72,45.255 -31.151,48.84c0.09,-0.388 -0.045,-0.581 -0.406,-0.581c0.451,-1.163 5.643,-11.629 15.576,-31.397c1.896,-5.621 7.088,-14.536 15.576,-26.746c1.354,-1.163 4.831,-9.303 10.429,-24.42c5.869,-8.818 9.481,-15.214 10.835,-19.187l0.542,-1.744c-8.849,0 -22.077,4.458 -39.684,13.373c-0.632,1.841 -3.747,5.136 -9.345,9.884c-1.716,5.039 -3.567,8.915 -5.553,11.629c-0.361,1.163 -0.542,2.713 -0.542,4.651c-4.334,6.396 -6.637,10.078 -6.907,11.047l-2.573,7.559c-0.632,1.744 -3.16,5.427 -7.585,11.047l-1.219,5.233c-3.612,6.396 -5.643,10.272 -6.095,11.629c-0.271,0.775 -0.813,3.489 -1.625,8.14c-2.709,2.52 -6.095,8.722 -10.158,18.606l-43.747,76.168l-1.083,0l0.406,-1.163l-1.083,0c0,0.194 -0.451,0.969 -1.354,2.326l-1.083,0c13.092,-27.715 20.632,-44.577 22.618,-50.585l0.271,-0.581l-1.084,0c-5.869,9.691 -10.745,19.187 -14.627,28.49c-0.271,0.097 -2.528,4.167 -6.772,12.21c-0.09,0.291 -0.451,1.841 -1.083,4.651c-1.806,5.33 -5.553,12.695 -11.241,22.095c-1.806,5.33 -9.345,17.346 -22.619,36.049c-0.181,0.581 -3.25,7.559 -9.21,20.932l-1.083,0l0.406,-1.163c0.993,-2.907 1.896,-5.039 2.709,-6.396c3.16,-11.532 4.831,-18.121 5.011,-19.769c0.451,-1.26 9.842,-19.284 28.171,-54.073c3.341,-6.687 6.23,-13.664 8.668,-20.932l1.354,-4.07l-1.625,0c-2.799,5.524 -5.508,9.787 -8.126,12.792c-8.307,13.857 -14.853,26.261 -19.639,37.212l-2.709,1.744c-1.083,0 -1.038,-1.744 0.135,-5.233c7.494,-17.831 15.214,-34.692 23.16,-50.585c3.16,-9.303 7.043,-15.505 11.648,-18.606c0.632,-0.678 1.129,-1.647 1.49,-2.907c0.451,-1.26 1.129,-4.748 2.032,-10.466l-1.625,0c-2.257,3.489 -3.792,6.396 -4.605,8.721l-2.032,5.814c-1.716,0 -5.463,5.814 -11.241,17.443c-0.542,1.55 -1.174,2.326 -1.896,2.326l-0.948,-0.581l1.896,-4.07l0.406,-1.163c0.451,-1.357 0.722,-3.682 0.813,-6.977l27.765,-56.399l4.876,-14.536c0.903,-2.423 4.831,-8.625 11.783,-18.606c1.625,-4.748 4.605,-9.787 8.939,-15.117l0.406,-1.163c0.271,-0.775 -0.135,-1.163 -1.219,-1.163c-1.445,0.775 -2.664,1.163 -3.657,1.163c-0.181,-0.678 -0.09,-1.454 0.271,-2.326l-2.709,0c-2.438,1.454 -4.424,2.423 -5.959,2.907c-2.889,-0.388 -5.327,-0.581 -7.314,-0.581c-5.147,2.52 -10.79,4.264 -16.93,5.233l-0.135,-1.163l0.135,-0.581c2.528,0 6.321,-2.132 11.377,-6.396l0.406,-1.163l-6.366,-0.581l-0.542,0c-1.986,0 -4.786,0.388 -8.397,1.163l-0.271,-1.163c3.883,-1.066 13.634,-5.33 29.255,-12.792l0.406,-1.163c-7.675,0 -17.517,1.938 -29.526,5.814c-4.785,-0.388 -8.894,-0.581 -12.325,-0.581l-0.542,0c-0.451,0 -2.573,0.388 -6.366,1.163l0.406,-1.163c22.483,-8.14 37.968,-12.21 46.456,-12.21l3.251,0c2.167,0 8.262,-3.682 18.284,-11.047l-0.542,-2.907c11.648,-6.59 18.239,-12.21 19.774,-16.862l6.095,-18.024c2.438,-7.074 7.675,-15.02 15.711,-23.839l0.813,-2.326l0.406,-7.559l0.271,-1.163c0.451,-1.26 4.334,-5.717 11.648,-13.373c1.896,-4.555 8.758,-17.346 20.587,-38.375l2.709,-8.14c0.993,-2.713 4.244,-7.946 9.752,-15.699l3.657,-11.047c5.147,-8.14 11.783,-12.21 19.91,-12.21c0.722,3.198 1.806,5.33 3.251,6.396l2.709,0c7.946,-9.981 13.544,-15.796 16.795,-17.443l1.625,0c1.896,0 2.889,0.775 2.98,2.326l-0.271,0.581c-1.625,4.942 -4.605,11.144 -8.939,18.606l-1.083,2.907c-0.181,0.678 0.226,4.361 1.219,11.047c-5.688,6.105 -8.894,10.175 -9.616,12.21c-0.271,0.775 -0.181,3.682 0.271,8.721c-0.271,0.872 -3.612,4.361 -10.023,10.466l-15.711,27.327c-1.986,3.779 -4.153,9.012 -6.501,15.699l-4.876,14.536c-0.451,1.26 -5.147,9.787 -14.086,25.583l3.251,0c18.871,-3.973 31.241,-6.88 37.11,-8.721c1.896,-0.969 5.327,-6.783 10.293,-17.443c2.618,0 8.758,-12.792 18.42,-38.375c4.876,-9.691 8.849,-14.536 11.919,-14.536c2.98,-3.489 4.876,-6.396 5.688,-8.721l0.542,-1.744c1.174,-3.392 1.806,-6.88 1.896,-10.466l1.625,-2.907l0.813,-2.326c5.688,-15.02 11.648,-24.13 17.878,-27.327c0.903,0.775 1.851,1.163 2.844,1.163c0.632,0 2.98,-4.264 7.043,-12.792c3.792,-4.651 7.133,-6.977 10.023,-6.977c4.153,1.454 5.643,3.973 4.469,7.559c0.09,0.775 0.045,1.357 -0.135,1.744l-5.147,10.466c-1.677,4.909 -1.23,7.746 1.341,8.51l0.967,-4.149l0.542,-1.744c1.986,-5.814 6.772,-10.272 14.357,-13.373c10.745,-18.218 18.51,-27.327 23.296,-27.327c3.431,1.551 2.302,12.404 -3.386,32.56c-0.632,6.977 1.083,10.466 5.147,10.466c1.181,1.394 1.84,2.705 1.979,3.933c6.553,-1.133 15.827,-3.607 27.823,-7.422c5.869,-1.55 9.752,-2.326 11.648,-2.326l12.46,0c11.558,0 19.865,-1.551 24.921,-4.651c3.612,-0.775 7.223,-1.357 10.835,-1.744l0.677,-1.744l-1.625,0l-20.181,-2.907l0.406,-1.163c11.214,-1.003 22.259,-2.294 33.137,-3.874c2.04,-2.43 3.95,-4.822 5.729,-7.174c2.98,-2.326 5.192,-3.489 6.637,-3.489l0.542,0c0.813,0 0.993,2.713 0.542,8.14c-0.357,0.582 -0.718,1.163 -1.082,1.744l1.493,0l24.921,3.489c19.142,4.167 28.262,7.656 27.359,10.466c11.106,9.691 14.627,20.544 10.564,32.56l-0.626,1.792c1.796,-0.498 3.677,-0.998 5.643,-1.502c7.675,-4.264 14.763,-7.559 21.264,-9.884c0.993,-3.004 5.959,-5.911 14.898,-8.722c1.535,0 8.036,-2.132 19.503,-6.396c2.528,0 9.887,-2.52 22.077,-7.559c4.153,0 14.131,-2.326 29.932,-6.977c4.515,-1.163 7.088,-1.744 7.72,-1.744c1.174,0 6.185,1.163 15.034,3.489l3.928,-0.581l7.991,5.233c4.605,1.066 8.081,4.167 10.429,9.303c0.179,0.761 0.347,1.509 0.503,2.243c0.62,-0.431 1.586,-0.683 2.9,-0.755c0.66,-0.469 0.914,-1.302 0.762,-2.501l-0.024,-0.189c-1.198,-2.348 -1.834,-3.805 -1.906,-4.373c-0.036,-0.284 0.818,-1.354 2.561,-3.21c-0.393,-3.091 0.664,-4.684 3.172,-4.778c-0.028,-0.221 0.413,-0.293 1.322,-0.216l0.549,0.074c0.656,0.558 1.677,2.928 3.064,7.11c1.521,0.64 3.017,2.501 4.489,5.583c0.04,0.315 1.999,2.983 5.877,8.003c0.511,1.185 0.798,2.03 0.862,2.535l0.361,2.839c0.204,0.344 0.403,0.682 0.595,1.013l0.506,-0.494c2.545,-0.958 4.128,-1.829 4.746,-2.613l0.98,-3.065c1.495,-0.839 2.364,-1.398 2.607,-1.677l0.248,-0.632c2.045,-1.023 4.254,-1.169 6.628,-0.438c1.362,-0.23 3.528,-1.393 6.499,-3.49c1.134,-0.477 1.998,-0.684 2.591,-0.619c2.234,0.689 2.862,1.65 1.884,2.884c-1.931,1.531 -2.973,2.391 -3.126,2.58l-0.322,0.432c-1.336,1.685 -1.136,2.928 0.602,3.729c1.899,0.585 2.436,1.4 1.611,2.446c-0.144,0.162 -1.47,0.521 -3.979,1.077c-0.107,0.144 -0.372,0.299 -0.793,0.464l-0.458,0.568c-0.26,0.333 -0.161,1.368 0.296,3.104c-0.243,0.28 -0.308,0.437 -0.197,0.471c-3.828,1.803 -6.102,3.11 -6.822,3.922l-0.242,-0.252l-0.168,-0.052c-0.503,-0.155 -1.917,0.768 -4.244,2.767l-0.208,0.258c9.318,-4.073 20.015,-8.74 28.268,-12.395l-5.102,0c-0.714,0 -0.95,-0.388 -0.707,-1.163c0.327,0 1.246,-0.363 2.756,-1.09c-2.385,0.51 -3.748,0.72 -4.089,0.631l-0.39,-0.463c0.797,-0.441 4.922,-1.503 10.233,-3.139c2.097,-1.126 4.575,-2.485 7.434,-4.079c18.118,-5.814 29.232,-10.078 33.341,-12.792c15.807,-2.713 24.425,-4.07 25.854,-4.07c15.716,0 29.382,5.621 40.996,16.862c2.307,7.849 6.212,16.765 11.713,26.746c-0.29,4.845 0.498,9.884 2.363,15.117c-0.466,4.942 -1.585,10.369 -3.359,16.28c-2.659,8.915 -8.604,19.769 -17.835,32.56c-0.846,1.454 -1.51,3.004 -1.993,4.651c-0.08,0.291 -0.03,1.841 0.15,4.651c-6.266,13.373 -13.347,25.002 -21.243,34.886c-7.643,12.21 -14.408,19.769 -20.297,22.676c-3.87,7.365 -8.964,14.148 -15.283,20.35c-2.245,5.136 -6.337,9.787 -12.274,13.954c-2.986,1.551 -10.326,9.303 -22.02,23.257c-17.129,14.342 -26.095,21.513 -26.898,21.513l-0.521,0.314c0.926,-0.015 1.605,-0.023 2.037,-0.023l-0.135,0.581c-0.324,0.261 -2.092,0.795 -5.305,1.601c-2.61,1.74 -4.827,3.432 -6.649,5.077c41.735,-4.452 64.32,-6.679 67.755,-6.679l2.167,0l-0.271,0.581c-0.542,1.551 -5.056,2.713 -13.544,3.489l0.135,-0.581c-2.799,1.163 -4.966,1.744 -6.501,1.744l-0.542,0l0.948,-1.163l0.135,-0.581l-2.167,0l-0.406,1.163c1.083,0 1.49,0.388 1.219,1.163c-19.413,5.039 -31.648,7.559 -36.704,7.559c-3.07,0.581 -4.786,1.357 -5.147,2.326l0.948,0.581c12.641,0 29.797,-1.551 51.467,-4.651l26.546,-3.489l2.167,0l-0.135,0.581c-0.271,0.678 -3.476,1.647 -9.616,2.907c-5.598,3.101 -17.788,5.427 -36.569,6.977c-17.427,4.264 -41.58,9.497 -72.46,15.699l-0.406,1.163l3.25,0l54.447,-5.814c0.181,0.775 0.181,1.357 0,1.744l2.709,0l0.813,-2.326c4.515,-1.163 8.668,-1.744 12.46,-1.744l2.573,0.581l-0.406,1.163c-41.083,10.078 -63.025,15.117 -65.824,15.117l-9.21,0c-6.411,3.101 -11.648,4.651 -15.711,4.651c-2.257,0 -7.585,1.357 -15.982,4.07c-5.327,6.59 -12.054,9.884 -20.181,9.884c-2.709,4.651 -5.463,6.977 -8.262,6.977c-5.508,5.524 -14.492,20.835 -26.953,45.933c-2.713,1.892 -5.856,5.316 -9.429,10.27c5.403,-4.833 11.206,-9.602 17.409,-14.307c16.219,-11.425 34.898,-22.323 56.039,-32.693c10.962,-7.294 25.614,-13.798 43.958,-19.51c1.454,0 8.445,-2.988 20.973,-8.964c10.067,-2.461 20.581,-5.8 31.543,-10.019c2.796,0.352 5.145,0.527 7.047,0.527l1.342,0c7.942,-4.57 16.387,-6.855 25.335,-6.855l0.671,0c3.467,0 5.313,1.758 5.537,5.273c-3.803,4.394 -5.872,7.031 -6.208,7.91c-1.566,3.252 0.503,6.943 6.208,11.073c-0.112,0.352 0,1.582 0.336,3.691c-1.901,3.955 -10.906,7.47 -27.013,10.546c-2.461,1.494 -4.027,2.9 -4.698,4.218l-1.678,3.691c-0.224,0.352 -0.112,0.527 0.336,0.527c-1.342,2.9 -8.333,6.943 -20.973,12.128c-9.06,9.491 -16.834,14.237 -23.321,14.237c-7.159,1.143 -17.785,6.591 -31.878,16.346c-21.923,16.522 -33.388,25.838 -34.395,27.947l-0.839,2.109c-0.336,0.527 0.056,1.055 1.174,1.582l0.671,0c9.731,-3.427 26.789,-7.822 51.173,-13.183c3.915,-0.703 7.718,-1.23 11.409,-1.582c6.711,0.615 19.966,3.427 39.764,8.437c20.693,2.549 28.802,8.701 24.328,18.456c-0.671,2.373 -1.342,4.306 -2.013,5.8c-3.915,8.349 -16.89,23.289 -38.925,44.821c-6.152,4.218 -17.673,14.061 -34.563,29.529c-0.224,0 -2.237,1.055 -6.04,3.164l-0.671,0l14.932,-13.71c4.362,-4.482 7.047,-7.822 8.053,-10.019l-2.013,0c-0.447,1.055 -9.06,7.558 -25.838,19.51c-5.369,6.679 -12.975,13.007 -22.818,18.983c-3.467,5.712 -13.087,13.446 -28.858,23.201c-8.165,4.658 -14.988,9.228 -20.469,13.71c-2.461,0.703 -5.369,2.637 -8.725,5.8c-1.23,0.703 -2.74,1.055 -4.53,1.055l0.168,-0.527l-0.671,0c-0.895,0.088 -1.454,0.439 -1.678,1.055l-0.336,0.527l1.342,0l-0.503,1.055c-4.25,3.867 -12.416,8.964 -24.496,15.292c-1.566,1.582 -3.803,2.988 -6.711,4.218l-1.342,0l0.336,-0.527c13.758,-7.997 21.308,-13.271 22.65,-15.819c20.805,-14.765 31.822,-23.553 33.053,-26.365l0.336,-0.527l-0.671,0c-19.574,10.898 -32.605,19.686 -39.093,26.365c-16.442,9.14 -25.503,13.71 -27.18,13.71c-14.653,9.755 -31.319,16.786 -49.998,21.092c-17.785,3.164 -33.388,7.91 -46.811,14.237c-3.803,1.406 -6.376,2.109 -7.718,2.109l-1.342,0c5.257,-3.427 14.709,-6.943 28.355,-10.546c0.671,-1.494 5.872,-3.076 15.604,-4.746c5.593,-3.076 14.093,-6.416 25.503,-10.019c2.796,-1.406 17.841,-10.722 45.133,-27.947l-1.174,-0.527c-6.152,0 -21.029,5.625 -44.63,16.874c-8.501,1.582 -19.686,6.328 -33.556,14.237c-8.053,2.812 -12.695,4.218 -13.926,4.218l-0.671,0c3.132,-2.285 11.129,-5.625 23.993,-10.019l35.234,-19.51c2.573,0 14.205,-5.8 34.898,-17.401c17.225,-7.91 28.187,-15.116 32.885,-21.619l-1.342,0l-52.347,29.002l-2.684,0c1.007,-2.109 9.284,-7.382 24.831,-15.819c6.935,-6.503 18.959,-14.589 36.073,-24.256c5.369,-5.712 12.863,-11.337 22.483,-16.874c0.336,-0.703 8.109,-6.855 23.321,-18.456c3.579,-4.746 9.619,-11.073 18.12,-18.983c3.356,-5.273 5.537,-8.964 6.543,-11.073c1.678,-3.515 -0.336,-5.976 -6.04,-7.382c-0.112,-0.615 0,-1.318 0.336,-2.109l-7.382,0c-2.796,0 -14.261,4.043 -34.395,12.128c-3.579,0.176 -10.179,3.34 -19.798,9.491c-18.232,8.085 -31.319,12.128 -39.261,12.128l-2.013,0c-13.311,0 -18.568,-7.91 -15.771,-23.729c1.901,-4.218 -2.573,-8.085 -13.422,-11.601c-0.202,-0.654 -0.347,-1.312 -0.435,-1.974c-1.526,1.692 -3.03,3.302 -4.513,4.828c-6.05,9.4 -12.009,17.346 -17.878,23.839c-5.056,7.462 -8.578,13.664 -10.564,18.606c-2.167,0 -9.21,9.497 -21.129,28.49c-0.542,1.55 -5.056,7.946 -13.544,19.187c-4.334,7.656 -12.054,17.734 -23.16,30.235c-6.682,10.369 -11.874,19.284 -15.576,26.746l-1.354,0.581l0.271,-0.581c2.348,-6.977 10.474,-21.901 24.379,-44.77c1.084,-2.132 1.761,-3.682 2.032,-4.651l-0.542,0c-1.354,0 -5.824,6.783 -13.409,20.35c-4.842,6.063 -11.7,15.472 -20.572,28.226c-0.791,2.583 -1.74,5.171 -2.845,7.764c0.107,4.681 -2.471,17.349 -7.734,38.002c0.859,0 0.483,1.836 -1.128,5.507l-0.161,0.551c-0.322,0.734 -0.913,1.101 -1.772,1.101c-0.215,-9.73 0.645,-18.358 2.578,-25.885c-0.061,-1.967 0.306,-6.152 1.099,-12.555c-2.214,3.25 -4.522,6.655 -6.923,10.216c-2.033,10.994 -4.872,28.113 -8.517,51.356c-3.008,7.068 -4.78,19.735 -5.317,38.002c0.107,1.928 -0.322,3.947 -1.289,6.058l-1.45,0.551c-0.537,-2.662 -0.054,-9.822 1.45,-21.479c1.074,-34.881 2.148,-53.606 3.223,-56.176c-0.044,-0.116 -0.087,-0.232 -0.129,-0.35c-1.402,2.106 -2.829,4.253 -4.281,6.443c-2.89,3.798 -4.933,6.356 -6.128,7.673l-2.192,22.032l-1.289,0c-1.289,-5.599 -1.235,-14.228 0.161,-25.885l1.986,-11.598c-5.172,7.36 -12.166,18.674 -20.981,33.942c-3.702,8.722 -6.456,14.73 -8.262,18.024l-1.083,0c0.542,-4.651 1.129,-7.946 1.761,-9.884l0.813,-2.326c2.257,-6.783 7.72,-17.637 16.388,-32.56l1.761,-5.233c0.361,-0.872 0.451,-1.647 0.271,-2.326c5.67,-9.646 9.708,-16.826 12.114,-21.542c0.046,-1.243 0.084,-2.556 0.111,-3.94c-3.022,3.058 -6.014,7.288 -8.975,12.691c-0.632,0 -3.386,3.876 -8.262,11.629l-1.084,0c1.54,-3.466 3.039,-6.808 4.498,-10.026c-1.314,-0.409 -1.287,-6.461 0.082,-18.157c-1.719,-4.039 0.107,-14.319 5.479,-30.842c2.363,-38.919 3.921,-70.863 4.673,-95.83c1.504,-9.638 2.686,-15.513 3.545,-17.624l-1.934,0c-14.609,3.029 -23.418,8.169 -26.426,15.421c-0.43,0.918 -7.197,7.16 -20.303,18.725c-11.709,18.542 -26.748,39.287 -45.117,62.234c-8.217,14.728 -14.144,22.586 -17.78,23.575l-0.181,0.485c-0.271,0.775 -0.767,1.163 -1.49,1.163l-0.542,0c-0.097,-2.491 0.208,-6.039 0.914,-10.643c-2.175,2.377 -4.413,5.134 -6.715,8.27c-5.206,20.025 -8.103,30.894 -8.691,32.608c-0.722,2.132 -2.393,6.008 -5.011,11.629c-0.993,3.876 -1.806,6.783 -2.438,8.722c-6.862,17.055 -11.016,27.715 -12.46,31.979l-1.354,0.581l-1.083,0c0.451,-1.163 0.497,-1.744 0.135,-1.744c0.09,-0.291 0.632,-1.454 1.625,-3.489c6.519,-28.369 11.017,-47.726 13.496,-58.071c-1.772,2.507 -3.616,5.201 -5.532,8.082c-4.498,12.016 -8.958,22.864 -13.381,32.546c-2.077,6.202 -3.341,11.047 -3.792,14.536c-1.264,2.616 -2.167,4.748 -2.709,6.396l-3.386,9.884c-0.271,0.775 -0.767,1.163 -1.49,1.163c-0.271,-3.489 0.271,-7.171 1.625,-11.047l2.573,-7.559l6.096,-25.819c-5.733,8.192 -12.118,18.107 -19.156,29.744l-0.645,0l-0.967,-0.551c1.932,-4.524 4.012,-9.11 6.242,-13.758c0.447,-4.259 2.347,-12.763 5.702,-25.512c-2.821,4.409 -5.782,9.054 -8.882,13.935l-1.611,0.551c-0.859,0 -1.128,-0.367 -0.806,-1.102c5.214,-10.571 11.59,-22.136 19.13,-34.694c0.621,-2.099 1.133,-3.963 1.534,-5.589c1.445,-3.295 2.528,-6.008 3.251,-8.14c0.829,-2.967 1.565,-5.531 2.206,-7.691l-0.661,1.04l-0.644,0l-1.128,-0.551c0.422,-0.982 0.865,-1.979 1.33,-2.993c-2.034,3.304 -3.123,5.152 -3.269,5.543l-0.542,0c-1.445,0 -0.858,-4.458 1.761,-13.373l13.544,-36.63c1.445,-5.427 3.025,-10.66 4.74,-15.699c1.264,-2.616 2.167,-4.748 2.709,-6.396c-0.813,0 -1.58,0.194 -2.302,0.581l-2.167,-1.744l-2.709,0c-3.341,1.454 -10.203,3.586 -20.587,6.396c-1.535,2.229 -10.474,6.299 -26.817,12.21c-0.451,1.163 -0.858,1.744 -1.219,1.744l-1.896,-0.581c-2.619,0 -9.481,10.078 -20.587,30.235c-2.889,2.423 -10.655,16.765 -23.296,43.026c-2.528,2.713 -4.063,4.07 -4.605,4.07c-0.271,-0.194 0.903,-5.233 3.521,-15.117c4.695,-8.528 7.314,-13.567 7.855,-15.117l0.135,-0.581l-0.542,0c-1.174,0.581 -7.449,10.66 -18.826,30.235c-0.632,1.744 -12.415,21.513 -35.35,59.306c-6.682,13.179 -10.7,19.769 -12.054,19.769c-0.993,-0.388 -1.174,-1.551 -0.542,-3.489c0.722,-2.035 7.494,-15.602 20.316,-40.7c2.618,-7.656 9.436,-20.835 20.451,-39.537l-0.542,0c-0.993,0.388 -4.379,5.039 -10.158,13.954c-3.702,0 -11.964,12.21 -24.785,36.63l-0.542,0c-0.722,0 -0.993,-0.388 -0.813,-1.163l2.167,-6.396c4.515,-8.915 9.165,-18.8 13.95,-29.653c1.354,-0 5.102,-6.783 11.241,-20.35l0.135,-0.581c0.451,-1.357 0.858,-3.101 1.219,-5.233c3.251,-3.198 6.727,-9.206 10.429,-18.024l23.16,-36.049l0.135,-0.581c-1.083,0 -6.953,1.938 -17.607,5.814l-0.542,0l0.135,-0.581c1.445,-2.326 7.901,-6.396 19.368,-12.21l0.542,-1.744l-0.542,0c-13.093,4.651 -28.758,11.435 -46.998,20.35l-1.625,0l0.135,-0.581l35.485,-21.513l0.271,-0.581l-1.083,0c-2.528,0 -18.42,6.396 -47.675,19.187c-15.982,9.303 -25.327,13.954 -28.036,13.954l-1.083,0l0.406,-1.163c5.869,-3.004 20.587,-11.338 44.153,-25.002c19.865,-9.497 34.176,-17.055 42.934,-22.676l0.271,-0.581l-1.625,0c-10.655,1.938 -19.548,5.233 -26.682,9.884c-1.445,1.26 -4.876,2.81 -10.293,4.651l-0.135,-1.163l0.135,-0.581c8.397,-4.361 14.989,-7.268 19.774,-8.722c21.129,-11.919 36.704,-20.059 46.727,-24.42c2.167,-1.163 5.418,-6.396 9.752,-15.699c4.424,-6.59 14.357,-23.645 29.797,-51.166c4.695,-5.524 9.436,-13.664 14.221,-24.42c20.948,-31.882 32.46,-50.875 34.537,-56.98c2.889,-4.361 4.515,-7.074 4.876,-8.14l0.813,-2.326l1.219,-9.884c0.361,-1.163 6.05,-8.334 17.065,-21.513c0.524,-0.759 1.039,-1.493 1.544,-2.202c-5.264,1.83 -11.375,3.969 -18.333,6.417l0.948,-1.163l0.406,-1.163c-4.515,0 -8.352,1.163 -11.512,3.489l-0.406,1.163l3.25,0l-0.135,0.581c-3.702,1.163 -6.637,1.744 -8.804,1.744c-0.722,0 -0.948,-0.388 -0.677,-1.163l0.271,-0.581c9.029,-4.845 16.975,-7.559 23.837,-8.14c4.848,-2.095 10.244,-4.707 16.189,-7.838c1.634,-2.001 3.129,-3.652 4.486,-4.953l-4.963,0c-6.682,1.938 -12.596,4.458 -17.743,7.559c-8.578,4.651 -14.221,6.977 -16.93,6.977c-6.772,0 -17.697,2.326 -32.776,6.977c-5.327,-0.291 -7.856,-0.872 -7.585,-1.744c1.716,-0.775 2.934,-1.163 3.657,-1.163c2.98,0.388 5.463,0.581 7.449,0.581c4.424,-2.616 10.339,-5.136 17.743,-7.559c1.896,-2.326 7.63,-4.845 17.201,-7.559l0.948,-1.163l0.135,-0.581c-6.772,0.388 -11.693,0.581 -14.763,0.581c-6.682,-0.581 -9.977,-1.551 -9.887,-2.907c16.253,-3.876 24.876,-5.814 25.869,-5.814c1.806,-2.229 10.023,-5.717 24.65,-10.466c0.993,-0.678 3.296,-3.198 6.907,-7.559c1.354,0 3.431,-1.357 6.23,-4.07c0.451,-1.454 -0.181,-4.361 -1.896,-8.721c3.792,-2.713 10.564,-16.28 20.316,-40.7c7.314,-12.113 13.634,-24.905 18.962,-38.375c5.869,-11.047 11.106,-22.87 15.711,-35.467c4.456,-8.046 11.848,-22.514 22.177,-43.403c-0.478,0.507 -0.965,1.02 -1.46,1.54c-2.799,3.295 -6.321,8.915 -10.564,16.862c-7.585,6.493 -12.009,11.532 -13.273,15.117l0.135,1.163c-0.813,1.454 -5.418,6.493 -13.815,15.117c-0.271,0.969 -4.108,5.427 -11.512,13.373c-0.903,2.713 -6.005,7.171 -15.305,13.373c-1.625,1.454 -2.799,3.198 -3.521,5.233l-0.948,2.907c-2.889,0 -8.623,7.365 -17.201,22.095c-26.456,33.142 -41.129,54.073 -44.018,62.795c-4.515,6.88 -15.079,21.416 -31.693,43.607c-4.244,8.528 -8.036,12.792 -11.377,12.792l0.271,-0.581c5.056,-8.625 8.939,-15.796 11.648,-21.513l-1.625,0c-3.251,4.361 -7.494,10.95 -12.731,19.769c-4.605,4.361 -11.828,15.02 -21.67,31.979c-10.835,12.307 -22.122,28.006 -33.86,47.096c-12.099,14.536 -18.646,23.257 -19.639,26.164l-0.542,0l0.542,-1.744c13.092,-20.544 25.011,-39.731 35.756,-57.562c1.174,-3.392 8.036,-15.602 20.587,-36.63l0.813,-2.326l-1.084,0c-4.153,3.876 -11.106,12.598 -20.858,26.164c-17.336,21.319 -27.449,36.243 -30.338,44.77c-0.361,0 -1.67,1.744 -3.928,5.233l-1.083,0l0.135,-0.581c1.354,-3.779 6.817,-12.888 16.388,-27.327c2.167,-4.361 9.661,-16.377 22.483,-36.049c0.271,-0.872 4.605,-6.686 13.002,-17.443c1.445,-4.361 6.953,-14.245 16.524,-29.653l0.542,-1.744l-0.542,0c-0.813,0.485 -3.747,4.361 -8.804,11.629l-0.542,0l-0.813,-0.581c2.257,-4.651 7.133,-13.179 14.628,-25.583c2.348,-7.074 10.384,-20.641 24.108,-40.7c11.377,-12.307 18.871,-22.191 22.483,-29.653l2.167,-6.396c3.521,-20.156 4.786,-30.235 3.792,-30.235c-2.619,-0.969 -3.025,-4.07 -1.219,-9.303l2.573,-5.814c2.077,-16.958 3.792,-27.424 5.147,-31.397c3.431,-9.012 5.192,-13.664 5.282,-13.954c0.512,-2.197 1.077,-5.394 1.697,-9.59Zm64.073,-69.405c-7.911,11.582 -12.318,18.726 -13.219,21.433l-0.135,0.581c-0.451,1.357 -0.451,7.752 0,19.187c-2.619,11.822 -3.205,22.094 -1.761,30.816c0.632,1.454 0.632,5.136 0,11.047c-4.334,7.559 -6.998,12.792 -7.991,15.699l-2.032,5.814l1.625,0c2.167,-1.066 6.501,-5.911 13.002,-14.536c1.896,-1.357 8.126,-8.528 18.691,-21.513c3.251,-3.101 5.418,-6.202 6.501,-9.303c0.09,-4.651 0.451,-7.946 1.083,-9.884c1.445,-3.489 5.598,-7.752 12.46,-12.792l1.625,-4.651c0.09,-0.388 -0.045,-0.581 -0.406,-0.581c0.748,-2.142 6.4,-8.395 16.953,-18.758c-10.266,2.04 -19.166,3.06 -26.699,3.06l-10.293,0l-1.354,0.581l-0.135,-1.163c6.682,-3.779 15.937,-6.493 27.765,-8.14c0.271,-0.485 2.122,-1.26 5.553,-2.326l2.573,0.581l5.959,0c0.423,0 1.965,-0.456 4.628,-1.369c2.716,-2.802 5.596,-5.253 8.64,-7.353c0.57,-0.674 1.126,-1.317 1.668,-1.93c-19.744,2.456 -33.932,4.456 -42.565,6l-0.542,0c-3.973,-1.163 -7.223,-1.744 -9.752,-1.744c-4.899,0.539 -8.847,0.954 -11.843,1.243Zm-17.179,435.363c1.22,-1.723 2.449,-3.496 3.685,-5.318c10.098,-11.658 24.009,-29.098 41.733,-52.321c2.793,-1.56 4.78,-3.763 5.962,-6.609c0,-1.469 -0.322,-2.203 -0.967,-2.203l-0.644,0c-4.941,0 -12.192,2.937 -21.753,8.812c-2.471,0.734 -4.351,1.102 -5.64,1.102c-1.611,-0.734 -2.363,-1.469 -2.256,-2.203l0.161,-0.551c1.289,-3.029 4.834,-5.783 10.635,-8.261c0.752,-0.734 1.182,-1.285 1.289,-1.652l-3.867,0c-5.586,0 -14.072,3.304 -25.459,9.913c-2.041,1.101 -3.76,1.652 -5.156,1.652c0.967,-2.203 10.151,-7.71 27.554,-16.522c0.752,-0.643 1.289,-1.377 1.611,-2.203l-1.934,0l-22.559,3.305c-1.833,0.701 -3.59,1.362 -5.272,1.984c-11.589,39.181 -16.534,58.771 -14.834,58.771c2.167,0 4.424,2.907 6.772,8.721c6.466,1.469 10.112,2.664 10.938,3.583Zm190.381,-408.172c-0.407,0.823 -0.85,1.701 -1.329,2.634c1.464,-0.54 3.066,-1.108 4.805,-1.705l0.813,-1.163l0.271,-0.581l-0.542,0c-1.394,0.285 -2.734,0.557 -4.018,0.816Zm163.435,-23.128c0.735,6.109 0.462,11.027 -0.817,14.753c-2.265,5.389 -4.444,10.349 -6.537,14.881c0.542,-0.543 1.045,-1.057 1.51,-1.542c2.432,-1.465 4.405,-2.984 5.919,-4.554c0.971,-0.35 1.694,-0.836 2.169,-1.458c0.243,-0.28 0.356,-0.776 0.339,-1.49c1.062,-0.924 2.352,-1.976 3.87,-3.154c-2.546,-5.777 -4.545,-10.758 -4.586,-11.076c0.262,-0.77 0.373,-1.313 0.333,-1.629l-0.048,-0.379c-0.843,-1.639 -1.56,-3.089 -2.151,-4.352Zm-52.961,292.533l-0.948,1.163l-0.135,0.581l0.542,0c0.722,0 1.219,-0.388 1.49,-1.163l-0.948,-0.581Zm-415.811,-40.846l-0.813,2.326l0.542,0c0.722,0 1.219,-0.388 1.49,-1.163l0.406,-1.163l-1.625,0Zm410.529,45.497c-2.528,3.198 -3.928,5.136 -4.199,5.814l-0.135,0.581l1.083,0c3.07,-3.876 4.695,-6.008 4.876,-6.396l-1.625,0Zm-183.928,203.305c3.141,-3.737 5.082,-6.773 5.825,-9.106l0.406,-1.163l-0.542,0c-1.821,1.866 -3.707,3.915 -5.656,6.148c0.016,1.414 0.005,2.788 -0.033,4.121Zm-61.997,97.667c4.666,-10.235 8.908,-19.173 12.727,-26.812c-0.045,-2.764 -0.111,-5.69 -0.198,-8.778c1.182,-12.667 2.148,-20.928 2.9,-24.784l-1.289,0l-0.967,2.203c0.43,2.111 -2.417,14.411 -8.54,36.9c-1.404,3.17 -2.948,10.261 -4.633,21.27Zm-134.616,-52.228l-0.326,0.4l-0.193,0.623c0.171,-0.339 0.344,-0.68 0.52,-1.023Zm550.632,-516.494l-0.23,1.163c-0.895,2.713 -1.183,4.845 -0.865,6.396c-1.603,2.907 -2.81,5.621 -3.622,8.14l-2.416,8.14c-0.563,1.938 -4.611,9.303 -12.146,22.094l-5.561,18.606c1.654,1.454 1.23,6.299 -1.272,14.536c-2.082,4.651 -3.526,8.334 -4.331,11.047l-3.509,11.629c-3.448,6.59 -5.454,10.853 -6.016,12.792l0.822,0.581l0.536,0c15.812,-10.853 26.005,-21.513 30.579,-31.979l1.093,-3.489c0.24,-0.872 0.304,-1.647 0.193,-2.326c0.406,-1.26 6.681,-10.175 18.827,-26.746l0.479,-1.744l2.014,-8.14c3.716,-6.59 6.06,-11.435 7.032,-14.536l0.115,-0.581c-1.697,0 -1.584,-6.202 0.337,-18.606l2.416,-8.14c2.106,-6.687 -0.289,-11.726 -7.185,-15.117l-4.822,0c-2.858,0 -4.97,2.326 -6.338,6.977l-6.129,9.303Zm-129.35,208.42c3.528,-2.416 7.159,-4.637 10.891,-6.662l4.672,-4.652l0.364,-1.163c-2.054,0 -9.239,4.264 -21.554,12.792c-1.346,0.46 -2.695,0.981 -4.047,1.563c3.116,-0.612 6.341,-1.238 9.674,-1.878Zm-70.639,15.297c1.118,-0.104 2.145,-0.155 3.081,-0.155l0.275,-0.087l10.453,-18.223l0.683,-1.785l-0.455,0c-1.214,0 -5.84,6.694 -13.879,20.081l-0.157,0.169Zm-30.226,66.245l1.208,-1.861c2.348,-6.977 2.438,-10.466 0.271,-10.466c-1.312,-0.49 -2.389,-0.825 -3.232,-1.005l-0.399,2.062c1.179,4.191 1.897,7.948 2.153,11.27Zm-328.392,276.129c1.748,-3.044 3.554,-6.111 5.417,-9.203l7.642,-22.497c-0.93,1.402 -1.89,2.857 -2.882,4.365c-1.132,2.928 -1.93,5.137 -2.393,6.629l-1.896,6.977c-2.131,5.015 -4.094,9.591 -5.888,13.729Zm204.276,-107.22l0.313,-0.411c3.16,-3.198 9.165,-12.307 18.013,-27.327c6.682,-7.074 10.339,-11.532 10.971,-13.373l0.271,-0.581c-0.813,-1.938 -1.174,-3.101 -1.083,-3.489c5.418,-9.109 16.704,-22.094 33.86,-38.956c2.882,-4.144 5.563,-7.975 8.042,-11.494c-9.49,6.393 -19.367,11.437 -29.631,15.133c-22.666,6.793 -34.912,12.3 -36.738,16.522c-2.793,7.068 -5.156,20.653 -7.09,40.755c1.551,8.537 2.575,16.277 3.072,23.22Zm-4.684,-138.877l-1.611,3.855c-1.289,2.937 -5.21,8.628 -11.763,17.073l-0.967,2.203l1.289,0c13.857,-1.928 25.352,-5.783 34.482,-11.566c16.113,-3.304 29.487,-8.996 40.122,-17.073c10.098,-6.517 15.63,-10.923 16.597,-13.218l2.578,-6.058c-2.793,-1.101 -5.317,-1.652 -7.573,-1.652c-19.873,2.295 -30.347,4.681 -31.421,7.16c-6.123,0 -16.274,3.672 -30.454,11.015c-0.645,1.377 -3.223,2.846 -7.734,4.406c-1.826,1.377 -3.008,2.662 -3.545,3.855Zm-34.557,-213.446l-1.354,4.07c-0.09,0.388 0.045,0.581 0.406,0.581c-5.508,8.818 -10.745,18.897 -15.711,30.235c-0.632,0 -1.67,1.938 -3.115,5.814l-0.406,2.907c-1.264,1.551 -2.573,3.876 -3.928,6.977l0.813,0.581l0.542,0c6.321,0 11.874,-3.101 16.659,-9.303c3.341,-2.713 7.269,-7.365 11.783,-13.954c8.126,-5.136 16.298,-14.245 24.515,-27.327c10.293,-9.206 16.117,-15.796 17.472,-19.769l2.032,-5.814c0.181,-0.581 -0.271,-1.357 -1.354,-2.326l-4.876,0c-3.792,0 -12.551,4.458 -26.275,13.373c-4.695,0 -9.887,4.651 -15.576,13.954l-1.625,0Zm-116.478,121.52c-0.181,0.775 0.045,1.163 0.677,1.163l0.542,0l0.406,-1.163l-1.625,0Zm108.677,356.916c2.275,-5.367 4.354,-10.001 6.238,-13.9c0.139,-0.878 0.308,-1.779 0.509,-2.703l-0.967,-0.551l-0.357,-0l-0.356,0.603c-0.415,3.043 -2.104,8.559 -5.068,16.55Zm60.487,-601.7l-0.813,4.07c-3.25,0 -7.043,6.396 -11.377,19.187l-3.928,11.629c-0.632,1.841 -4.334,8.431 -11.106,19.769c0.09,0.775 0.09,1.357 0,1.744c-0.542,0 -1.309,0.581 -2.302,1.744l-0.948,2.907l0.542,0c2.709,0 10.203,-6.59 22.483,-19.769c4.154,-1.938 12.19,-8.721 24.108,-20.35c2.709,-3.586 4.56,-6.88 5.553,-9.884l1.625,-4.651c1.806,-5.33 1.174,-8.818 -1.896,-10.466c-3.973,-0.388 -7.856,-0.581 -11.648,-0.581l-2.709,0c-3.973,0 -6.501,1.551 -7.585,4.651Zm121.089,22.385l-1.354,4.07c-1.083,3.101 -4.379,9.109 -9.887,18.024l-0.813,2.326l1.083,0c11.648,-2.035 21.309,-6.105 28.984,-12.21c13.544,-3.489 24.786,-9.497 33.725,-18.024c8.488,-6.88 13.138,-11.532 13.95,-13.954l2.167,-6.396c-2.348,-1.163 -4.47,-1.744 -6.366,-1.744c-16.704,2.423 -25.508,4.942 -26.411,7.559c-5.147,0 -13.679,3.876 -25.598,11.629c-0.542,1.454 -2.709,3.004 -6.501,4.651c-1.535,1.454 -2.528,2.81 -2.98,4.07Zm139.232,-14.082c0.826,1.838 1.73,3.936 2.711,6.296c12.605,-4.754 22.644,-9.2 30.116,-13.34l0.426,-0.915c-0.752,-0.715 -2.428,-0.692 -5.029,0.07c-3.568,1.977 -12.976,4.607 -28.225,7.89Zm-16.322,13.239c-0.529,-0.741 -1.126,-1.714 -1.766,-2.853c-1.691,1.439 -4.245,3.542 -7.663,6.308l9.429,-3.455Zm-262.101,164.35c-2.02,1.007 -4.338,2.032 -6.954,3.074l-32.235,26.164c-0.722,0 -5.282,3.876 -13.679,11.629c-4.605,1.163 -12.099,4.651 -22.483,10.466c-2.257,0 -6.682,2.326 -13.273,6.977c-1.283,0 -5.722,0.948 -13.315,2.844c0.788,0.72 1.613,1.08 2.474,1.08l1.625,0c1.264,0 5.824,-1.744 13.679,-5.233l2.167,0c2.799,0 2.348,7.752 -1.354,23.257c-0.722,2.035 -4.515,6.299 -11.377,12.792c-0.632,0.678 -1.174,1.647 -1.625,2.907l-0.406,1.163c-0.451,1.357 1.219,5.039 5.011,11.047c0.451,1.26 0.632,2.81 0.542,4.651c-0.451,1.357 -3.702,6.202 -9.752,14.536l-0.271,0.581c-0.451,1.454 -1.716,7.849 -3.792,19.187l-2.302,6.977l-1.194,4.01c3.137,-0.824 5.569,-1.236 7.296,-1.236c2.471,-1.928 9.238,-5.232 20.303,-9.913c1.934,-1.469 8.272,-3.672 19.014,-6.609l0.967,-1.101l0.322,-0.551l-0.645,0c-18.047,2.937 -28.359,4.406 -30.938,4.406l-0.161,-1.102c5.693,-3.488 17.993,-7.16 36.899,-11.015c5.149,-2.278 10.077,-4.263 14.782,-5.957c6.957,-18.154 15.625,-37.197 26.006,-57.13c0.903,-2.52 5.553,-12.404 13.95,-29.653l1.49,-4.651l-1.625,0c-3.251,3.295 -17.472,29.847 -42.664,79.656l-1.354,0.581c-0.722,0 -0.948,-0.388 -0.677,-1.163c5.327,-13.567 12.099,-28.684 20.316,-45.352c1.535,-5.717 2.664,-9.594 3.386,-11.629c8.488,-16.571 13.093,-25.874 13.815,-27.909l-1.625,0c-2.799,4.264 -7.63,13.179 -14.492,26.746l-0.542,0l-0.948,-0.581c4.876,-14.245 13.138,-31.688 24.786,-52.329c0.282,-0.539 0.566,-1.079 0.854,-1.62Zm69.543,-149.524c-1.112,1.945 -2.277,3.971 -3.495,6.077c-2.528,3.586 -10.79,10.369 -24.786,20.35c-0.632,0.678 -1.083,1.454 -1.354,2.326l-2.844,8.14l16.253,9.884c3.452,2.084 5.837,4.874 7.155,8.372c7.414,-11.335 16.498,-25.852 27.252,-43.549c2.348,-1.647 4.018,-3.973 5.011,-6.977c0,-1.551 -0.271,-2.326 -0.813,-2.326l-0.542,0c-4.153,0 -10.248,3.101 -18.284,9.303c-2.077,0.775 -3.657,1.163 -4.74,1.163c-1.354,-0.775 -1.986,-1.551 -1.896,-2.326l0.135,-0.581c1.084,-3.198 4.063,-6.105 8.939,-8.722c0.632,-0.775 0.993,-1.357 1.083,-1.744l-3.251,0c-1.133,0 -2.408,0.203 -3.824,0.609Zm155.868,6.911c-1.103,1.561 -2.169,2.93 -3.195,4.109c-13.815,17.152 -28.758,29.362 -44.831,36.63c-19.052,7.171 -29.345,12.985 -30.88,17.443c-2.348,7.462 -4.334,21.804 -5.959,43.026c3.883,26.843 3.837,46.224 -0.135,58.143c-0.408,5.868 -1.701,13.082 -3.879,21.641c8.823,-15.281 15.379,-27.353 19.668,-36.217c4.854,-5.578 8.532,-10.933 11.035,-16.065c2.124,-1.636 3.527,-3.421 4.209,-5.355c0.379,-0.892 0.265,-2.231 -0.341,-4.016c5.233,-8.702 13.993,-21.197 26.28,-37.485c5.157,-9.074 9.329,-16.66 12.514,-22.759c5.537,-4.388 8.76,-7.809 9.67,-10.264l0,-8.479c3.034,-3.272 4.74,-5.355 5.119,-6.247l0.114,-1.785c4.247,-4.165 9.594,-6.247 16.041,-6.247c3.185,-1.636 7.622,-6.247 13.311,-13.834c2.427,-2.083 4.399,-3.272 5.916,-3.57c6.067,0 8.381,1.934 6.94,5.801c-3.565,5.355 -5.461,8.33 -5.688,8.925l-0.455,1.339c-1.972,5.281 -0.493,8.256 4.437,8.925c5.157,0 7.129,1.636 5.916,4.909c-0.228,0.521 -3.223,2.454 -8.987,5.801c-0.152,0.446 -0.683,1.041 -1.593,1.785l-0.683,1.785c-0.379,1.041 0.683,3.57 3.185,7.586c-0.379,0.892 -0.417,1.339 -0.114,1.339c-8.039,7.512 -12.628,12.569 -13.766,15.172l-0.796,-0.446l-0.455,0c-1.365,0 -4.133,3.421 -8.305,10.264l-2.048,5.355c-0.531,1.413 -4.247,6.917 -11.149,16.511l-0.228,0.892l-2.503,10.264c-0.607,1.711 -5.157,7.066 -13.652,16.065c-0.91,2.454 -9.746,16.437 -26.507,41.947c-4.012,6.719 -8.853,14.078 -14.523,22.078c10.306,-2.782 25.459,-6.168 45.458,-10.159c3.477,-2.344 7.512,-4.967 12.105,-7.868c4.283,-5.621 11.464,-12.792 21.541,-21.513l0.479,-1.744l-2.679,0c-5.488,4.264 -8.455,6.396 -8.902,6.396l-1.072,0l-0.822,-0.581c2.375,-3.876 6.581,-7.752 12.617,-11.629c2.464,-3.876 4.603,-6.783 6.416,-8.722l0.595,-2.326c1.857,-6.105 3.934,-12.307 6.231,-18.606c0.288,-2.132 0.596,-3.682 0.921,-4.651c0.722,-2.52 4.369,-9.884 10.94,-22.094l1.093,-3.489c0.483,-1.647 1.155,-5.717 2.017,-12.21c9.697,-17.734 14.786,-27.424 15.269,-29.072c1.108,-7.171 1.985,-11.822 2.63,-13.954c0.649,-2.035 4.786,-8.043 12.411,-18.024l0.479,-1.744c0.729,-2.326 1.643,-5.814 2.743,-10.466c0.4,-1.454 2.736,-5.136 7.01,-11.047l-6.422,-12.21c0.02,-0.071 0.084,-0.165 0.192,-0.283c-5.442,1.946 -12.171,3.93 -20.513,5.819l-0.882,-0.87l1.651,-1.594c2.857,-1.583 6.274,-2.797 10.251,-3.642l1.764,1.739l2.041,-1.131c-0.328,-0.271 -0.616,-0.791 -0.864,-1.559l16.974,-8.632l0.281,-0.897c-0.491,0 -0.967,-0.028 -1.427,-0.083c-7.193,1.147 -21.706,3.566 -32.726,6.07c-1.341,0.58 -2.645,1.132 -3.912,1.657c2.027,5.044 4.329,11.018 6.907,17.921c0.823,5.056 1.282,7.962 1.378,8.719l-0.272,-0.014c-0.298,-0.219 -1.534,-2.866 -3.709,-7.942c-0.43,-0.554 -0.736,-0.836 -0.917,-0.845l-0.278,-0.061l0.048,0.378c4.721,17.316 7.166,26.637 7.334,27.961l0.096,0.757l-0.278,-0.061c-0.732,-0.099 -1.464,-1.609 -2.195,-4.528l0.272,0.014c-0.656,-0.91 -1.018,-1.633 -1.086,-2.17l-0.024,-0.189l0.573,0.264l0.272,0.014l-0.096,-0.757l-0.549,-0.074c0.048,0.378 -0.111,0.543 -0.477,0.493c-3.164,-6.489 -4.859,-10.616 -5.084,-12.382c-0.402,-1.039 -0.832,-1.593 -1.291,-1.663l-0.224,0.365c0.561,4.416 2.032,10.318 4.411,17.708l2.773,9.07l0.096,0.757l-0.272,-0.014c-0.322,-0.055 -0.907,-1.119 -1.755,-3.19c-1.665,-1.775 -3.269,-5.898 -4.812,-12.369c-2.722,-5.84 -6.186,-13.973 -10.391,-24.4l-0.549,-0.074l0.144,1.135l5.075,18.681c-0.346,0.108 -0.612,0.142 -0.797,0.101l0.12,0.946l1.099,0.149c0.732,1.51 1.182,2.927 1.35,4.251l-0.151,0.933l-0.549,-0.074c-6.429,-13.766 -9.706,-21.137 -9.83,-22.115l-0.409,-3.217c-1.299,-1.572 -2.816,-5.281 -4.179,-8.183c-3.658,0.886 -6.613,1.244 -8.866,1.073c-3.225,0.883 -5.561,1.401 -7.008,1.555l-0.742,0.596c-2.769,2.425 -6.111,5.057 -10.025,7.896c-0.223,0.315 -1.11,0.928 -2.658,1.839c-0.548,0.658 -1.483,1.138 -2.807,1.438l-0.242,-0.252l11.082,-10.051l0.458,-0.568l-0.168,-0.052c-0.447,-0.138 -2.924,1.757 -7.431,5.683c-1.678,0.93 -3.866,2.736 -6.564,5.419c-1.055,0.835 -2.514,1.927 -4.376,3.277Zm-97.75,199.593c-0.031,-4.453 -0.251,-7.401 -0.66,-8.845l-0.948,1.163c-1.141,4.696 -2.055,9.105 -2.74,13.228l4.094,0l0.211,-0.07c0.02,-1.054 0.034,-2.053 0.041,-2.998c-0.509,0.461 -1.083,0.848 -1.723,1.162c0.076,-0.297 -0.038,-0.446 -0.341,-0.446c0.701,-0.896 1.389,-1.961 2.066,-3.193Zm-137.213,-265.891c-0.41,-0.085 -0.853,-0.165 -1.33,-0.238l-2.532,-0c-0.394,0.829 -0.726,1.604 -0.994,2.326l-0.135,0.581l2.167,0c0.956,-0.894 1.898,-1.784 2.825,-2.669Zm111.489,277.01c-0.034,-2.113 -0.076,-4.31 -0.128,-6.591c0.993,-13.373 1.806,-22.094 2.438,-26.165l-1.084,0l-0.813,2.326c0.329,2.028 -1.623,12.964 -5.856,32.808c1.608,-0.695 3.422,-1.487 5.442,-2.379Zm-11.695,5.005c0.651,-5.646 2.249,-13.387 4.795,-23.224c1.986,-41.088 3.296,-74.811 3.928,-101.169c1.264,-10.175 2.257,-16.377 2.98,-18.606l-1.625,0c-12.28,3.198 -19.684,8.625 -22.212,16.28c-0.361,0.969 -6.05,7.559 -17.065,19.769c-9.842,19.575 -22.483,41.476 -37.923,65.702c-7.404,16.668 -12.596,25.002 -15.576,25.002c-0.813,0 -0.813,-1.551 0,-4.651c1.986,-2.616 3.251,-4.748 3.792,-6.396l1.354,-4.07l-1.083,0c-5.056,5.33 -10.564,14.051 -16.524,26.165c-4.334,6.686 -9.345,15.602 -15.034,26.746c-4.717,7.223 -10.157,16.844 -16.32,28.863c2.084,-0.689 4.121,-1.317 6.113,-1.884c1.182,-2.845 7.09,-5.599 17.725,-8.261c1.826,0 9.561,-2.019 23.203,-6.058c3.008,0 11.763,-2.387 26.265,-7.16c2.864,0 8.056,-0.74 15.575,-2.22c-3.162,-1.289 -4.549,-3.593 -4.162,-6.913c-0.632,0 -0.677,-0.969 -0.135,-2.907l0.406,-1.163c1.806,-1.26 8.849,-2.81 21.129,-4.651c2.348,-3.101 8.126,-5.814 17.336,-8.14c0.286,0 1.306,-0.35 3.06,-1.05Zm-243.041,277.269c0.277,-0.459 0.498,-0.887 0.662,-1.286l1.611,-3.855l-0.646,0c-0.529,1.703 -1.071,3.417 -1.628,5.141Zm-129.374,-51.495l-0.135,0.581l1.625,0c0.542,0 1.264,-0.581 2.167,-1.744l0.271,-0.581l-1.625,0c-0.542,0 -1.309,0.581 -2.302,1.744Zm125.688,-126.171c-0.813,2.423 -3.386,4.167 -7.72,5.233l-10.7,18.606c-1.625,0 -5.734,7.946 -12.325,23.839c-7.404,11.241 -12.776,21.707 -16.117,31.397c-0.181,0.775 0.045,1.163 0.677,1.163c14.808,-4.652 25.643,-7.752 32.506,-9.303l2.302,-2.326l0.271,-0.581c1.174,-3.586 3.792,-9.206 7.855,-16.862c10.655,-34.111 13.002,-51.166 7.043,-51.166l-3.792,0Zm-120.677,122.683l-0.542,1.744l1.083,0c0.542,0 1.264,-0.581 2.167,-1.744l-0.948,-0.581c-0.813,0.388 -1.4,0.581 -1.761,0.581Zm-57.291,157.569l-0.542,1.744l1.083,0l0.542,-1.744l-1.083,0Zm-47.003,-310.631l1.084,0l-0.406,1.163l0.542,0l2.032,-1.163l-0.135,0.581c-3.612,10.66 -8.939,21.513 -15.982,32.56l-0.542,0c-0.903,0 -0.858,-1.744 0.135,-5.233c2.257,-3.489 3.612,-5.814 4.063,-6.977l1.896,-5.814c0.722,-2.132 3.16,-7.171 7.314,-15.117Zm86.687,52.62l0.542,0l-0.406,1.163c-2.618,5.814 -4.289,8.721 -5.011,8.721l-0.271,-1.163l0.406,-1.163c0.181,-0.388 1.761,-2.907 4.74,-7.559Zm257.341,-423.284c0.542,0.291 2.573,0.678 6.095,1.163c-0.542,1.163 -2.167,1.744 -4.876,1.744l-4.876,0c-0.722,0 -0.948,-0.388 -0.677,-1.163l0.135,-0.581c2.528,0 3.928,-0.388 4.199,-1.163Z" style="fill:#d91a4e;"/></g></svg>